<?xml version="1.0" encoding="UTF-8" standalone="no"?>
<!-- Created with Inkscape (http://www.inkscape.org/) -->

<svg
   width="41.275002mm"
   height="41.275002mm"
   viewBox="0 0 41.275002 41.275002"
   version="1.1"
   id="svg1055"
   inkscape:version="1.1.1 (3bf5ae0d25, 2021-09-20)"
   sodipodi:docname="css_logo.svg"
   inkscape:export-filename="C:\Users\matth\Desktop\bitmap.png"
   inkscape:export-xdpi="96"
   inkscape:export-ydpi="96"
   xmlns:inkscape="http://www.inkscape.org/namespaces/inkscape"
   xmlns:sodipodi="http://sodipodi.sourceforge.net/DTD/sodipodi-0.dtd"
   xmlns="http://www.w3.org/2000/svg"
   xmlns:svg="http://www.w3.org/2000/svg">
  <sodipodi:namedview
     id="namedview1057"
     pagecolor="#ffffff"
     bordercolor="#666666"
     borderopacity="1.0"
     inkscape:pageshadow="2"
     inkscape:pageopacity="0.0"
     inkscape:pagecheckerboard="0"
     inkscape:document-units="mm"
     showgrid="false"
     inkscape:zoom="2.7865881"
     inkscape:cx="66.210001"
     inkscape:cy="99.763578"
     inkscape:window-width="1920"
     inkscape:window-height="986"
     inkscape:window-x="-11"
     inkscape:window-y="-11"
     inkscape:window-maximized="1"
     inkscape:current-layer="layer1" />
  <defs
     id="defs1052" />
  <g
     inkscape:label="Layer 1"
     inkscape:groupmode="layer"
     id="layer1"
     transform="translate(-9.8405197,-22.373769)">
    <circle
       style="opacity:1;fill:#ffffff;fill-opacity:1;stroke:#1a1d27;stroke-width:1.5875;stroke-miterlimit:4;stroke-dasharray:none;stroke-opacity:1"
       id="path1533"
       cx="30.47802"
       cy="43.011269"
       r="19.84375" />
    <g
       id="g3013"
       transform="matrix(0.05655148,0,0,0.05655148,16.15846,28.81021)">
      <polygon
         id="polygon2989"
         points="404.321,470.819 255.778,512 107.644,470.877 74.633,100.62 437.367,100.62 "
         style="fill:#264de4" />
      <polygon
         id="polygon2991"
         points="256,480.523 376.03,447.246 404.27,130.894 256,130.894 "
         style="fill:#2965f1" />
      <polygon
         id="polygon2993"
         points="256,268.217 150.31,268.217 154.38,313.627 256,313.627 "
         style="fill:#ebebeb" />
      <polygon
         id="polygon2995"
         points="255.843,176.305 142.132,176.305 146.26,221.716 256,221.716 256,176.305 "
         style="fill:#ebebeb" />
      <polygon
         id="polygon2997"
         points="255.801,386.206 205.227,372.55 201.994,336.333 177.419,336.333 156.409,336.333 162.771,407.634 255.791,433.457 256,433.399 256,386.153 "
         style="fill:#ebebeb" />
      <path
         id="path2999"
         d="m 160,0 h 55 v 23 h -32 v 23 h 32 v 23 h -55 z"
         inkscape:connector-curvature="0" />
      <path
         id="path3001"
         d="m 226,0 h 55 v 20 h -32 v 4 h 32 V 70 H 226 V 49 h 32 v -4 h -32 z"
         inkscape:connector-curvature="0" />
      <path
         id="path3003"
         d="m 292,0 h 55 v 20 h -32 v 4 h 32 V 70 H 292 V 49 h 32 v -4 h -32 z"
         inkscape:connector-curvature="0" />
      <polygon
         id="polygon3005"
         points="319.831,221.716 315.699,268.217 255.843,268.217 255.843,313.627 311.761,313.627 306.49,372.521 255.843,386.191 255.843,433.435 348.937,407.634 349.62,399.962 360.291,280.411 361.399,268.217 369.597,176.305 255.843,176.305 255.843,221.716 "
         style="fill:#ffffff" />
    </g>
  </g>
</svg>
