<?xml version="1.0" encoding="UTF-8" standalone="no"?>
<!-- Created with Inkscape (http://www.inkscape.org/) -->

<svg
   width="39.133057mm"
   height="39.133057mm"
   viewBox="0 0 39.133057 39.133057"
   version="1.1"
   id="svg1788"
   sodipodi:docname="flask_logo.svg"
   inkscape:version="1.1.1 (3bf5ae0d25, 2021-09-20)"
   xmlns:inkscape="http://www.inkscape.org/namespaces/inkscape"
   xmlns:sodipodi="http://sodipodi.sourceforge.net/DTD/sodipodi-0.dtd"
   xmlns:xlink="http://www.w3.org/1999/xlink"
   xmlns="http://www.w3.org/2000/svg"
   xmlns:svg="http://www.w3.org/2000/svg">
  <sodipodi:namedview
     id="namedview1790"
     pagecolor="#ffffff"
     bordercolor="#666666"
     borderopacity="1.0"
     inkscape:pageshadow="2"
     inkscape:pageopacity="0.0"
     inkscape:pagecheckerboard="0"
     inkscape:document-units="mm"
     showgrid="false"
     inkscape:zoom="1.9704153"
     inkscape:cx="53.542012"
     inkscape:cy="129.41434"
     inkscape:window-width="1682"
     inkscape:window-height="1020"
     inkscape:window-x="1"
     inkscape:window-y="91"
     inkscape:window-maximized="0"
     inkscape:current-layer="layer1" />
  <defs
     id="defs1785">
    <linearGradient
       id="linearGradient2795">
      <stop
         style="stop-color:#b8b8b8;stop-opacity:0.49803922;"
         offset="0"
         id="stop2797" />
      <stop
         style="stop-color:#7f7f7f;stop-opacity:0;"
         offset="1"
         id="stop2799" />
    </linearGradient>
    <linearGradient
       id="linearGradient2787">
      <stop
         style="stop-color:#7f7f7f;stop-opacity:0.5;"
         offset="0"
         id="stop2789" />
      <stop
         style="stop-color:#7f7f7f;stop-opacity:0;"
         offset="1"
         id="stop2791" />
    </linearGradient>
    <linearGradient
       id="linearGradient3676">
      <stop
         style="stop-color:#b2b2b2;stop-opacity:0.5;"
         offset="0"
         id="stop3678" />
      <stop
         style="stop-color:#b3b3b3;stop-opacity:0;"
         offset="1"
         id="stop3680" />
    </linearGradient>
    <linearGradient
       id="linearGradient3236">
      <stop
         style="stop-color:#f4f4f4;stop-opacity:1"
         offset="0"
         id="stop3244" />
      <stop
         style="stop-color:white;stop-opacity:1"
         offset="1"
         id="stop3240" />
    </linearGradient>
    <linearGradient
       id="linearGradient4671">
      <stop
         style="stop-color:#ffd43b;stop-opacity:1;"
         offset="0"
         id="stop4673" />
      <stop
         style="stop-color:#ffe873;stop-opacity:1"
         offset="1"
         id="stop4675" />
    </linearGradient>
    <linearGradient
       id="linearGradient4689">
      <stop
         style="stop-color:#5a9fd4;stop-opacity:1;"
         offset="0"
         id="stop4691" />
      <stop
         style="stop-color:#306998;stop-opacity:1;"
         offset="1"
         id="stop4693" />
    </linearGradient>
    <linearGradient
       x1="224.23996"
       y1="144.75717"
       x2="-65.308502"
       y2="144.75717"
       id="linearGradient2987"
       xlink:href="#linearGradient4671"
       gradientUnits="userSpaceOnUse"
       gradientTransform="translate(100.2702,99.61116)" />
    <linearGradient
       x1="172.94208"
       y1="77.475983"
       x2="26.670298"
       y2="76.313133"
       id="linearGradient2990"
       xlink:href="#linearGradient4689"
       gradientUnits="userSpaceOnUse"
       gradientTransform="translate(100.2702,99.61116)" />
    <linearGradient
       inkscape:collect="always"
       xlink:href="#linearGradient4671"
       id="linearGradient2255"
       gradientUnits="userSpaceOnUse"
       gradientTransform="matrix(0.562541,0,0,0.567972,-11.5974,-7.60954)"
       x1="224.23996"
       y1="144.75717"
       x2="-65.308502"
       y2="144.75717" />
    <linearGradient
       inkscape:collect="always"
       xlink:href="#linearGradient4689"
       id="linearGradient2258"
       gradientUnits="userSpaceOnUse"
       gradientTransform="matrix(0.562541,0,0,0.567972,-11.5974,-7.60954)"
       x1="172.94208"
       y1="76.176224"
       x2="26.670298"
       y2="76.313133" />
    <radialGradient
       inkscape:collect="always"
       xlink:href="#linearGradient2795"
       id="radialGradient2801"
       cx="61.518883"
       cy="132.28575"
       fx="61.518883"
       fy="132.28575"
       r="29.036913"
       gradientTransform="matrix(1,0,0,0.177966,0,108.7434)"
       gradientUnits="userSpaceOnUse" />
  </defs>
  <g
     inkscape:label="Layer 1"
     inkscape:groupmode="layer"
     id="layer1"
     transform="translate(-20.85592,-41.445893)">
    <circle
       style="opacity:1;fill:#ffffff;stroke:#1a1d27;stroke-width:1.5875;stroke-miterlimit:4;stroke-dasharray:none;stroke-opacity:1"
       id="path1906"
       cx="40.422447"
       cy="61.012421"
       r="18.772778" />
    <path
       d="m 36.407391,68.685857 c -0.857916,-0.675082 -1.772088,-1.320628 -2.396538,-2.23058 -1.315003,-1.605428 -2.327624,-3.463307 -3.019583,-5.416823 -0.418409,-1.269997 -0.562567,-2.632114 -1.101226,-3.85359 -0.563973,-0.886044 0.09704,-1.856473 1.06888,-2.137756 0.432473,-0.08298 1.192642,-0.492247 0.274251,-0.199712 -0.822755,0.603354 -0.902218,-0.548504 -0.05836,-0.621637 0.576632,-0.07735 0.787595,-0.548503 0.590696,-0.971835 -0.618825,-0.403643 1.499242,-0.845962 0.433178,-1.448613 -1.109665,-1.195455 1.552686,-1.426109 0.895888,-0.0661 -0.156112,1.044968 1.860693,-0.19268 1.392355,1.015434 0.476073,0.580148 1.781933,0.132199 1.748881,0.945818 0.693366,0.04781 0.93105,0.630778 1.582222,0.675081 0.675081,0.304489 1.896557,0.544284 2.125803,1.304453 -0.668049,0.529516 -2.217219,-1.09349 -2.292463,0.372701 0.202524,2.165885 0.150486,4.396466 0.9423,6.45898 0.374811,1.248197 1.283357,2.231284 2.102596,3.203822 0.785487,0.952146 1.849442,1.623008 2.932385,2.186982 0.950739,0.448648 1.976019,0.745402 3.011846,0.932456 0.419817,-0.321368 1.162406,-1.51612 1.817094,-1.012621 0.03164,0.566786 -1.300937,1.184204 -0.0633,1.121618 0.727823,-0.219402 1.232023,0.562568 1.830455,-0.143455 0.55202,0.653985 2.292461,-0.417002 1.900773,0.918392 -0.530923,0.342463 -1.305155,0.135719 -1.836781,0.60687 -0.876903,-0.4381 -1.575189,0.391688 -2.545618,0.28691 -1.078021,0.193382 -2.174325,0.270735 -3.267113,0.272141 -1.793184,-0.140641 -3.623637,-0.201117 -5.328922,-0.825567 -0.961286,-0.279174 -1.898665,-0.826272 -2.742517,-1.374072 z m 1.51401,0.656095 c 0.938081,0.405049 1.856473,0.832599 2.883159,0.96199 1.631446,0.226433 3.315633,0.576631 4.952705,0.257375 -0.741184,-0.334728 -1.506978,0.130099 -2.245348,-0.239092 -0.886044,0.189867 -1.828346,-0.04922 -2.742517,-0.16666 -1.023171,-0.455679 -2.127912,-0.769312 -3.085683,-1.361414 -1.197566,-0.437396 0.618823,0.561162 0.9423,0.64203 0.748215,0.424739 -0.822755,-0.210962 -1.04497,-0.393796 -0.627262,-0.351606 -0.706725,-0.278471 -0.06189,0.07876 l 0.393797,0.220809 z m -1.786152,-1.261558 c 0.90925,0.33754 -0.0043,-0.639921 -0.419816,-0.583665 -0.184242,-0.319959 -0.705319,-0.522483 -0.337541,-0.694067 -0.661017,0.229246 -0.691958,-0.87198 -1.002073,-0.714461 -0.698991,-0.220808 -0.272143,-1.002777 -1.104039,-1.483772 -0.07595,-0.506311 -0.826975,-0.944411 -1.066067,-1.707393 -0.105474,-0.390984 -0.848773,-1.5119 -0.39239,-0.468338 0.388171,1.005591 1.071691,1.865615 1.641291,2.724937 0.441616,0.818536 0.963398,1.67364 1.767868,2.184873 0.27144,0.260188 0.533034,0.658907 0.915579,0.740479 z m -2.618753,-2.876128 c 0.03164,-0.137125 0.165958,0.296754 0,0 z m 3.708025,3.279066 c 0.201117,-0.09001 -0.289723,-0.113926 0,0 z m 0.492245,0.180022 c -0.05133,-0.248233 -0.225026,0.139236 0,0 z m 0.618825,0.257375 c 0.293942,-0.279877 -0.453569,-0.175803 0,0 z m 1.059034,0.590696 c 0.178615,-0.263704 -0.571709,-0.09845 0,0 z m -2.032276,-1.416967 c 0.457087,-0.295348 -0.590696,-0.0043 0,0 z m 0.464118,0.232059 c -0.01406,-0.156113 -0.165254,0.07032 0,0 z m 2.315669,1.445799 c 0.372701,0.234871 2.174324,0.514749 1.046376,0.09634 -0.189866,0.03938 -2.092048,-0.538659 -1.046376,-0.09634 z m -3.676379,-2.86347 c -0.03516,-0.156112 -0.578038,-0.172989 0,0 z m 1.07802,0.62867 c 0.281284,-0.196899 -0.582258,-0.151191 0,0 z m 0.914173,0.562567 c 0.402939,-0.151893 -0.652579,-0.152596 0,0 z m -2.432401,-1.670122 c 0.435989,0.334728 1.762242,0.04219 0.668048,-0.199712 -0.497169,-0.26511 -1.617381,-0.446538 -0.853696,0.159629 l 0.184943,0.04008 z m 3.037865,1.854363 c 0.182834,-0.309412 -0.763686,-0.177209 0,0 z m -0.923315,-0.733448 c 1.068879,0.302381 -0.897998,-0.675081 -0.263704,-0.112517 l 0.140642,0.06328 0.123069,0.04781 z m 1.850847,1.06888 c 1.012622,0.0098 -0.914171,-0.140643 0,0 z M 35.63597,65.844188 c -0.03938,-0.188461 -0.24964,0.01547 0,0 z m 6.066589,3.735448 c 0.02672,-0.340354 -0.330509,0.253156 0,0 z m -4.338803,-2.679228 c -0.06118,-0.179318 -0.316444,-0.007 0,0 z m -1.631446,-1.17436 c 0.580851,-0.03516 -0.794627,-0.255968 0,0 z m -1.931717,-1.247494 c -0.07243,-0.278471 -0.631482,-0.500685 0,0 z m 5.071547,3.21859 c -0.105475,-0.12166 -0.04922,0.02602 0,0 z m 3.156004,1.937343 c -0.0098,-0.185648 -0.171582,0.07032 0,0 z m -3.435178,-2.225658 c 0.05625,-0.239092 -0.495762,-0.07244 0,0 z m -2.351532,-1.490805 c 0.432473,-0.04571 -0.692661,-0.291832 0,0 z m 3.977352,2.471782 c 0.673675,-0.26722 -0.656094,-0.1301 0,0 z m -2.068842,-1.40431 c 0.77564,0.09985 -0.923314,-0.527407 -0.170881,-0.05625 z m 2.696808,1.658168 c 0.724307,-0.432473 0.485215,1.014732 1.229211,0.122365 0.733447,-0.535845 -0.632888,0.662424 0.270033,0.09564 0.653983,-0.437397 1.61949,0.207447 2.229174,0.417004 0.438802,-0.02109 0.864947,0.379733 1.315002,0.135719 0.864948,-0.233465 -1.693329,-0.345979 -1.022468,-0.759466 -0.791813,0.230653 -1.376883,-0.274252 -1.767165,-0.781969 -0.888856,-0.205338 -1.915543,-0.659611 -2.359268,-1.445799 -0.180725,-0.295348 0.260188,0.04219 -0.156113,-0.440913 -0.534438,-0.476072 -0.801659,-1.016841 -1.161701,-1.596286 -0.428959,-0.228542 -0.480293,-0.902921 -0.523188,-0.0225 0.0035,-0.555536 -0.518266,-0.930347 -0.646953,-0.774937 -0.0021,-0.53444 0.559051,-0.267219 0.165957,-0.662424 -0.08438,-0.555536 -0.362856,-1.132167 -0.445835,-1.75943 -0.130099,-0.30238 -0.01829,-0.949333 -0.443022,-0.26511 -0.154705,0.722196 -0.05134,-0.88745 0.189867,-0.35723 0.316444,-0.541472 -0.113927,-0.478183 -0.130791,-0.402939 0.206041,-0.457086 0.130791,-1.105446 -0.05415,-0.857916 0.1097,-0.485214 0.173694,-1.782636 -0.163847,-1.552686 0.20393,-0.506311 0.388172,-2.318483 -0.500686,-1.627931 -0.360043,0.0049 -0.983087,0.130791 -1.277732,0.277065 0.923315,0.509123 -0.09282,0.18424 -0.469743,0.102671 -0.04922,0.471151 -0.421926,0.267219 -0.886044,0.272142 0.743995,0.09141 -0.362153,0.759466 -0.787595,0.500685 -0.554129,0.264408 0.478182,0.925424 0.0105,1.130058 0.05766,0.307303 -0.848775,-0.111109 -0.777751,0.600541 -0.537251,-0.226433 -0.07383,0.843851 0.195494,0.481698 0.914171,0.24753 0.643436,0.811505 0.666642,1.348053 -0.149081,0.312225 -0.735558,-0.73415 -0.13079,-0.68563 -0.478184,-0.775639 -0.527407,-0.281282 -0.924722,0.08017 -0.09141,0.02602 1.012622,0.513343 0.319258,0.752435 0.609683,0.09423 0.627263,0.627966 0.751028,0.964803 0.365669,0.381843 0.290425,-0.421926 0.729228,0.03728 -0.277768,-0.40786 -1.469707,-1.151154 -0.509827,-0.914171 -0.0049,-0.410675 -0.173693,-0.742589 0.120956,-0.734855 0.291832,-0.527407 -0.305193,1.300938 0.351605,0.630076 0.181428,-0.07947 0.227137,-0.527407 0.553425,0.04219 0.473965,0.46693 0.171584,0.804471 -0.497872,0.37692 0.119548,0.406455 0.895186,0.551317 0.748919,1.186314 0.154705,0.559052 0.370592,0.353012 0.559051,0.320664 0.140643,0.542878 0.232059,0.143454 0.239091,-0.114618 0.676488,0.144861 0.517563,0.544987 0.729932,0.824161 0.466227,0.210963 -0.668049,-1.426109 0.13361,-0.492246 0.841741,0.759467 0.316445,1.07802 -0.439507,0.956364 0.478184,-0.03867 0.632889,0.646954 1.230617,0.622342 0.54569,0.260188 0.914173,1.256635 -0.02531,0.841038 -0.325586,-0.293941 -1.48096,-0.656797 -0.537252,-0.09844 0.870573,0.403643 1.562531,0.64414 2.402163,1.151154 0.600541,0.421926 0.860026,0.919798 1.087866,1.017544 -0.504905,0.241201 -1.521746,-0.19268 -0.77353,-0.325586 -0.471151,-0.08579 -1.001371,-0.323477 -0.549911,0.263 0.383952,0.320664 1.359304,0.28691 1.534404,0.323477 -0.147674,0.326289 -0.40294,0.351604 0.0056,0.377623 -0.45568,0.243311 0.146268,0.281284 0.188461,0.419817 z m -0.932456,-2.632816 c -0.277768,-0.290426 -0.349495,-0.833303 -0.04922,-0.360746 0.154705,0.06189 0.492246,0.888153 0.04922,0.360746 z m 3.037866,1.920465 c 0.172989,-0.0113 0.0049,0.131494 0,0 z m -3.473855,-2.640551 c -0.0113,-0.438803 0.09985,0.33754 0,0 z m -0.302381,-0.405753 c -0.349495,-0.675081 0.439506,0.189866 0,0 z M 35.51783,62.353455 c 0.205338,-0.05484 0.101263,0.350198 0,0 z m 2.911288,1.578002 c 0.126578,-0.47326 0.140643,0.39661 0,0 z m -2.056887,-1.430328 c -0.144862,-0.260187 0.302379,0.244716 0,0 z m 1.765055,0.56538 c -0.330508,-0.740479 0.234873,-0.404344 0.07383,0.120956 z m -3.04349,-2.029463 c -0.140643,-0.243309 -0.391688,-0.956364 -0.312928,-1.174359 0.07032,0.354417 0.753839,1.525965 0.334727,0.492247 -0.462712,-0.87198 0.553426,0.28269 0.658204,0.500684 0.04922,0.215887 -0.285503,-0.05907 -0.05907,0.448649 -0.413488,-0.578038 -0.244014,0.319256 -0.620231,-0.260188 z m -0.940192,-0.648358 c 0.03867,-0.565381 0.215182,0.386764 0,0 z m 0.423332,0.146267 c 0.201821,-0.426145 0.34176,0.594212 0,0 z m -1.026685,-0.77353 c -0.350199,-0.348088 -0.603354,-0.668049 0.01688,-0.215886 0.239091,0.0092 -0.530924,-0.729228 0.05766,-0.234872 0.618823,0.112518 0.305192,1.014732 -0.07383,0.450055 z m 0.534439,-0.01406 c 0.203931,-0.201822 0.108292,0.198305 0,0 z m 0.329102,0.105488 c -0.309413,-0.578038 0.374107,0.242607 0,0 z m -0.653985,-0.62445 c -1.018248,-0.90714 1.279841,0.47326 0.165957,0.16877 z m 2.916913,1.694734 c -0.440913,-0.263703 -0.117435,-1.859285 0.03305,-0.768608 0.428957,-0.138532 -0.02391,0.563975 0.295348,0.556942 -0.04922,0.443022 -0.193383,0.602651 -0.328399,0.210963 z m 1.078724,0.637812 c 0.04219,-0.480995 0.09141,0.329102 0,0 z m -0.187055,-0.185647 c 0.04922,-0.205338 0.0043,0.241903 0,0 z m -3.601838,-2.44506 c -0.653985,-0.902219 1.900775,0.912765 0.419112,0.228542 -0.154706,-0.04078 -0.341056,-0.05484 -0.419112,-0.228542 z m 2.077984,1.101226 c -0.06189,-0.759467 0.137829,0.126577 0,0 z m 1.577299,1.012621 c 0.121661,-0.432473 0.0092,0.286207 0,0 z m -3.554725,-2.458421 c 0.388876,-0.08298 1.617383,0.682114 0.488731,0.217996 -0.124465,-0.13783 -0.390984,-0.07524 -0.488731,-0.217996 z m 3.337432,1.663795 c 0.04219,-0.777046 0.23206,-0.464118 0.0015,0.112518 z m -3.048412,-1.933827 c 0.158925,-0.232059 -0.42052,-1.049891 0.08298,-0.293238 0.210963,0.17299 0.630778,0.289723 0.267219,0.362856 0.573116,0.506311 -0.140641,0.137126 -0.349495,-0.07033 z m 2.883158,1.691922 c 0.108997,-0.886044 0.09635,0.518266 0,0 z m -3.213666,-2.509051 c 0.120956,-0.05204 0.0633,0.161738 0,0 z m 0.752433,0.447945 c 0.193383,-0.406455 0.357231,0.452866 0,0 z m 2.121584,1.179986 c -0.0015,-0.154707 0.04008,0.227135 0,0 z m -0.123056,-0.27144 c -0.293942,-0.726415 0.281283,0.384655 0,0 z m -0.180725,-0.476776 c -0.04922,-0.30027 0.16877,0.376921 0,0 z m 0.29394,-0.478182 c -0.202524,-0.355824 0.255266,-1.568158 0.3066,-0.815723 -0.213072,0.586477 -0.06118,0.914172 0.0865,0.126578 0.274252,-0.618825 -0.05907,1.221474 -0.393798,0.689145 z m 0.302381,-1.804436 c 0.08791,-0.108292 0.01969,0.130099 0,0 z m -0.505608,9.951119 c -0.119548,-0.105475 0.01547,0.0661 0,0 z m 1.040751,0.525999 c 0.578741,0.149082 0.576632,-0.09001 0.05274,-0.161737 -0.281283,-0.261594 -1.168735,-0.539362 -0.374107,-0.03235 0.05204,0.140643 0.217994,0.1301 0.321367,0.193383 z m -2.053373,-1.364226 c 0.318555,0.239092 1.20038,0.673676 0.454274,0.09141 0.25175,-0.292536 -0.481698,-0.448648 -0.239092,-0.64414 -0.618823,-0.379733 -0.48873,-0.351604 -0.05486,-0.332618 -0.743995,-0.332619 0.107588,-0.307303 0.06751,-0.478182 -0.286909,-0.05625 -1.424701,-0.506311 -0.755247,0.03657 -0.680706,-0.346683 -0.161737,0.129395 -0.367778,0.07945 -0.70321,-0.189867 0.618825,0.53022 -0.110405,0.351605 0.398719,0.316445 1.074505,0.810801 0.16877,0.334728 -0.119547,0.171583 0.64836,0.432474 0.843852,0.562567 z m 1.087866,0.625856 c 1.322033,0.426145 -0.649063,-0.520374 0,0 z m 5.569419,3.374 c 0.01688,-0.263 -0.180725,0.225027 0,0 z m 0.572413,0.241201 c 0.305193,-0.295348 0.01262,0.471151 0.506311,-0.07242 0.0049,-0.388875 -0.01406,-0.618825 -0.566788,-0.146268 -0.152596,0.08438 -0.220104,0.443022 0.06118,0.217995 z m -9.087577,-5.709358 c -0.09353,-0.368482 -0.656798,-0.367076 0,0 z m 0.611792,0.400829 c -0.227137,-0.376217 -0.810097,-0.341057 0,0 z m 3.478074,2.097674 c 0.339651,0.302381 1.55972,0.221512 0.412082,0.03728 -0.168771,-0.251045 -1.078021,-0.189867 -0.412082,-0.03728 z m 4.780419,2.95348 c 0.522485,-0.438803 -0.506311,0.195493 0,0 z m 1.087162,0.746809 c 0.0035,-0.140642 -0.225028,0.06118 0,0 z m 0.0021,-0.196898 c 0.578742,-0.611792 -0.560458,0.03516 0,0 z M 32.312625,62.48145 c -0.492247,-0.70321 -0.3066,-1.019654 -0.78197,-1.594176 -0.09001,-0.439506 -0.815723,-1.436658 -0.375514,-0.379733 0.403643,0.618825 0.523188,1.575189 1.157484,1.976018 z m 11.27948,7.064443 c 1.065362,-0.687739 -0.43599,-0.299567 0,0 z m 0.812911,0.318554 c 0.534438,-0.457087 -0.337542,-0.09564 0,0 z M 33.634658,62.963148 c 0.152597,-0.227136 -0.393797,-0.02953 0,0 z m 10.600883,6.684007 c 0.516157,-0.332618 -0.119547,-0.281284 -0.09353,0.03023 z m -7.005395,-4.416167 c -0.01758,-0.225027 -0.272846,0.01899 0,0 z m 0.432474,0.248936 c -0.137829,-0.278471 -0.210962,0.0436 0,0 z m 7.401281,4.391544 c 0.661016,-0.478182 -0.40083,-0.09141 -0.138533,0.09141 z m -0.253156,-0.122365 c 0.539362,-0.451461 -0.5696,0.199712 0,0 z m 1.293905,0.861431 c 0.36145,-0.241903 -0.439506,-0.07736 0,0 z M 33.967254,62.797877 c 0.485215,0.108292 1.937342,1.19405 1.080833,0.07524 -0.438803,-0.1301 -0.175803,-1.202489 -0.623747,-1.012622 0.30027,0.502091 0.246123,0.715866 -0.383953,0.399422 -0.792517,-0.386764 -0.445131,0.191274 -0.290425,0.351606 -0.210963,0.04922 0.279174,0.182834 0.217995,0.187053 z m -2.208079,-1.743954 c 0.0865,-0.358637 -0.799548,-1.976018 -0.418409,-0.810097 0.137126,0.244014 0.123056,0.706726 0.418409,0.810097 z m 4.054706,2.499911 c -0.250342,-0.208854 -0.01196,-0.02953 0,0 z m 0.614606,0.143455 c 0,-0.379734 -0.6793,-0.154707 0,0 z m 5.328219,3.358528 c -0.101967,-0.260188 -0.40083,-0.0056 0,0 z m 0.255969,0.187054 c -0.03798,-0.145564 -0.140643,0.02813 0,0 z m 2.111737,1.330473 c 0.203931,-0.149784 -0.253155,-0.01969 0,0 z m -11.263306,-7.23673 c 0.58085,-0.225027 -0.622341,-0.160332 0,0 z m 8.424449,5.307825 c -0.007,-0.376217 -0.370592,0.09353 0,0 z m -8.6544,-5.843671 c 0.372701,-0.126578 -0.344573,-0.08298 0,0 z m 1.082944,0.524595 c -0.007,-0.12376 -0.114618,0.04711 0,0 z m 13.2119,8.100974 c 0.479589,-0.09705 1.573783,0.244014 1.750992,-0.126578 -0.583664,-0.01406 -2.016102,-0.411378 -2.08361,0.09423 l 0.126577,0.0211 0.206041,0.01262 z M 34.05867,61.41256 c 0.0085,-0.381139 -0.296754,-0.01406 0,0 z m -2.847998,-1.976018 c -0.129395,-0.725712 -0.492246,-0.109701 0,0 z m 0.678597,0.17088 c 0.0085,-0.233466 -0.621637,-0.209557 0,0 z m 0.388172,0.189867 c -0.112518,-0.09142 -0.0872,0.114618 0,0 z m 2.442247,1.566047 c 0.115322,-0.105474 -0.272142,-0.07736 0,0 z M 32.019363,59.36622 c -0.0661,-0.548503 -0.787595,-0.08227 0,0 z m -1.392355,-0.903624 c -0.01969,-0.253155 -0.135719,0.09564 0,0 z m 0.207447,-0.156112 c -0.03375,-0.30027 -0.177912,0.03798 0,0 z m 1.144122,0.682114 c 0.483808,-0.189867 -0.881121,-0.393797 -0.09845,-0.03516 z m 15.314497,9.463091 c 0.309412,-0.284098 -0.393797,-0.08791 0,0 z m 1.849441,0.958474 c 0.124465,-0.365669 -0.312928,0.04922 0,0 z M 32.094607,58.392276 c 0.05133,-0.355122 -0.383953,0.07033 0,0 z m -1.628633,-1.089975 c -0.08579,-0.502795 -0.07313,-1.381806 0.762279,-1.085052 -1.115994,0.222214 0.77353,1.388135 0.534438,0.466931 0.469745,0.0232 0.918393,-0.277768 0.671565,0.177912 0.926128,-0.100558 1.566049,-0.903624 2.460532,-0.790407 0.703208,-0.09282 1.457049,-0.161739 2.208077,-0.443022 0.616715,-0.04431 1.209521,-0.708132 0.87198,-1.101931 -0.841039,-0.07032 -1.721457,0.03375 -2.6511,0.219402 -1.030202,0.213776 -1.965471,0.620935 -3.004815,0.794627 -1.012621,0.136423 0.203931,0.374811 -0.0865,0.428957 -0.527407,0.182836 0.630779,0.3066 -0.06821,0.500686 -0.43177,-0.08227 -0.881121,-0.230653 -0.696178,-0.685629 -0.970429,0.126578 -1.823422,0.528813 -1.05622,1.51612 l 0.05625,7.03e-4 z m 2.340281,-1.184909 c 0.227136,-0.838225 1.218661,0.689147 0.372701,0.112518 -0.100558,-0.07595 -0.267219,-0.137125 -0.372701,-0.112518 z m 0.04431,-0.406454 c 0.328399,-0.244014 0.174395,0.137126 0,0 z m 0.417003,0.007 c 0.03023,-0.38536 0.954958,0.210963 0.152597,0.138532 z m 0.5696,-0.229247 c 0.208853,-0.244013 0.06048,0.215886 0,0 z m 0.146268,-0.09844 c 0.347385,-0.417004 1.964064,-0.267219 0.77353,-0.04078 -0.316444,-0.239091 -0.560458,0.140643 -0.77353,0.04078 z m 2.109629,-0.325586 c -0.05204,-1.1392 1.049187,0.404346 0,0 z m 0.599134,-0.0035 c 0.217994,-0.573819 0.850883,-0.230653 0.101967,-0.115322 0.01617,0.06118 -0.0225,0.296754 -0.101967,0.115322 z m -4.83316,3.042787 c 0.653985,-0.400829 -0.694067,-0.347385 0,0 z m 0.483809,0.140643 c 0.229246,-0.244014 -0.492247,-0.09844 0,0 z m -1.424707,-1.023088 c 0.372701,-0.288315 -0.443022,-0.108996 0,0 z m 19.317166,12.084656 c 0.0105,-0.333321 -0.285503,0.149785 0,0 z m -1.961959,-1.339689 c 0.05625,-0.383249 -0.253155,0.03305 0,0 z m 2.503427,1.469707 c 0.522483,0.0021 1.583626,-0.161737 0.446537,-0.161737 -0.178615,0.02813 -1.040749,0.0211 -0.446537,0.161737 z M 32.769688,57.997072 c 0.423332,-0.02813 0.661017,-0.466229 -0.08227,-0.441616 -1.153263,-0.119548 1.016841,0.395204 -0.140642,0.24753 -0.156112,0.103375 0.220808,0.222215 0.22995,0.193383 z m 0.372701,0.188461 c -0.04431,-0.27144 -0.130791,0.144157 0,0 z m 0.443022,-1.17858 c 0.182835,-0.22784 -0.253156,-0.06118 0,0 z M 32.178992,54.65542 c 0.755247,-0.256671 1.787559,-0.544987 2.144789,0.126578 -0.362857,-0.435989 -0.146267,-0.866354 0.196899,-0.22784 0.485214,0.645547 0.727118,-0.293942 0.412081,-0.51053 0.358637,0.445835 0.766497,0.656798 0.240498,0.02813 0.573114,-0.689146 -1.146232,0.09001 -1.537217,0.08227 -0.187757,0.08438 -1.940859,0.447241 -1.455644,0.501389 z m 0.443022,-0.847367 c 0.430364,-0.324883 1.489398,0.193382 0.810097,-0.323477 -0.0668,-0.05837 -1.487288,0.391688 -0.810097,0.323477 z m 1.569564,0.06469 c 0.503497,0.01262 -0.217996,-0.67719 0.382546,-0.364262 -0.09844,-0.322069 -0.698991,-0.381842 -0.992933,-0.511233 -0.165957,0.293942 0.337541,0.879012 0.609684,0.875495 z m -1.293906,-1.424701 c 0.174397,-0.236279 -0.305896,0.119548 0,0 z m 0.638515,0.153299 c 0.812206,-0.107588 -0.206744,-0.349495 -0.163848,-0.0084 z m -1.198269,-0.935269 c -0.57171,-0.746809 1.07591,0.125169 0.494356,-0.656094 -0.489434,-0.388875 -0.958475,0.438803 -0.494356,0.656094 z m 7.337288,3.952038 c 0.262297,-0.464118 -1.082943,-0.625856 -0.175803,-0.164551 0.08298,0.02813 0.06469,0.196899 0.175803,0.164551 z"
       id="path1824"
       style="stroke-width:0.70321" />
  </g>
</svg>
