<?xml version="1.0" encoding="UTF-8" standalone="no"?>
<!-- Created with Inkscape (http://www.inkscape.org/) -->

<svg
   width="39.133057mm"
   height="39.133057mm"
   viewBox="0 0 39.133057 39.133057"
   version="1.1"
   id="svg1788"
   sodipodi:docname="sass_logo.svg"
   inkscape:version="1.1.1 (3bf5ae0d25, 2021-09-20)"
   xmlns:inkscape="http://www.inkscape.org/namespaces/inkscape"
   xmlns:sodipodi="http://sodipodi.sourceforge.net/DTD/sodipodi-0.dtd"
   xmlns:xlink="http://www.w3.org/1999/xlink"
   xmlns="http://www.w3.org/2000/svg"
   xmlns:svg="http://www.w3.org/2000/svg">
  <sodipodi:namedview
     id="namedview1790"
     pagecolor="#ffffff"
     bordercolor="#666666"
     borderopacity="1.0"
     inkscape:pageshadow="2"
     inkscape:pageopacity="0.0"
     inkscape:pagecheckerboard="0"
     inkscape:document-units="mm"
     showgrid="false"
     inkscape:zoom="1.9704153"
     inkscape:cx="53.542012"
     inkscape:cy="129.41434"
     inkscape:window-width="1920"
     inkscape:window-height="986"
     inkscape:window-x="-11"
     inkscape:window-y="-11"
     inkscape:window-maximized="1"
     inkscape:current-layer="layer1" />
  <defs
     id="defs1785">
    <linearGradient
       id="linearGradient2795">
      <stop
         style="stop-color:#b8b8b8;stop-opacity:0.49803922;"
         offset="0"
         id="stop2797" />
      <stop
         style="stop-color:#7f7f7f;stop-opacity:0;"
         offset="1"
         id="stop2799" />
    </linearGradient>
    <linearGradient
       id="linearGradient2787">
      <stop
         style="stop-color:#7f7f7f;stop-opacity:0.5;"
         offset="0"
         id="stop2789" />
      <stop
         style="stop-color:#7f7f7f;stop-opacity:0;"
         offset="1"
         id="stop2791" />
    </linearGradient>
    <linearGradient
       id="linearGradient3676">
      <stop
         style="stop-color:#b2b2b2;stop-opacity:0.5;"
         offset="0"
         id="stop3678" />
      <stop
         style="stop-color:#b3b3b3;stop-opacity:0;"
         offset="1"
         id="stop3680" />
    </linearGradient>
    <linearGradient
       id="linearGradient3236">
      <stop
         style="stop-color:#f4f4f4;stop-opacity:1"
         offset="0"
         id="stop3244" />
      <stop
         style="stop-color:white;stop-opacity:1"
         offset="1"
         id="stop3240" />
    </linearGradient>
    <linearGradient
       id="linearGradient4671">
      <stop
         style="stop-color:#ffd43b;stop-opacity:1;"
         offset="0"
         id="stop4673" />
      <stop
         style="stop-color:#ffe873;stop-opacity:1"
         offset="1"
         id="stop4675" />
    </linearGradient>
    <linearGradient
       id="linearGradient4689">
      <stop
         style="stop-color:#5a9fd4;stop-opacity:1;"
         offset="0"
         id="stop4691" />
      <stop
         style="stop-color:#306998;stop-opacity:1;"
         offset="1"
         id="stop4693" />
    </linearGradient>
    <linearGradient
       x1="224.23996"
       y1="144.75717"
       x2="-65.308502"
       y2="144.75717"
       id="linearGradient2987"
       xlink:href="#linearGradient4671"
       gradientUnits="userSpaceOnUse"
       gradientTransform="translate(100.2702,99.61116)" />
    <linearGradient
       x1="172.94208"
       y1="77.475983"
       x2="26.670298"
       y2="76.313133"
       id="linearGradient2990"
       xlink:href="#linearGradient4689"
       gradientUnits="userSpaceOnUse"
       gradientTransform="translate(100.2702,99.61116)" />
    <linearGradient
       inkscape:collect="always"
       xlink:href="#linearGradient4671"
       id="linearGradient2255"
       gradientUnits="userSpaceOnUse"
       gradientTransform="matrix(0.562541,0,0,0.567972,-11.5974,-7.60954)"
       x1="224.23996"
       y1="144.75717"
       x2="-65.308502"
       y2="144.75717" />
    <linearGradient
       inkscape:collect="always"
       xlink:href="#linearGradient4689"
       id="linearGradient2258"
       gradientUnits="userSpaceOnUse"
       gradientTransform="matrix(0.562541,0,0,0.567972,-11.5974,-7.60954)"
       x1="172.94208"
       y1="76.176224"
       x2="26.670298"
       y2="76.313133" />
    <radialGradient
       inkscape:collect="always"
       xlink:href="#linearGradient2795"
       id="radialGradient2801"
       cx="61.518883"
       cy="132.28575"
       fx="61.518883"
       fy="132.28575"
       r="29.036913"
       gradientTransform="matrix(1,0,0,0.177966,0,108.7434)"
       gradientUnits="userSpaceOnUse" />
    <linearGradient
       x1="0"
       y1="0"
       x2="1"
       y2="0"
       id="linearGradient3027"
       gradientUnits="userSpaceOnUse"
       gradientTransform="matrix(-4.02e-6,-91.8907,-91.8907,4.02e-6,85.8809,161.434)"
       spreadMethod="pad">
      <stop
         id="stop3029"
         style="stop-color:#97d9f6;stop-opacity:1"
         offset="0" />
      <stop
         id="stop3031"
         style="stop-color:#0f80cc;stop-opacity:1"
         offset="0.92024499" />
      <stop
         id="stop3033"
         style="stop-color:#0f80cc;stop-opacity:1"
         offset="1" />
    </linearGradient>
    <linearGradient
       x1="-15.614694"
       y1="-9.1082983"
       x2="-6.7410073"
       y2="-9.1082983"
       id="linearGradient5421"
       xlink:href="#linearGradient3027"
       gradientUnits="userSpaceOnUse"
       gradientTransform="matrix(-4.02e-7,-9.18907,-9.18907,4.02e-7,8.58809,16.1434)"
       spreadMethod="pad" />
    <linearGradient
       x1="-15.614694"
       y1="-9.1082983"
       x2="-6.7410073"
       y2="-9.1082983"
       id="linearGradient2995"
       xlink:href="#linearGradient3027"
       gradientUnits="userSpaceOnUse"
       gradientTransform="matrix(-5.025e-7,11.486337,-11.486337,-5.025e-7,-30.839638,202.18698)"
       spreadMethod="pad" />
  </defs>
  <g
     inkscape:label="Layer 1"
     inkscape:groupmode="layer"
     id="layer1"
     transform="translate(-20.85592,-41.445893)">
    <circle
       style="opacity:1;fill:#ffffff;stroke:#1a1d27;stroke-width:1.5875;stroke-miterlimit:4;stroke-dasharray:none;stroke-opacity:1"
       id="path1906"
       cx="40.422447"
       cy="61.012421"
       r="18.772778" />
    <g
       id="g2293"
       transform="matrix(0.04939776,0,0,0.04939776,28.12271,50.007733)">
      <path
         fill="#cd6799"
         d="m 471.4,236 c -19.1,0.1 -35.7,4.7 -49.6,11.5 -5.1,-10.1 -10.2,-19.1 -11.1,-25.7 -1,-7.7 -2.2,-12.4 -1,-21.6 1.2,-9.2 6.6,-22.3 6.5,-23.3 -0.1,-1 -1.2,-5.7 -12.2,-5.8 -11,-0.1 -20.5,2.1 -21.6,5 -1.1,2.9 -3.2,9.5 -4.6,16.3 -1.9,10 -22,45.7 -33.5,64.4 -3.7,-7.3 -6.9,-13.7 -7.6,-18.8 -1,-7.7 -2.2,-12.4 -1,-21.6 1.2,-9.2 6.6,-22.3 6.5,-23.3 -0.1,-1 -1.2,-5.7 -12.2,-5.8 -11,-0.1 -20.5,2.1 -21.6,5 -1.1,2.9 -2.3,9.7 -4.6,16.3 -2.3,6.6 -29,66.2 -36,81.6 -3.6,7.9 -6.7,14.2 -8.9,18.5 0,0 0,0 0,0 0,0 -0.1,0.3 -0.4,0.8 -1.9,3.7 -3,5.7 -3,5.7 0,0 0,0 0,0.1 -1.5,2.7 -3.1,5.2 -3.9,5.2 -0.6,0 -1.7,-7.2 0.2,-17 4,-20.7 13.5,-52.9 13.4,-54 0,-0.6 1.8,-6.2 -6.2,-9.1 -7.8,-2.9 -10.6,1.9 -11.3,1.9 -0.7,0 -1.2,1.7 -1.2,1.7 0,0 8.7,-36.2 -16.6,-36.2 -15.8,0 -37.6,17.3 -48.4,32.9 -6.8,3.7 -21.3,11.6 -36.8,20.1 -5.9,3.3 -12,6.6 -17.7,9.7 -0.4,-0.4 -0.8,-0.9 -1.2,-1.3 C 95.2,236.5 38.6,213.4 41,169.5 c 0.9,-16 6.4,-58 108.7,-109 84.2,-41.5 151.2,-30 162.8,-4.5 16.6,36.4 -35.9,104 -122.9,113.8 -33.2,3.7 -50.6,-9.1 -55,-13.9 -4.6,-5 -5.3,-5.3 -7,-4.3 -2.8,1.5 -1,6 0,8.6 2.6,6.8 13.3,18.8 31.4,24.7 16,5.2 54.9,8.1 102,-10.1 C 313.7,154.4 354.9,97.7 342.8,50.2 330.7,2 250.7,-13.9 175,13 130,29 81.2,54.2 46.1,87 4.4,126 -2.2,159.9 0.5,174.1 c 9.7,50.4 79.2,83.2 107,107.5 -1.4,0.8 -2.7,1.5 -3.8,2.1 -13.9,6.9 -66.9,34.6 -80.1,63.9 -15,33.2 2.4,57 13.9,60.2 35.7,9.9 72.4,-7.9 92.1,-37.3 19.7,-29.4 17.3,-67.6 8.2,-85.1 -0.1,-0.2 -0.2,-0.4 -0.4,-0.6 3.6,-2.1 7.3,-4.3 10.9,-6.4 7.1,-4.2 14.1,-8.1 20.1,-11.3 -3.4,9.3 -5.9,20.4 -7.1,36.4 -1.5,18.8 6.2,43.2 16.3,52.8 4.5,4.2 9.8,4.3 13.2,4.3 11.8,0 17.1,-9.8 23,-21.4 7.2,-14.2 13.7,-30.7 13.7,-30.7 0,0 -8.1,44.6 13.9,44.6 8,0 16.1,-10.4 19.7,-15.7 0,0.1 0,0.1 0,0.1 0,0 0.2,-0.3 0.6,-1 0.8,-1.3 1.3,-2.1 1.3,-2.1 0,0 0,-0.1 0,-0.2 3.2,-5.6 10.4,-18.3 21.1,-39.4 13.8,-27.2 27.1,-61.2 27.1,-61.2 0,0 1.2,8.3 5.3,22.1 2.4,8.1 7.4,17 11.4,25.6 -3.2,4.5 -5.2,7 -5.2,7 0,0 0,0 0.1,0.1 -2.6,3.4 -5.4,7.1 -8.5,10.7 -10.9,13 -23.9,27.9 -25.7,32.2 -2.1,5.1 -1.6,8.8 2.4,11.8 2.9,2.2 8.1,2.5 13.4,2.2 9.8,-0.7 16.7,-3.1 20.1,-4.6 5.3,-1.9 11.5,-4.8 17.3,-9.1 10.7,-7.9 17.2,-19.2 16.6,-34.1 -0.3,-8.2 -3,-16.4 -6.3,-24.1 1,-1.4 1.9,-2.8 2.9,-4.2 16.9,-24.7 30,-51.8 30,-51.8 0,0 1.2,8.3 5.3,22.1 2,7 6.1,14.6 9.7,22 -15.9,12.9 -25.7,27.9 -29.2,37.7 -6.3,18.2 -1.4,26.4 7.9,28.3 4.2,0.9 10.2,-1.1 14.6,-3 5.6,-1.8 12.2,-4.9 18.5,-9.5 10.7,-7.9 21,-18.9 20.4,-33.8 -0.3,-6.8 -2.1,-13.5 -4.6,-20 13.5,-5.6 30.9,-8.7 53.1,-6.1 47.6,5.6 57,35.3 55.2,47.8 -1.8,12.5 -11.8,19.3 -15.1,21.4 -3.3,2.1 -4.4,2.8 -4.1,4.3 0.4,2.2 2,2.1 4.8,1.7 3.9,-0.7 25,-10.1 25.9,-33.1 1.5,-29.4 -26.5,-61.5 -76,-61.2 z M 104.2,359.8 C 88.4,377 66.4,383.5 56.9,378 c -10.2,-5.9 -6.2,-31.3 13.2,-49.5 11.8,-11.1 27,-21.4 37.1,-27.7 2.3,-1.4 5.7,-3.4 9.8,-5.9 0.7,-0.4 1.1,-0.6 1.1,-0.6 v 0 c 0.8,-0.5 1.6,-1 2.4,-1.5 7.1,26 0.3,48.9 -16.3,67 z m 115,-78.2 c -5.5,13.4 -17,47.7 -24,45.8 -6,-1.6 -9.7,-27.6 -1.2,-53.3 4.3,-12.9 13.4,-28.3 18.7,-34.3 8.6,-9.6 18.1,-12.8 20.4,-8.9 2.9,5.1 -10.5,42.3 -13.9,50.7 z m 94.9,45.4 c -2.3,1.2 -4.5,2 -5.5,1.4 -0.7,-0.4 1,-2 1,-2 0,0 11.9,-12.8 16.6,-18.6 2.7,-3.4 5.9,-7.4 9.3,-11.9 0,0.4 0,0.9 0,1.3 0,15.3 -14.8,25.6 -21.4,29.8 z m 73.2,-16.7 c -1.7,-1.2 -1.4,-5.2 4.3,-17.7 2.2,-4.9 7.4,-13.1 16.3,-21 1,3.2 1.7,6.3 1.6,9.2 -0.1,19.3 -13.9,26.5 -22.2,29.5 z"
         id="path2267" />
      <g
         id="g2269">
</g>
      <g
         id="g2271">
</g>
      <g
         id="g2273">
</g>
      <g
         id="g2275">
</g>
      <g
         id="g2277">
</g>
      <g
         id="g2279">
</g>
    </g>
  </g>
</svg>
