<?xml version="1.0" encoding="UTF-8" standalone="no"?>
<!-- Created with Inkscape (http://www.inkscape.org/) -->

<svg
   width="11.608335mm"
   height="11.748016mm"
   viewBox="0 0 11.608335 11.748016"
   version="1.1"
   id="svg5"
   sodipodi:docname="stamps-live-2.svg"
   inkscape:version="1.1.1 (3bf5ae0d25, 2021-09-20)"
   xmlns:inkscape="http://www.inkscape.org/namespaces/inkscape"
   xmlns:sodipodi="http://sodipodi.sourceforge.net/DTD/sodipodi-0.dtd"
   xmlns:xlink="http://www.w3.org/1999/xlink"
   xmlns="http://www.w3.org/2000/svg"
   xmlns:svg="http://www.w3.org/2000/svg">
  <sodipodi:namedview
     id="namedview7"
     pagecolor="#00afb5"
     bordercolor="#666666"
     borderopacity="1.0"
     inkscape:pageshadow="2"
     inkscape:pageopacity="0"
     inkscape:pagecheckerboard="0"
     inkscape:document-units="mm"
     showgrid="false"
     inkscape:zoom="5.6568542"
     inkscape:cx="-2.1213204"
     inkscape:cy="47.552931"
     inkscape:window-width="1920"
     inkscape:window-height="986"
     inkscape:window-x="-11"
     inkscape:window-y="-11"
     inkscape:window-maximized="1"
     inkscape:current-layer="layer1" />
  <defs
     id="defs2">
    <linearGradient
       inkscape:collect="always"
       id="linearGradient3384">
      <stop
         style="stop-color:#ff9f1c;stop-opacity:1;"
         offset="0"
         id="stop3380" />
      <stop
         style="stop-color:#ff9f1c;stop-opacity:0;"
         offset="1"
         id="stop3382" />
    </linearGradient>
    <linearGradient
       inkscape:collect="always"
       xlink:href="#linearGradient3384"
       id="linearGradient3386"
       x1="360.43845"
       y1="-23.580084"
       x2="360.43845"
       y2="1247.61"
       gradientUnits="userSpaceOnUse"
       gradientTransform="matrix(0.01476057,-0.00736413,0.00736413,0.01476057,93.625605,44.960868)" />
  </defs>
  <g
     inkscape:label="Layer 1"
     inkscape:groupmode="layer"
     id="layer1"
     transform="translate(-96.570841,-41.665905)">
    <ellipse
       style="opacity:1;fill:#1a1d27;fill-opacity:1;stroke:#f4fffd;stroke-width:0.166945;stroke-miterlimit:4;stroke-dasharray:none;stroke-opacity:1"
       id="path3244"
       cx="102.37501"
       cy="47.539913"
       rx="5.7206945"
       ry="5.7905354" />
    <path
       id="path846"
       style="color:#000000;fill:url(#linearGradient3386);fill-opacity:1;stroke-width:0.0623456;-inkscape-stroke:none"
       d="m 100.30955,43.364462 c -0.0339,0.01693 -0.0675,0.03426 -0.10084,0.0519 -10e-4,0.0016 -0.002,0.0033 -0.003,0.0049 -1.9e-4,-9.16e-4 -4.9e-4,-0.0018 -6.7e-4,-0.0027 -0.682352,0.36189 -1.239069,0.871221 -1.650879,1.468734 0.0071,-0.0036 0.01419,-0.0074 0.02125,-0.01096 l 2.9e-5,-1.4e-5 c 3.6e-5,2.3e-5 8.1e-5,2.5e-5 9.9e-5,6.1e-5 -0.03599,0.06184 -0.07224,0.123552 -0.10844,0.185268 -0.0082,-0.0015 -0.01649,-0.0031 -0.02473,-0.0046 -0.06385,0.101881 -0.123498,0.20611 -0.179153,0.312288 0.0046,0.0055 0.0092,0.01108 0.01373,0.01662 -0.02861,0.04866 -0.05723,0.09734 -0.08583,0.14601 -0.0024,-0.0015 -0.0049,-0.0028 -0.0073,-0.0042 -0.05993,0.125676 -0.114036,0.253937 -0.162502,0.384272 -0.0041,0.0368 -0.0082,0.07358 -0.01237,0.110371 -0.01006,0.0029 -0.0201,0.0058 -0.03015,0.0087 -0.02413,0.07066 -0.04656,0.141865 -0.0673,0.213602 0.0185,0.0067 0.03865,0.01355 0.05256,0.0199 0.0028,0.002 0.0055,0.0039 0.0084,0.006 -0.02452,0.01296 -0.05357,0.02799 -0.0799,0.04177 -0.01274,0.04668 -0.02476,0.09355 -0.03606,0.140622 0.03893,-0.03825 0.07786,-0.0765 0.116736,-0.114804 -0.0071,0.06091 -0.01413,0.121837 -0.02124,0.182736 -0.04082,0.01698 -0.08161,0.03401 -0.122429,0.051 -0.01008,0.04739 -0.01963,0.09488 -0.02824,0.142589 0.01368,-0.0056 0.02732,-0.01126 0.04101,-0.01682 0.01327,-0.0054 0.0266,-0.01066 0.03988,-0.01605 -0.0328,0.04579 -0.06568,0.09153 -0.09854,0.137268 -0.0046,0.02901 -0.0086,0.05813 -0.01264,0.08725 0.01243,-0.0053 0.02486,-0.0106 0.0373,-0.01587 -0.01479,0.02008 -0.02944,0.04249 -0.04392,0.06584 -0.01727,0.136094 -0.02869,0.273143 -0.0339,0.410809 0.01697,-0.01216 0.03388,-0.02439 0.05088,-0.03651 0.02597,-0.0059 0.05191,-0.01197 0.07781,-0.01848 -0.0014,0.01177 -0.0029,0.02353 -0.0043,0.0353 -0.04173,0.01411 -0.08349,0.02813 -0.125245,0.04218 -0.0065,0.196542 -3.18e-4,0.394206 0.01844,0.591866 3.99e-4,-1.24e-4 8.05e-4,-1.87e-4 0.0012,-3.11e-4 -4.49e-4,4.36e-4 -7.19e-4,7.48e-4 -0.0011,0.0012 0.0015,0.01533 0.003,0.03066 0.0046,0.04599 0.0074,-0.0077 0.01471,-0.01536 0.02206,-0.02303 -0.0043,0.03417 -0.0086,0.06835 -0.01294,0.102518 0.06296,0.513163 0.212624,1.024456 0.456541,1.51336 0.255723,0.512568 0.593341,0.957284 0.988891,1.326621 -0.0016,-0.02918 0.04173,-0.0866 0.05255,-0.131459 -0.09157,-0.08755 -0.1798,-0.179365 -0.264439,-0.275286 -0.0052,0.0073 -0.01066,0.01472 -0.01578,0.02206 -0.02982,0.01289 -0.05916,0.02673 -0.08879,0.03998 -0.0027,-0.0032 -0.0063,-0.0074 -0.0091,-0.01076 0.02081,-0.03552 0.04439,-0.06931 0.06936,-0.102225 -0.0057,-0.0066 -0.01124,-0.0133 -0.01687,-0.01996 -0.02422,0.03235 -0.0493,0.06423 -0.07473,0.09594 -0.02388,-0.02817 -0.04837,-0.05708 -0.0711,-0.08392 0.0093,-0.0042 0.01872,-0.0083 0.02802,-0.01254 0.0281,-0.01293 0.05599,-0.0263 0.08394,-0.03953 -0.02353,-0.02848 -0.04674,-0.05733 -0.06965,-0.08648 -0.03886,0.01699 -0.0777,0.03404 -0.116738,0.05064 -0.01014,-0.01199 -0.0193,-0.02277 -0.02972,-0.03511 7.8e-4,-0.0086 0.0016,-0.01713 0.0023,-0.02569 0.0044,-0.0015 0.0089,-0.0029 0.0133,-0.0043 0.02238,-0.0023 0.04518,-0.008 0.06827,-0.01624 0.01671,0.0049 0.0334,0.0097 0.0501,0.01461 -0.182218,-0.234116 -0.344161,-0.489567 -0.48172,-0.765289 -0.09497,-0.190359 -0.174958,-0.384221 -0.241091,-0.580232 -0.0072,0.0013 -0.01441,0.0028 -0.02164,0.0042 0.0031,-0.0095 0.0087,-0.01917 0.01338,-0.02875 -0.08036,-0.242766 -0.138982,-0.488789 -0.176708,-0.735671 -0.02294,-0.0075 -0.04589,-0.01499 -0.06881,-0.02245 0.01979,-0.01481 0.03904,-0.03031 0.05862,-0.04538 -0.0041,-0.03008 -0.0077,-0.06017 -0.01126,-0.09026 -0.0041,0.0036 -0.0084,0.0071 -0.01254,0.01079 0.0035,-0.0093 0.0069,-0.01866 0.01041,-0.02799 -0.03547,-0.3145 -0.03709,-0.629411 -0.0071,-0.939818 -0.0071,0.0026 -0.01575,0.0058 -0.02174,0.008 -0.0013,-0.0011 -0.0026,-0.0023 -0.0039,-0.0034 0.0017,-0.0013 0.0034,-0.0027 0.0052,-0.004 0.0073,-0.0051 0.01461,-0.01022 0.02191,-0.01532 0.03459,-0.346323 0.10884,-0.686835 0.220515,-1.014715 -0.0041,-0.0033 -0.008,-0.0061 -0.01238,-0.01 0.0059,-0.0018 0.0118,-0.0036 0.01771,-0.0054 0.0086,-0.02507 0.01736,-0.05012 0.02643,-0.07504 -0.02112,0.0061 -0.04223,0.01222 -0.06336,0.01829 0.01014,-0.08227 0.02096,-0.164471 0.03122,-0.246729 0.0092,-0.01574 0.01832,-0.03155 0.02753,-0.04729 0.02234,0.01167 0.04468,0.02334 0.06701,0.03501 0.0085,0.0063 0.01695,0.01212 0.02541,0.01832 0.02315,-0.05449 0.04716,-0.108648 0.07244,-0.162232 -0.01421,-0.0099 -0.02843,-0.0199 -0.04264,-0.02975 0.0224,-0.007 0.04481,-0.01396 0.06722,-0.02093 0.0065,-0.01326 0.01283,-0.02655 0.01941,-0.03975 -0.03768,0.01154 -0.07534,0.02305 -0.11302,0.03457 0.02543,-0.04371 0.05098,-0.08736 0.07629,-0.131135 0.01256,0.01511 0.02512,0.03021 0.03767,0.04533 0.0012,0.01403 0.0024,0.02807 0.0035,0.0421 0.266735,-0.531495 0.63933,-1.013334 1.105764,-1.411012 -0.0075,-0.0023 -0.01505,-0.0046 -0.02257,-0.0069 0.0032,-0.02298 0.0067,-0.04692 0.01,-0.07016 0.0029,-0.0078 0.0059,-0.01555 0.0088,-0.02332 0.0057,-0.0074 0.01159,-0.01506 0.01698,-0.02219 0.04252,-0.01858 0.08504,-0.03715 0.127591,-0.05566 -0.0088,0.02798 -0.01773,0.05593 -0.02654,0.08392 0.02914,-0.02324 0.05863,-0.04613 0.08845,-0.06872 -1.31e-4,-8.1e-5 -2.68e-4,-1.49e-4 -3.99e-4,-2.3e-4 0.0051,-0.01608 0.0103,-0.03214 0.01549,-0.0482 5.86e-4,-2.56e-4 0.0011,-5.12e-4 0.0018,-7.6e-4 -10e-7,0.0121 3.3e-5,0.0242 6.8e-5,0.03629 0.216497,-0.162393 0.450519,-0.307759 0.701359,-0.432902 0.30907,-0.154199 0.62728,-0.26962 0.94916,-0.348498 0.003,-0.0038 0.007,-0.0076 0.01,-0.01138 0.004,-0.0023 0.007,-0.0046 0.0112,-0.0069 0.016,-0.0021 0.032,-0.0041 0.0479,-0.0062 -7.3e-4,0.0029 -10e-4,0.0058 -0.002,0.0087 0.36899,-0.0845 0.74224,-0.121017 1.11165,-0.11229 0.0168,-0.0016 0.0337,-0.0029 0.0506,-0.0047 -0.005,0.0018 -0.0104,0.0037 -0.0156,0.0055 0.20276,0.0064 0.40422,0.02644 0.60311,0.05959 0,-2.9e-5 -1e-5,-6.9e-5 -1e-5,-1.06e-4 0.0194,-0.0066 0.0389,-0.01317 0.0584,-0.01973 -0.003,0.0094 -0.006,0.01879 -0.009,0.02819 0.11182,0.0199 0.22281,0.0438 0.33266,0.07196 -0.013,-0.0175 -0.026,-0.03498 -0.0389,-0.05251 0.004,-0.0083 0.008,-0.01634 0.0109,-0.02477 0.0239,-0.01552 0.0477,-0.03118 0.0716,-0.04675 -0.0154,-0.004 -0.0308,-0.0077 -0.0462,-0.01152 -0.004,0.0024 -0.007,0.0048 -0.0108,0.0071 7.5e-4,-0.0031 0.002,-0.0061 0.003,-0.0091 -0.0153,-0.0038 -0.0306,-0.0076 -0.0459,-0.01119 -0.0124,0.006 -0.0251,0.01251 -0.0382,0.02125 -0.009,-0.01205 -0.018,-0.02399 -0.027,-0.03599 -0.14086,-0.03108 -0.28325,-0.05574 -0.42676,-0.07373 -0.007,0.01721 -0.0148,0.03439 -0.0222,0.05161 -0.002,-0.0012 -0.003,-0.0025 -0.005,-0.0038 0.002,-0.0099 0.006,-0.0334 0.007,-0.04309 l 3e-5,-1.5e-5 c 0.005,-0.0017 0.0104,-0.0035 0.0156,-0.0052 -0.27212,-0.03386 -0.5481,-0.0439 -0.8248,-0.02902 -4.4e-4,0.0012 -6.8e-4,0.0019 -0.001,0.0031 -0.0355,0.0071 -0.0713,0.0142 -0.10196,0.02001 -2.7e-4,-0.0023 -5.2e-4,-0.0046 -8.2e-4,-0.0068 10e-4,-0.0019 0.003,-0.0043 0.004,-0.0061 0.004,-0.0015 0.007,-0.003 0.0111,-0.0045 -0.4707,0.03442 -0.94235,0.141012 -1.39915,0.325425 0.0296,-0.0044 0.0591,-0.0087 0.0887,-0.01302 -0.0259,0.01302 -0.0518,0.02607 -0.0777,0.03911 -0.009,-0.0041 -0.0213,-0.01071 -0.0324,-0.0165 4e-5,-3.36e-4 9e-5,-6.63e-4 1.3e-4,-10e-4 -0.10731,0.04394 -0.21379,0.09208 -0.31922,0.144683 z m -0.0465,0.02457 c 0.0161,0.008 0.0322,0.01602 0.0484,0.02405 -0.0331,0.01662 -0.0662,0.03332 -0.0993,0.04994 -1.1e-4,-9.17e-4 -2.7e-4,-0.0018 -3.6e-4,-0.0027 0.0171,-0.02375 0.0342,-0.04751 0.0513,-0.07125 z m 0.53477,-0.170918 c 0.001,0.009 0.003,0.01784 0.004,0.02695 -0.0209,0.0084 -0.042,0.01677 -0.0631,0.02519 -0.008,-0.0033 -0.0157,-0.0066 -0.0235,-0.0099 0.0276,-0.01407 0.0553,-0.02813 0.0829,-0.0422 z m 0.14764,-0.04939 c 0.0263,-0.0037 0.0525,-0.0073 0.0788,-0.01093 -0.0257,0.0099 -0.0512,0.01981 -0.0765,0.02969 -7.4e-4,-0.0062 -0.001,-0.01248 -0.002,-0.01873 z m -1.424542,0.717049 c 0.0048,-0.0022 0.0096,-0.0044 0.01433,-0.0066 0.01361,0.008 0.02721,0.01596 0.04081,0.02393 -0.03285,0.0143 -0.06569,0.02864 -0.09853,0.04296 0.0159,-0.0214 0.0304,-0.04153 0.04339,-0.06032 z m 0.03369,-0.0154 c 0.01858,-0.0085 0.03716,-0.01703 0.05578,-0.02545 -0.0052,0.01659 -0.01051,0.03314 -0.01573,0.04972 -0.01335,-0.0081 -0.0267,-0.01618 -0.04005,-0.02427 z m -0.292395,0.287161 c 0.01803,0.0051 0.03608,0.01013 0.0541,0.01521 -0.0026,9.88e-4 -0.0053,0.0019 -0.0079,0.0029 -0.01497,-0.0059 -0.0305,-0.01199 -0.04621,-0.01814 z m -0.551543,0.55039 c 3.12e-4,2.06e-4 6.41e-4,3.61e-4 9.64e-4,5.61e-4 -3.37e-4,1.62e-4 -6.95e-4,3.8e-4 -0.0011,5.61e-4 3.7e-5,-3.43e-4 5e-5,-7.8e-4 8.8e-5,-0.0011 z m -0.110817,0.183969 c 0.005,0.003 0.01002,0.0061 0.01472,0.0089 -0.0021,0.0384 -0.0043,0.07643 -0.0065,0.114512 -0.03349,0.0129 -0.06704,0.02566 -0.100849,0.0389 0.03092,-0.05406 0.0618,-0.108134 0.09259,-0.162272 z m 4.223387,-1.922835 c 0.0112,0.0085 0.0223,0.01711 0.0335,0.02565 -0.0159,0.0059 -0.0318,0.01204 -0.0477,0.01807 0.002,-0.01217 0.008,-0.02751 0.0142,-0.04372 z m 0.0812,-0.04022 3e-5,-1.4e-5 c 0.007,-0.0022 0.0133,-0.0045 0.02,-0.0067 -9.7e-4,0.0067 -0.002,0.01345 -0.003,0.02018 -0.006,-0.0045 -0.0113,-0.009 -0.017,-0.01346 z m -2.12526,1.230395 c -0.0104,0.02824 -0.0219,0.05706 -0.035,0.08689 -0.003,0.0026 -0.005,0.005 -0.008,0.0075 0.005,-0.0023 0.009,-0.0047 0.0135,-0.007 0.041,-0.02048 0.0824,-0.03981 0.12377,-0.05862 0.004,-0.01106 0.007,-0.02227 0.0108,-0.03359 0.0101,-0.01137 0.0205,-0.02248 0.0307,-0.03379 0.0173,0.0088 0.0347,0.01764 0.052,0.02647 0.0237,-0.01 0.0474,-0.01973 0.0712,-0.02917 -0.0257,-0.01332 -0.0514,-0.02663 -0.077,-0.03998 -0.061,0.0253 -0.12166,0.0524 -0.18193,0.08119 z m -0.13925,0.06983 c -0.29559,0.156325 -0.56178,0.347126 -0.796375,0.564814 -7.84e-4,0.004 -0.0016,0.0081 -0.0024,0.01213 -0.0048,0.0012 -0.0096,0.0024 -0.01447,0.0036 -0.06442,0.06052 -0.126393,0.123087 -0.185901,0.187548 7.4e-5,-1.6e-5 1.55e-4,-2.6e-5 2.3e-4,-4.4e-5 -1.12e-4,0.0033 -2.3e-4,0.0067 -3.24e-4,0.0099 -0.004,5.67e-4 -0.0067,9.39e-4 -0.01026,0.0014 -0.0213,0.02326 -0.0423,0.04673 -0.06295,0.07047 0.02375,-0.0036 0.0475,-0.0072 0.07124,-0.01084 -3.12e-4,0.0098 -6.3e-4,0.0202 -9.63e-4,0.03047 0.03141,-0.03548 0.06355,-0.0704 0.09644,-0.10475 -0.01225,0.0017 -0.02634,0.0037 -0.03617,0.0051 2.93e-4,-0.0055 5.17e-4,-0.01016 7.62e-4,-0.01493 0.01065,-0.0025 0.02129,-0.0051 0.03194,-0.0077 0.0045,0.0024 0.0091,0.0047 0.01367,0.007 0.243574,-0.252335 0.526971,-0.473354 0.847001,-0.652647 0.0168,-0.03525 0.033,-0.06933 0.0485,-0.101579 z m 0.54264,-0.234755 c -0.005,0.02495 -0.01,0.05002 -0.0151,0.07504 0.0301,-0.01067 0.0602,-0.02096 0.0905,-0.0308 0.002,-0.01116 0.005,-0.02231 0.007,-0.03346 0.0162,0.0032 0.0325,0.0061 0.0487,0.0093 -0.001,0.0025 -0.002,0.0051 -0.004,0.0076 0.004,-0.0012 0.008,-0.0025 0.0119,-0.0037 3.5e-4,-7.02e-4 7e-4,-0.0014 0.001,-0.0021 0.001,2.43e-4 0.002,4.62e-4 0.004,6.95e-4 0.30703,-0.09328 0.61973,-0.144463 0.93084,-0.155658 0.002,-0.0025 0.004,-0.005 0.007,-0.0075 0.04,-5.37e-4 0.08,-0.0011 0.11997,-0.0016 -0.005,0.0033 -0.005,0.0038 -0.01,0.0069 0.002,-6e-6 0.003,2.3e-5 0.005,1.9e-5 0.003,-0.0022 0.007,-0.0047 0.0104,-0.007 0.0104,-1.31e-4 0.0207,-2.68e-4 0.0311,-4.05e-4 -0.002,0.0022 -0.005,0.0051 -0.008,0.0074 0.42427,0.0028 0.84315,0.07919 1.23791,0.222972 0.008,-0.0019 0.0153,-0.0038 0.0229,-0.0057 -5e-4,0.0025 -10e-4,0.0063 -0.002,0.0087 -0.001,3.62e-4 -0.005,0.0019 -0.007,0.0023 0.15915,0.05872 0.31435,0.128239 0.46431,0.208478 0.0104,-0.01925 0.0208,-0.0385 0.0315,-0.05758 -0.22244,-0.119022 -0.45619,-0.215063 -0.69726,-0.287192 -0.0305,0.0028 -0.061,0.0056 -0.0915,0.0085 0.005,-0.0102 0.01,-0.02039 0.0149,-0.03059 -0.55114,-0.152288 -1.13811,-0.179398 -1.71528,-0.06618 -8.1e-4,0.01783 -0.002,0.03536 -0.002,0.05347 -0.0247,-0.01255 -0.0494,-0.02516 -0.0741,-0.03774 -0.13884,0.03028 -0.27695,0.06883 -0.41377,0.115696 z m -0.94023,0.489606 c 0.004,0.0014 0.009,0.002 0.0131,0.0022 -0.006,0.0016 -0.011,0.0031 -0.0166,0.0047 0.001,-0.0022 0.002,-0.0046 0.003,-0.0069 z m 0.0668,-0.01748 c -7.8e-4,0.0017 -0.002,0.0035 -0.002,0.0052 -0.004,0.0011 -0.007,0.0021 -0.0112,0.0032 0.005,-0.0026 0.009,-0.0051 0.0135,-0.0083 z m -0.748768,0.620631 c -0.0315,0.03643 -0.06219,0.07343 -0.09217,0.110935 0.01496,-0.0045 0.02993,-0.0089 0.04488,-0.01339 0.01133,0.0067 0.02268,0.01345 0.03401,0.02019 0.02316,-0.02826 0.04689,-0.05613 0.07095,-0.08375 -9.72e-4,2.87e-4 -0.0019,5.86e-4 -0.0029,8.74e-4 -0.01825,-0.01162 -0.03652,-0.02324 -0.05476,-0.03486 z m 4.162308,-2.018704 c -0.009,0.01882 -0.0217,0.04441 -0.0314,0.06387 -0.0293,0.01271 -0.0587,0.02537 -0.088,0.03803 0.0494,0.0137 0.0985,0.0283 0.14733,0.04366 0.0127,-0.02359 0.0252,-0.04734 0.0379,-0.07097 0.0246,-0.01028 0.0493,-0.02049 0.074,-0.03078 -0.0463,-0.01539 -0.093,-0.02986 -0.13981,-0.04381 z m -1.55457,0.78696 c 0.005,-2.5e-5 0.0109,-2.25e-4 0.0164,-2.62e-4 -0.003,0.0021 -0.007,0.0041 -0.01,0.0062 -0.002,-9.49e-4 -0.005,-0.0019 -0.007,-0.0028 3.1e-4,-0.001 5.6e-4,-0.0021 8.7e-4,-0.0031 z m -2.735302,1.387271 c -0.02392,0.03088 -0.04711,0.06224 -0.07001,0.09379 0.0023,3.93e-4 0.0049,8.56e-4 0.0073,0.0013 -0.02433,0.07019 -0.04872,0.140363 -0.07308,0.210543 -0.0085,0.0047 -0.01692,0.0094 -0.02539,0.01414 -8.28e-4,-0.02955 -0.0016,-0.06044 -0.0025,-0.09093 -0.06131,0.09284 -0.118281,0.188237 -0.170916,0.285783 0.02549,-0.0081 0.05098,-0.01609 0.0765,-0.02405 -0.0011,0.009 -0.0022,0.01804 -0.0033,0.02708 0.05765,-0.104609 0.120455,-0.206585 0.188324,-0.305521 0.01287,-0.0374 0.02575,-0.07481 0.0386,-0.112222 0.01074,0.0018 0.02608,0.0045 0.03666,0.0063 0.02307,-0.0312 0.04681,-0.06196 0.07091,-0.09248 -0.02436,-0.0046 -0.04872,-0.0091 -0.07308,-0.01369 z m 4.429812,-2.130379 c -0.008,0.04349 -0.0156,0.08693 -0.0235,0.130374 0.13195,0.04444 0.26187,0.0949 0.3893,0.151283 0.0253,-0.03591 0.0473,-0.06648 0.0768,-0.10922 -0.1446,-0.06492 -0.29231,-0.122508 -0.44259,-0.172437 z m -5.904587,3.048769 c 0.0043,0.0014 0.0085,0.0028 0.01278,0.0042 -0.0014,5.8e-4 -0.0031,0.0015 -0.0045,0.0021 -0.0028,-0.0021 -0.0055,-0.0042 -0.0083,-0.0062 z m 4.971537,-2.294288 c -0.005,0.0089 -0.0101,0.01776 -0.0151,0.02664 -7.8e-4,-5.68e-4 -0.002,-7.83e-4 -0.003,-0.0013 0.002,-0.0064 0.004,-0.01303 0.006,-0.01956 0.004,-0.0019 0.008,-0.0039 0.0116,-0.0058 z m -3.870496,1.965144 c -0.02833,0.05545 -0.05533,0.111539 -0.08085,0.168262 0.02053,0.0077 0.04106,0.01538 0.06159,0.02306 0.02151,-0.04765 0.04386,-0.09493 0.0674,-0.141676 -0.01605,-0.01655 -0.03211,-0.03309 -0.04814,-0.04965 z m 5.255066,-2.543074 c -0.0204,0.03874 -0.0407,0.07749 -0.0611,0.116237 0.0512,0.02301 0.10197,0.047 0.15232,0.07192 0.025,-0.01562 0.05,-0.03115 0.075,-0.04672 0.0365,0.04731 0.073,0.09457 0.1092,0.142104 -3.7e-4,1.68e-4 -7.7e-4,3.12e-4 -0.001,4.74e-4 0.23591,0.130406 0.46107,0.282018 0.67201,0.454177 -0.003,-0.0064 -0.006,-0.0133 -0.009,-0.01954 0.004,-0.0014 0.009,-0.0029 0.0129,-0.0042 1.3e-4,0 3.1e-4,3.9e-5 4.4e-4,9.3e-5 -0.001,0.0068 -0.003,0.01645 -0.004,0.02394 0.004,0.0035 0.008,0.0071 0.0128,0.01066 0.002,-0.011 0.004,-0.02246 0.005,-0.03174 0.0505,0.0096 0.10103,0.01942 0.15139,0.03029 -0.011,0.01112 -0.0431,0.04367 -0.072,0.07289 0.01,0.0083 0.0192,0.01681 0.0288,0.02522 0.0311,-0.03127 0.0629,-0.06323 0.0882,-0.08868 l 3e-5,-1.4e-5 c 0.002,4.55e-4 0.004,8.31e-4 0.006,0.0013 0.002,2.06e-4 0.004,1.24e-4 0.006,2.93e-4 -0.0901,-0.07984 -0.1831,-0.155841 -0.27859,-0.228011 -0.0148,-0.0018 -0.0297,-0.0037 -0.0445,-0.0054 0.005,-0.0042 0.0119,-0.01081 0.0169,-0.01543 -0.008,-0.0056 -0.015,-0.01137 -0.0226,-0.01693 -8.3e-4,7.61e-4 -0.003,0.0026 -0.003,0.0031 1.2e-4,-0.0016 7.9e-4,-0.0032 9.9e-4,-0.0048 -0.004,-0.0027 -0.008,-0.0053 -0.0113,-0.0081 -0.0192,0.0085 -0.0384,0.01708 -0.0579,0.02414 -0.002,0.003 -0.004,0.0059 -0.006,0.0089 -0.0384,-0.0041 -0.0767,-0.0089 -0.11507,-0.01255 -0.005,-0.0067 -0.0104,-0.01347 -0.0156,-0.0203 0.0431,-0.01567 0.0862,-0.03135 0.12932,-0.04702 -0.0131,-0.0092 -0.0264,-0.01823 -0.0396,-0.02732 -0.0396,0.0147 -0.0776,0.02881 -0.11422,0.0424 -0.0125,-0.01628 -0.0249,-0.03236 -0.0364,-0.04723 0.009,-0.02604 0.0172,-0.05212 0.0256,-0.07823 -0.16471,-0.105639 -0.33548,-0.200685 -0.5113,-0.284551 0.002,0.0025 0.004,0.005 0.006,0.0075 -0.017,0.01312 -0.0341,0.02604 -0.0513,0.039 0.006,-0.02046 0.0115,-0.04013 0.0172,-0.05982 -0.0202,-0.0095 -0.0406,-0.01877 -0.0609,-0.02796 z m 0.0393,0.03202 c -0.008,0.02668 -0.0158,0.05124 -0.0238,0.07714 -0.009,0.0071 -0.0189,0.01398 -0.0284,0.02098 0.0174,-0.03271 0.0348,-0.06541 0.0522,-0.09812 z m -5.382968,2.696324 c -0.0227,0.05114 -0.04418,0.102784 -0.06457,0.154848 0.0057,-0.0026 0.01141,-0.0051 0.01711,-0.0077 0.0075,0.009 0.01495,0.01795 0.02241,0.02695 -0.01837,0.007 -0.03669,0.01421 -0.05501,0.02136 -0.06253,0.165263 -0.113425,0.334802 -0.152193,0.507342 5.92e-4,-2.31e-4 0.0012,-4.74e-4 0.0018,-7.04e-4 0.007,0.0089 0.01168,0.01598 0.01073,0.01884 -0.0054,-0.0029 -0.01001,-0.0051 -0.01483,-0.0075 -0.100114,0.451668 -0.117391,0.923365 -0.04361,1.391027 3.06e-4,-1.25e-4 6.17e-4,-2.49e-4 9.21e-4,-3.74e-4 -2.43e-4,4.36e-4 -5.23e-4,9.66e-4 -7.64e-4,0.0014 0.01461,0.09243 0.03276,0.184678 0.05454,0.276601 0.0089,-0.0019 0.01663,-0.0035 0.02618,-0.0055 0.0031,0.01135 0.0068,0.02226 0.01137,0.03275 -0.0033,0.0082 -0.0066,0.0165 -0.0099,0.02473 -0.0044,0.0022 -0.0087,0.0045 -0.0131,0.0067 0.06483,0.255058 0.157431,0.50716 0.279698,0.75223 0.02211,0.04432 0.0452,0.08781 0.06882,0.13086 -0.0011,-0.0056 -0.0023,-0.01111 -0.0034,-0.01667 0.0079,-0.0032 0.01582,-0.0062 0.02369,-0.0094 -0.0026,0.0078 -0.0051,0.01565 -0.0077,0.02349 -0.0029,0.0035 -0.0057,0.0066 -0.0086,0.01 0.07403,0.134283 0.155233,0.262318 0.242905,0.383892 0.02961,0.01056 0.05923,0.02108 0.08883,0.03169 -0.01781,0.0056 -0.03558,0.01137 -0.05337,0.01708 0.01129,0.01513 0.02285,0.03001 0.03434,0.04494 0.009,-0.0034 0.0179,-0.0066 0.02697,-0.01003 -5.05e-4,0.01125 -9.7e-4,0.02287 -0.0015,0.03412 -0.0013,0.0014 -0.0026,0.0027 -0.0039,0.004 0.328081,0.417858 0.735251,0.752218 1.188641,0.992248 0.01,-0.0076 0.0193,-0.01501 0.0288,-0.0227 0.0322,0.0083 0.0644,0.01677 0.0966,0.02511 0.006,0.0026 0.0126,0.0053 0.0188,0.0079 -0.0246,0.0087 -0.0492,0.0174 -0.0737,0.02617 0.0348,0.01752 0.07,0.03428 0.10537,0.0507 0.0271,-0.0098 0.0542,-0.01954 0.0813,-0.02938 0.006,0.0026 0.0125,0.0052 0.0187,0.0078 -0.0159,0.0151 -0.0319,0.03105 -0.0478,0.0455 0.0679,0.03026 0.13668,0.05829 0.20618,0.08447 0.0231,-0.01138 0.0462,-0.02258 0.0691,-0.03429 0.10906,0.04558 0.21792,0.09152 0.32718,0.136618 -0.008,0.0053 -0.0159,0.0111 -0.0238,0.01646 0.0218,0.0057 0.0437,0.01117 0.0657,0.0165 0.005,-0.0032 0.009,-0.0066 0.0139,-0.0098 0.0245,0.0101 0.0491,0.01995 0.0737,0.02999 0.17165,0.03742 0.34613,0.0629 0.52219,0.07594 0.038,-0.01692 0.0761,-0.03388 0.1141,-0.05073 l 2e-5,3e-5 c 0.0247,0.0061 0.0494,0.01227 0.0741,0.01841 -0.007,0.01365 -0.0147,0.02731 -0.0221,0.04096 0.02,5.61e-4 0.0399,0.0011 0.0599,0.0014 0.005,-0.0097 0.0103,-0.01936 0.0154,-0.02905 0.0245,0.0061 0.049,0.01218 0.0736,0.01828 -0.006,0.0037 -0.0116,0.0072 -0.0175,0.01091 0.0107,-6.3e-5 0.0214,5.3e-5 0.0322,-1.25e-4 0.003,-0.0017 0.005,-0.0034 0.008,-0.0051 9.2e-4,2.49e-4 0.002,4.36e-4 0.003,6.79e-4 -3.1e-4,0.0014 -6.5e-4,0.0027 -9.7e-4,0.0041 0.39642,-0.0068 0.79625,-0.0769 1.18482,-0.215216 -4.4e-4,-5.6e-5 -0.001,-1.87e-4 -0.001,-2.5e-4 0.0188,-0.0067 0.0382,-0.01376 0.057,-0.0205 -6e-5,1.87e-4 -1.3e-4,4.36e-4 -1.9e-4,5.61e-4 0.12288,-0.04593 0.24459,-0.09862 0.36458,-0.158489 0.10282,-0.0513 0.20203,-0.106891 0.29797,-0.166083 -0.0515,0.01913 -0.103,0.03834 -0.15457,0.05731 -0.018,-0.0042 -0.0357,-0.0085 -0.0536,-0.01283 -0.0393,0.0214 -0.0789,0.04239 -0.11927,0.06253 -0.0225,0.01123 -0.0451,0.02202 -0.0677,0.03275 0.003,6.86e-4 0.007,0.0014 0.0102,0.0021 -0.0181,0.0066 -0.0361,0.01328 -0.0542,0.01975 -0.005,0.0016 -0.009,0.0031 -0.013,0.0046 -0.58529,0.265511 -1.20627,0.365133 -1.80822,0.316868 -0.0207,0.0088 -0.0415,0.0175 -0.0622,0.02631 9.1e-4,-0.0036 0.002,-0.0071 0.003,-0.01072 0.0109,-0.0059 0.0216,-0.01196 0.0326,-0.01787 -0.0388,-0.0034 -0.0776,-0.0075 -0.11628,-0.01216 -0.0343,0.0118 -0.0689,0.02289 -0.10439,0.03238 -0.0119,-0.0049 -0.0238,-0.0097 -0.0358,-0.01464 0.007,-0.01113 0.0139,-0.02256 0.0208,-0.03387 -0.01,-0.0015 -0.0191,-0.003 -0.0287,-0.0045 -0.003,0.01034 -0.007,0.02068 -0.01,0.03103 -0.0314,-0.01306 -0.0631,-0.02566 -0.0945,-0.03877 -5.5e-4,-0.0035 -0.001,-0.0073 -0.002,-0.01104 -0.53112,-0.101506 -1.03693,-0.319012 -1.47763,-0.639381 -7.4e-4,0.0025 -0.002,0.0055 -0.002,0.0078 -0.0287,-0.01265 -0.0573,-0.02527 -0.0859,-0.03811 0.0109,-0.0036 0.0218,-0.0073 0.0327,-0.01092 -0.11596,-0.08769 -0.227142,-0.182656 -0.332856,-0.28461 -0.0094,0.0042 -0.01886,0.0084 -0.02829,0.01257 -0.0064,-0.0057 -0.01287,-0.01144 -0.01929,-0.01716 0.0043,-0.0097 0.0086,-0.01934 0.01289,-0.02901 -0.01077,-0.01066 -0.02134,-0.02155 -0.03199,-0.03236 -0.0012,0.0027 -0.0025,0.0054 -0.0037,0.0082 -0.0036,0.0078 -0.0072,0.01555 -0.01073,0.02332 -0.0087,-0.0078 -0.01738,-0.01551 -0.02607,-0.02325 0.0024,-0.01329 0.005,-0.02838 0.0075,-0.04183 -0.251145,-0.261665 -0.467589,-0.565203 -0.638056,-0.906886 -0.32063,-0.642667 -0.435485,-1.33402 -0.369983,-1.999479 -0.0014,0.0042 -0.0029,0.0084 -0.0043,0.01253 -0.01769,0.0076 -0.03537,0.01512 -0.05307,0.02266 -0.0013,-0.0058 -0.0027,-0.0117 -0.004,-0.01754 0.0021,-0.01787 0.0043,-0.03571 0.0064,-0.05358 0.02035,-0.0074 0.04072,-0.0148 0.0611,-0.02216 0.03051,-0.26654 0.09005,-0.528508 0.176927,-0.78115 -0.0033,-0.0013 -0.0066,-0.0026 -0.0099,-0.0039 -0.0021,-0.0027 -0.004,-0.0055 -0.0061,-0.0083 0.0091,-0.0069 0.01826,-0.01382 0.02739,-0.02072 0.03016,-0.08509 0.06339,-0.169097 0.09973,-0.251814 -0.01268,-0.0069 -0.02607,-0.01409 -0.03844,-0.02083 -0.0052,-0.0064 -0.01044,-0.01289 -0.01566,-0.01933 z m -1.038021,0.644036 c 9.41e-4,-3.8e-4 0.0019,-7.48e-4 0.0028,-0.0011 -0.0041,0.0352 -0.0081,0.07039 -0.01224,0.105588 -0.03047,0.01261 -0.06091,0.02522 -0.0914,0.03779 0.03361,-0.04742 0.06723,-0.09482 0.10081,-0.142251 z m 1.784243,-0.693797 c -0.01505,0.0086 -0.03017,0.01712 -0.04522,0.02569 -0.0011,0.0024 -0.0021,0.0048 -0.0032,0.0072 0.0097,-0.0045 0.01942,-0.0088 0.0291,-0.01326 0.0064,-0.0066 0.01288,-0.01312 0.01931,-0.01968 z m 0.06349,-0.03006 c -0.0061,0.0062 -0.01442,0.01477 -0.02052,0.021 0.0089,-0.0041 0.01778,-0.0084 0.0267,-0.0126 0.0021,-0.0044 0.0042,-0.0088 0.0063,-0.01316 -0.0042,0.0016 -0.0083,0.0032 -0.0125,0.0048 z m 0.09353,-0.03561 c -4.93e-4,0.0012 -9.64e-4,0.0023 -0.0015,0.0034 0.01046,-0.005 0.02096,-0.0099 0.03142,-0.01481 -0.01,0.0038 -0.01998,0.0076 -0.02997,0.01139 z m 4.970346,-2.316018 c -0.003,0.01094 -0.007,0.02415 -0.0103,0.03529 -0.005,-0.0061 -0.008,-0.0103 -0.013,-0.01683 5.6e-4,-0.0022 10e-4,-0.0046 0.002,-0.0067 0.007,-0.0039 0.0144,-0.0078 0.0216,-0.01172 z m -7.081099,3.886404 c 0.02654,-0.0093 0.05308,-0.01872 0.07963,-0.02803 -0.002,0.01628 -0.0039,0.03258 -0.0059,0.04887 -0.02463,-0.0069 -0.04996,-0.01425 -0.07369,-0.02084 z m 6.385609,-3.166194 c 0.0371,0.02009 0.0738,0.04082 0.11017,0.0622 0.0244,-0.01095 0.0487,-0.02186 0.0731,-0.03289 -0.0327,-0.01973 -0.0656,-0.0391 -0.0988,-0.05781 -0.0281,0.0095 -0.0563,0.01902 -0.0845,0.0285 z m 0.12184,0.06898 c 0.0765,0.04534 0.15149,0.09353 0.22478,0.144496 6.4e-4,-0.0025 0.001,-0.0051 0.002,-0.0076 0.002,-0.0013 0.003,-0.0028 0.005,-0.0041 l 2e-5,2.9e-5 c 10e-4,0.0015 0.003,0.003 0.004,0.0044 -10e-4,0.0042 -0.002,0.0085 -0.003,0.01268 0.48628,0.340055 0.89708,0.802892 1.18067,1.371323 0.10724,0.214944 0.19117,0.435383 0.25335,0.658439 0.007,0.0022 0.0149,0.0044 0.0223,0.0067 -0.004,0.0083 -0.007,0.01652 -0.011,0.02477 -7.6e-4,2.37e-4 -0.002,4.24e-4 -0.002,6.59e-4 0.0357,0.132716 0.0634,0.266337 0.0837,0.40025 0.0182,-0.01075 0.0364,-0.02143 0.0546,-0.03213 0.002,3.68e-4 0.005,7.41e-4 0.007,0.0011 -0.0155,-0.09861 -0.035,-0.197057 -0.0587,-0.295076 -7.5e-4,0.0025 -0.001,0.0049 -0.002,0.0074 -0.009,-0.0046 -0.0179,-0.0092 -0.0269,-0.01378 0.009,-0.0022 0.0172,-0.0044 0.0258,-0.0066 -0.0651,-0.264946 -0.16012,-0.526852 -0.28702,-0.781198 -0.0135,-0.02702 -0.0273,-0.05375 -0.0413,-0.08029 -0.002,-0.0019 -0.004,-0.0039 -0.006,-0.0058 -5e-4,-0.0027 -9.5e-4,-0.0054 -0.001,-0.0081 -0.32326,-0.605182 -0.79114,-1.086631 -1.3393,-1.423201 0.004,0.0044 0.008,0.0087 0.0121,0.01314 -0.032,0.0041 -0.0645,0.0083 -0.0966,0.01242 z m -5.579679,2.895346 c 0.0034,-0.0015 0.0068,-0.003 0.01026,-0.0045 l 2.9e-5,-1.4e-5 1.5e-5,2.8e-5 c -0.0023,0.0067 -0.0029,0.008 -0.0052,0.01461 -0.0017,-0.0035 -0.0034,-0.0067 -0.0051,-0.01008 z m -0.873377,0.692952 c 0.0034,-9.1e-4 0.0068,-0.0018 0.01026,-0.0027 0.01168,0.0054 0.02341,0.0107 0.03511,0.01604 -0.02171,0.05666 -0.04342,0.113331 -0.06499,0.170034 -0.0017,0.0016 -0.0035,0.0032 -0.0052,0.0049 0.0084,-0.06275 0.01649,-0.12553 0.02485,-0.188281 z m 7.630366,-3.774243 c 0.0348,0.0317 0.069,0.06403 0.10286,0.09691 0.0198,-0.0021 0.0397,-0.0042 0.0595,-0.0062 -0.009,0.0083 -0.0179,0.01662 -0.0267,0.02475 -0.007,-0.0026 -0.0146,-0.0052 -0.0218,-0.0078 0.0495,0.04842 0.098,0.09814 0.14541,0.149066 0.0565,0.02028 0.113,0.04049 0.16951,0.06075 -0.002,0.0158 -0.005,0.03158 -0.008,0.04735 -5.7e-4,0.0016 -10e-4,0.0032 -0.002,0.0048 -0.0285,-0.01043 -0.0569,-0.02086 -0.0854,-0.03133 0.0633,0.07132 0.12464,0.144791 0.18375,0.220666 0.006,-0.003 0.0114,-0.006 0.0171,-0.0089 0.005,0.002 0.0107,0.0041 0.0161,0.0061 -0.004,0.0097 -0.009,0.01948 -0.013,0.02922 0.0242,0.03151 0.048,0.06341 0.0714,0.09568 0.0204,-0.0081 0.0408,-0.01629 0.0613,-0.02438 -3.2e-4,6.41e-4 -5.7e-4,0.0014 -8.2e-4,0.002 -0.0174,0.0133 -0.0331,0.02535 -0.0493,0.03775 0.14126,0.196255 0.26892,0.406176 0.38039,0.629588 0.17736,0.355514 0.30351,0.723133 0.38158,1.094503 0.0433,-0.01141 0.0855,-0.02253 0.12756,-0.03357 -0.0328,-0.155172 -0.0737,-0.30968 -0.12311,-0.462961 -0.0115,-9.14e-4 -0.023,-0.0018 -0.0346,-0.0027 -0.0155,-0.019 -0.0309,-0.03804 -0.0464,-0.05704 0.0173,-0.009 0.0345,-0.01813 0.0518,-0.02721 -0.0115,-0.03334 -0.0234,-0.06661 -0.0357,-0.09982 -0.007,-0.0049 -0.013,-0.0097 -0.0196,-0.01466 0.004,-0.002 0.008,-0.0042 0.012,-0.0062 -0.021,-0.05588 -0.0433,-0.111504 -0.0665,-0.166949 -0.005,0.0035 -0.01,0.0071 -0.0143,0.01055 0.005,-0.004 0.009,-0.0081 0.0136,-0.01212 -0.0396,-0.09423 -0.0821,-0.187887 -0.12835,-0.280644 -0.1063,-0.213051 -0.2268,-0.414331 -0.35964,-0.603433 -0.005,0.0032 -0.01,0.0065 -0.0151,0.0098 0.001,-0.0033 0.003,-0.0067 0.004,-0.01 0.002,-0.0018 0.005,-0.0037 0.007,-0.0055 -0.12177,-0.17279 -0.25413,-0.335063 -0.39536,-0.486886 -0.0119,0.0039 -0.0239,0.0079 -0.0358,0.01181 -0.0232,-0.0083 -0.0463,-0.0166 -0.0695,-0.02492 0.0203,-0.01053 0.0422,-0.02181 0.0627,-0.03245 -0.0499,-0.05222 -0.10097,-0.103028 -0.15301,-0.152617 -0.0258,0.0042 -0.0478,0.0078 -0.0861,0.01406 -0.0259,0.0043 -0.0518,0.0087 -0.0778,0.01307 z m 0.48445,0.33719 c 0.009,0.0032 0.0181,0.0065 0.0271,0.0097 -0.0127,0.0068 -0.0253,0.01358 -0.038,0.02037 0.004,-0.01002 0.007,-0.02005 0.0109,-0.03008 z m -8.022794,4.116501 c 0.01424,0.01296 0.02849,0.02592 0.04273,0.03888 -0.0164,0.01057 -0.03283,0.02107 -0.04914,0.03176 -0.0028,-0.01109 -0.0056,-0.02218 -0.0084,-0.03328 0.0049,-0.01246 0.0098,-0.0249 0.01477,-0.03736 z m -2.945783,1.481908 c -0.0045,0.0091 -0.0091,0.0182 -0.01355,0.02732 5.11e-4,7.48e-4 0.001,0.0015 0.0015,0.0023 l 2.9e-5,-1.4e-5 c 0.0041,-0.0098 0.0079,-0.01975 0.012,-0.02957 z m 5.909897,-2.902896 c -0.0186,0.0093 -0.0235,0.02277 -0.0146,0.04055 0.0431,0.08644 0.11064,0.214708 0.20255,0.384764 0.0919,0.170058 0.15943,0.298283 0.20256,0.384723 0.002,0.0047 0.006,0.0129 0.009,0.01809 0.004,-0.0037 0.008,-0.0074 0.0118,-0.01111 l 3e-5,-1.4e-5 c 0.0165,0.01603 0.0329,0.03222 0.0496,0.04818 0.002,0.0094 0.003,0.01878 0.005,0.02816 -0.002,0.0021 -0.005,0.0043 -0.007,0.0064 -0.0167,-0.01714 -0.0328,-0.03362 -0.0493,-0.05047 0.0548,0.113162 0.14699,0.315111 0.28088,0.616261 0.065,0.147136 0.097,0.220397 0.0962,0.220042 0.0102,0.01913 0.0279,0.02539 0.0532,0.0187 0.0355,-0.0097 0.11228,-0.04392 0.23022,-0.10276 0.0881,-0.04393 0.15671,-0.08221 0.206,-0.11487 0.0182,-0.0121 0.0279,-0.01895 0.0291,-0.02056 0.005,-0.0077 0.004,-0.01959 -0.004,-0.03575 -0.0145,-0.02916 -0.0363,-0.07104 -0.0558,-0.108962 -0.003,0.0016 -0.005,0.0032 -0.008,0.0048 -0.009,0.0034 -0.0172,0.0068 -0.0258,0.01013 0.006,-0.01291 0.0117,-0.02563 0.0183,-0.03785 -0.021,-0.0227 -0.0416,-0.0458 -0.0623,-0.06878 l -2e-5,-2.9e-5 c 0.009,-0.0023 0.0181,-0.0045 0.0272,-0.0068 -0.034,-0.06512 -0.071,-0.135673 -0.11528,-0.219006 -0.10037,-0.189042 -0.17433,-0.331241 -0.22189,-0.426567 -0.0431,-0.08644 -0.10334,-0.218312 -0.18071,-0.395623 -0.0529,-0.122808 -0.0949,-0.215744 -0.13182,-0.294968 -0.007,0.0019 -0.0131,0.0038 -0.0197,0.0056 -0.0197,-0.0056 -0.0395,-0.01119 -0.0592,-0.01684 -0.002,0.0046 0.0213,-0.04266 0.0379,-0.07581 -0.002,-0.0039 -0.005,-0.0105 -0.007,-0.01426 -0.009,-0.01777 -0.025,-0.02079 -0.0484,-0.0091 -0.025,0.01249 -0.0616,0.03224 -0.10967,0.05925 -0.0473,0.02661 -0.0834,0.04615 -0.10846,0.05865 -0.025,0.01249 -0.0636,0.03023 -0.11571,0.0532 -0.0513,0.02256 -0.0895,0.0401 -0.11451,0.05259 z m 0.70282,-0.350645 c -0.0161,0.0081 -0.0168,0.02703 -0.002,0.05693 0.0112,0.02249 0.0263,0.05437 0.0409,0.08519 5.6e-4,2.19e-4 10e-4,4.61e-4 0.002,6.79e-4 -3e-4,3.06e-4 -6e-4,6.1e-4 -9.1e-4,9.2e-4 0.005,0.01032 0.008,0.01714 0.0136,0.02838 0.006,-0.0059 0.0117,-0.01188 0.0173,-0.01746 0.008,0.0033 0.0167,0.0065 0.025,0.0098 -0.0134,0.0039 -0.0269,0.0077 -0.0404,0.01161 0.0122,0.02614 0.0279,0.06063 0.0421,0.09164 0.0378,-0.01922 0.0757,-0.03842 0.11382,-0.05765 0.003,9.99e-4 0.005,0.002 0.008,0.003 -0.0382,0.02342 -0.076,0.04737 -0.11389,0.07122 0.0102,0.02231 0.0185,0.03991 0.0297,0.06462 0.0596,0.129654 0.10537,0.226369 0.13721,0.290188 0.005,0.0094 0.0178,0.02441 0.0386,0.04453 0.0239,-0.01089 0.0477,-0.02169 0.0713,-0.03247 0.003,0.0011 0.006,0.002 0.009,0.0031 -8.9e-4,0.0051 -0.002,0.01043 -0.003,0.01552 -0.0113,0.01028 -0.0227,0.02051 -0.0341,0.03072 -0.0128,-0.004 -0.0255,-0.008 -0.0383,-0.01204 0.0651,0.06187 0.20201,0.17141 0.40771,0.326694 0.009,-0.004 0.0177,-0.008 0.0265,-0.01198 0.002,8.36e-4 0.003,0.0017 0.005,0.0025 -0.007,0.0057 -0.0143,0.0114 -0.0215,0.01711 0.002,0.0018 0.004,0.0031 0.006,0.0049 0.18399,0.136223 0.36735,0.27223 0.55013,0.408049 0.0206,0.01496 0.0393,0.02022 0.0563,0.0158 0.006,-0.0017 0.0214,-0.008 0.0408,-0.01676 0.016,-0.0088 0.0312,-0.01714 0.0479,-0.02641 0.002,5.61e-4 0.003,0.0011 0.005,0.0016 0.0278,-0.01331 0.0553,-0.02648 0.0958,-0.04667 0.0864,-0.04312 0.14945,-0.07657 0.18904,-0.100359 0.017,-0.01048 0.0263,-0.01714 0.0279,-0.01996 0.002,-0.004 0.003,-0.01695 0.002,-0.03876 3.1e-4,-0.02476 7.1e-4,-0.04135 10e-4,-0.06507 -0.004,0.0021 -0.008,0.0042 -0.0113,0.0064 -0.0107,-0.0035 -0.0215,-0.007 -0.0322,-0.0105 0.001,-0.0076 0.003,-0.01456 0.004,-0.02233 0.0133,0.0046 0.0265,0.0092 0.0397,0.01377 0.003,-0.247493 0.007,-0.445648 0.0127,-0.576897 3.8e-4,-0.397691 -0.012,-0.621577 -0.037,-0.671664 -0.0314,-0.06301 -0.0776,-0.15751 -0.13844,-0.283531 -0.0604,-0.127236 -0.1062,-0.221962 -0.13723,-0.284167 -0.006,-0.01113 -0.0138,-0.01644 -0.0241,-0.01719 -5e-4,0.0026 -10e-4,0.0052 -10e-4,0.0078 -0.0316,0.01936 -0.0632,0.03872 -0.0948,0.05826 -0.009,-0.0031 -0.0171,-0.006 -0.026,-0.0091 -0.0306,0.01675 -0.0639,0.03524 -0.10316,0.05751 -0.0429,0.02385 -0.0802,0.04433 -0.11271,0.06181 0.009,0.0031 0.0164,0.0058 0.0241,0.0085 -0.003,0.005 -0.004,0.0073 -0.007,0.0122 -0.009,-0.0052 -0.018,-0.01045 -0.027,-0.01566 -0.0294,0.0157 -0.0555,0.0294 -0.0758,0.03954 l -0.0109,0.0054 c 0.0148,0.0084 0.0293,0.01673 0.044,0.02512 -0.007,0.0044 -0.0137,0.0086 -0.0205,0.01302 -0.0159,-0.0089 -0.0315,-0.01755 -0.0472,-0.02634 l -0.004,0.0021 c -0.006,0.0061 -0.004,0.01999 0.007,0.04181 0.0294,0.05897 0.0746,0.147416 0.13545,0.265362 0.0424,0.08208 0.0673,0.131581 0.0945,0.1851 0.007,-0.0137 0.014,-0.02729 0.0215,-0.04179 0.016,0.01 0.0289,0.0178 0.045,0.02788 -0.0195,0.0098 -0.039,0.01961 -0.0585,0.02941 0.005,0.01025 0.0144,0.028 0.0189,0.03711 0.0233,-0.0117 0.0467,-0.02346 0.07,-0.03518 -7.9e-4,0.0049 -0.01,0.0555 -0.0127,0.0734 -0.0118,0.0082 -0.0227,0.01402 -0.034,0.02111 0.005,0.02336 0.009,0.0575 0.0121,0.0995 1.8e-4,-8.1e-5 2.4e-4,-1.43e-4 4.3e-4,-2.24e-4 -2e-5,10e-5 -3.1e-4,0.0016 -3.7e-4,0.0019 0.004,0.05527 0.007,0.124034 0.008,0.211234 0.001,0.144542 -3e-5,0.267888 -0.005,0.370031 -0.0458,-0.03256 -0.0818,-0.05926 -0.12147,-0.08817 -9.1e-4,6.61e-4 -0.002,0.0013 -0.003,0.002 8.4e-4,-7.04e-4 0.002,-0.0014 0.003,-0.0021 -0.1535,-0.111837 -0.26661,-0.199404 -0.32917,-0.25657 0.002,0.01494 0.003,0.03046 0.005,0.0447 -0.033,-0.0088 -0.0659,-0.01801 -0.0989,-0.02683 0.025,-0.01176 0.05,-0.02362 0.0751,-0.03544 -0.0229,-0.0222 -0.0378,-0.03961 -0.0438,-0.05165 -0.006,-0.01269 -0.0152,-0.03292 -0.0224,-0.04824 -1.3e-4,1.31e-4 -3.1e-4,2.68e-4 -4.4e-4,3.92e-4 -0.009,-0.0035 -0.0177,-0.007 -0.0265,-0.01045 0.006,-0.0031 0.0119,-0.0062 0.0179,-0.0094 -0.0285,-0.06146 -0.061,-0.134924 -0.10208,-0.233404 -0.056,-0.136514 -0.10031,-0.237501 -0.13296,-0.302936 -0.008,-0.01696 -0.0228,-0.02042 -0.043,-0.01034 -0.0255,0.01272 -0.0585,0.02848 -0.0977,0.0467 -0.002,0.0017 -0.003,0.0033 -0.005,0.005 -0.009,0.0033 -0.0181,0.0064 -0.0271,0.0097 -0.0296,0.01359 -0.0586,0.02694 -0.0948,0.04319 -0.10058,0.04513 -0.1751,0.07979 -0.22357,0.103976 z m 1.64679,-0.821588 c -0.0218,0.01088 -0.0273,0.02519 -0.0164,0.04296 l 0.01,0.01638 c 0.0705,0.125223 0.12317,0.219542 0.15784,0.282959 0.13504,0.246403 0.22551,0.415632 0.27146,0.507728 0.0332,0.06655 0.0791,0.168227 0.13129,0.286984 0.002,-0.0011 0.004,-0.0022 0.007,-0.0033 l 2e-5,2.9e-5 c 0.004,0.0022 0.008,0.0044 0.0116,0.0066 -0.002,0.0079 -0.004,0.01584 -0.006,0.02377 0.0152,0.03487 0.028,0.06304 0.0448,0.102124 0.0787,0.181531 0.13996,0.316008 0.18486,0.406548 0.002,-0.0088 0.003,-0.01748 0.005,-0.02625 0.0318,-0.0195 0.0637,-0.03897 0.0955,-0.05864 0.0291,0.01014 0.0601,0.02086 0.0857,0.02996 -0.005,0.0096 -0.009,0.01608 -0.0121,0.02236 0.0513,-0.02539 0.0911,-0.04518 0.16417,-0.081 0.0785,-0.03852 0.12342,-0.06084 0.17714,-0.08741 -0.0251,-0.01434 -0.0503,-0.02871 -0.0757,-0.04315 10e-4,-0.0076 0.003,-0.01527 0.004,-0.02286 0.0323,0.01801 0.0644,0.0359 0.0965,0.05378 0.0216,-0.01072 0.0592,-0.0291 0.0762,-0.03761 0.17992,-0.08976 0.31042,-0.152624 0.40191,-0.194247 0.004,-0.01232 0.006,-0.01985 0.0101,-0.0329 0.009,0.0055 0.0174,0.01097 0.0261,0.01645 0.018,-0.0079 0.0313,-0.01337 0.0448,-0.01888 -0.0197,-0.01191 -0.0394,-0.0238 -0.0592,-0.0357 7.7e-4,-0.0025 10e-4,-0.0038 0.002,-0.0063 0.0161,-0.01555 0.0316,-0.03081 0.0477,-0.04632 0.0357,-0.01301 0.0716,-0.02565 0.10742,-0.03843 -0.006,-0.02459 -0.0145,-0.05623 -0.0268,-0.09525 -0.0254,0.0075 -0.0512,0.01504 -0.0766,0.02252 4.3e-4,-0.0012 8.2e-4,-0.0024 0.001,-0.0036 0.0113,-0.01074 0.0225,-0.02151 0.0338,-0.03224 0.0137,0.0039 0.0275,0.0078 0.041,0.01162 -0.005,-0.0159 -0.01,-0.03129 -0.0158,-0.04956 -0.0326,-0.09975 -0.0576,-0.167002 -0.0749,-0.201739 -0.0145,-0.02908 -0.0307,-0.03918 -0.0484,-0.03031 -0.042,0.02096 -0.10341,0.05662 -0.18421,0.107022 -0.0804,0.04919 -0.14197,0.08448 -0.18479,0.10584 l -0.17692,0.08827 c -0.0925,0.03908 -0.15327,0.04668 -0.18232,0.02284 -0.0129,-0.01046 -0.0298,-0.03492 -0.0506,-0.07299 -0.003,0.0027 -0.006,0.0055 -0.009,0.0082 0.002,-0.0042 0.005,-0.0086 0.007,-0.0129 -0.004,-0.0078 -0.009,-0.01641 -0.0132,-0.02535 -0.009,0.01845 -0.0186,0.03611 -0.0285,0.05532 -0.016,-0.01001 -0.0289,-0.01782 -0.045,-0.02791 0.0231,-0.01169 0.0464,-0.0232 0.0695,-0.03494 -3.7e-4,-7.87e-4 -7.1e-4,-0.0014 -0.001,-0.0022 -0.0108,-0.02161 -0.011,-0.02309 -0.017,-0.03554 -0.0273,0.01369 -0.0546,0.02743 -0.0819,0.04113 8.9e-4,-0.0056 0.0142,-0.08236 0.0147,-0.0854 0.009,-0.0042 0.0425,-0.02006 0.0668,-0.03155 0.007,-0.006 0.0157,-0.01192 0.0272,-0.01763 l 0.12846,-0.06409 c 0.16399,-0.08182 0.27022,-0.131756 0.31868,-0.149884 l 0.0889,-0.03266 c 0.004,-0.0017 0.008,-0.0034 0.01,-0.0045 -2.5e-4,3.93e-4 -3.8e-4,6.83e-4 -5.7e-4,0.0011 l 0.0169,-0.0062 c 0.0234,-0.01169 0.0311,-0.02562 0.023,-0.04178 -0.0163,-0.03271 -0.0318,-0.06583 -0.0464,-0.09936 -0.058,-0.01514 -0.11614,-0.03027 -0.17451,-0.04537 0.0307,-0.01989 0.0614,-0.03996 0.0921,-0.05987 0.0249,0.0085 0.0318,0.01084 0.0458,0.0156 -10e-4,-0.0033 -0.003,-0.0064 -0.004,-0.0097 -0.0165,-0.0439 -0.0256,-0.06864 -0.0364,-0.09798 -0.005,-0.0016 -0.0104,-0.0036 -0.015,-0.0052 0.003,-0.0025 0.007,-0.0049 0.0104,-0.0073 -0.0198,-0.05381 -0.0328,-0.08996 -0.0309,-0.08808 -0.009,-0.0165 -0.0231,-0.02029 -0.0416,-0.01106 -0.0162,0.0081 -0.0372,0.02056 -0.063,0.03749 -0.0339,0.02097 -0.0551,0.0341 -0.0636,0.03934 -0.10139,0.05765 -0.20298,0.111851 -0.30476,0.162633 -0.0154,0.0077 -0.0343,0.01813 -0.0569,0.03143 -0.023,0.01249 -0.0386,0.02077 -0.0467,0.0248 -0.0388,0.01935 -0.0689,0.02476 -0.0902,0.01626 -0.008,-0.0029 -0.0153,-0.0087 -0.0232,-0.01581 -0.0153,0.01145 -0.0296,0.02208 -0.0439,0.03274 0.006,-0.01926 0.0116,-0.03959 0.0165,-0.05616 0.002,-7.89e-4 0.003,-0.0016 0.005,-0.0024 -0.0109,-0.01495 -0.0219,-0.03276 -0.0332,-0.05536 -0.0262,-0.05251 -0.0397,-0.08462 -0.0405,-0.09633 -3.7e-4,-0.02503 0.0208,-0.04823 0.0636,-0.06959 0.13032,-0.06502 0.27603,-0.131198 0.43675,-0.198524 -0.005,6.78e-4 -0.0101,0.0016 -0.0151,0.0021 -0.002,-4.68e-4 -0.003,-9.29e-4 -0.005,-0.0014 0.0141,-0.0082 0.0282,-0.01645 0.0423,-0.0247 3.8e-4,0.0034 9.4e-4,0.009 10e-4,0.01414 0.0431,-0.0179 0.0864,-0.03584 0.13164,-0.0539 0.0125,-0.0052 0.0212,-0.0091 0.0261,-0.01149 0.0162,-0.0081 0.02,-0.02059 0.0115,-0.03755 -0.0101,-0.0202 -0.043,-0.07493 -0.0986,-0.164212 -0.0552,-0.09049 -0.0895,-0.144004 -0.10279,-0.16057 -0.0222,-0.02828 -0.0543,-0.03193 -0.0963,-0.01098 -0.059,0.02942 -0.14703,0.07537 -0.26417,0.137844 -0.11714,0.06248 -0.2052,0.108422 -0.26417,0.137844 -0.0598,0.02982 -0.15068,0.07316 -0.27266,0.129983 -0.12117,0.05642 -0.21164,0.09954 -0.27142,0.129365 z m -3.244501,1.62021 c -0.02514,0.01254 -0.06198,0.03288 -0.108691,0.05977 0.03955,0.003 0.0791,0.0062 0.118644,0.0093 0.01023,0.0076 0.02025,0.01503 0.03056,0.02271 -0.09484,0.0722 -0.191353,0.145873 -0.289163,0.220381 -0.0023,-0.0023 -0.0045,-0.0047 -0.0081,-0.0069 -0.02286,-0.01422 -0.04619,-0.01227 -0.06989,-0.0026 0.01118,0.01857 0.01617,0.03719 0.01739,0.0557 -0.0074,0.0056 -0.01409,0.01077 -0.02154,0.01643 -0.0071,-0.0023 -0.01426,-0.0045 -0.02139,-0.0068 0.0068,-0.02096 0.01359,-0.04192 0.02041,-0.06286 0.0017,-7.8e-4 0.0034,-0.0018 0.0051,-0.0025 -7.93e-4,-0.0013 -0.0021,-0.0026 -0.003,-0.0039 0.01629,-0.04996 0.03248,-0.09996 0.04869,-0.149948 -0.01968,0.0091 -0.03388,0.01605 -0.06194,0.02834 -0.0067,0.0029 -0.0088,0.0041 -0.01501,0.0069 -0.0071,0.02129 -0.01395,0.04183 -0.02109,0.06316 -0.0031,-0.0024 -0.0051,-0.0048 -0.0083,-0.0072 -0.0032,-0.0024 -0.0067,-0.0042 -0.01002,-0.0062 -3.74e-4,-0.01123 -8.34e-4,-0.0206 -0.0012,-0.03114 -0.01789,0.0082 -0.04204,0.01874 -0.05397,0.02469 -0.02424,0.01209 -0.03193,0.027 -0.02306,0.04478 0.02759,0.05529 0.06719,0.131453 0.113029,0.218399 0.0027,-0.0034 0.0052,-0.0068 0.0079,-0.01015 0.0026,0.0012 0.0052,0.0025 0.0079,0.0037 -0.005,0.0027 -0.01,0.0053 -0.01496,0.0079 0.02867,0.05438 0.05934,0.112191 0.09512,0.178905 0.0015,-7.73e-4 0.0031,-0.0015 0.0046,-0.0023 l 1.4e-5,2.9e-5 2.9e-5,-1.4e-5 c 0.0077,0.0023 0.01497,0.0045 0.02259,0.0067 -0.0063,0.0038 -0.01255,0.0077 -0.01883,0.01148 5.74e-4,0.0011 9.35e-4,0.0017 0.0015,0.0028 0.01093,0.02033 0.01818,0.03429 0.02847,0.05352 0.02376,-0.01432 0.04753,-0.02862 0.07127,-0.04298 0.02057,0.0062 0.04157,0.01243 0.06226,0.01863 -0.0015,0.0052 -0.0029,0.01042 -0.0043,0.01563 -0.03165,0.02441 -0.06327,0.04886 -0.09484,0.07339 0.01384,0.02602 0.02888,0.05411 0.04137,0.0778 0.0047,-0.0029 0.0094,-0.0059 0.0141,-0.0088 -0.002,0.0073 -0.0041,0.01464 -0.0061,0.02195 -2.43e-4,1.26e-4 -4.86e-4,3.12e-4 -7.34e-4,4.99e-4 0.01179,0.02238 0.02237,0.04271 0.03291,0.06294 0.0076,-0.0073 0.01531,-0.0148 0.02379,-0.02296 0.07001,-0.05051 0.146505,-0.105739 0.214235,-0.154557 l 2e-5,2.9e-5 c 0.0102,0.003 0.0197,0.0058 0.0299,0.0089 -0.0198,0.03041 -0.0503,0.0765 -0.0703,0.107035 -0.0438,0.03924 -0.08872,0.08006 -0.134579,0.122411 -0.01332,-0.0053 -0.02663,-0.01054 -0.03994,-0.01583 0.01741,0.03376 0.03754,0.0722 0.05078,0.09874 0.04393,0.08805 0.108199,0.220925 0.192829,0.398647 0.085,0.176511 0.14953,0.308804 0.19346,0.396859 0.0105,0.021 0.0284,0.02768 0.0539,0.02003 0.0699,-0.02982 0.12278,-0.0542 0.15873,-0.07314 l 0.36474,-0.175924 c 0.0359,-0.01692 0.12744,-0.06002 0.27446,-0.129333 0.1131,-0.05239 0.20437,-0.09591 0.27385,-0.130574 0.0291,-0.01451 0.0453,-0.02359 0.0485,-0.02722 0.0109,-0.01049 0.0131,-0.02723 0.007,-0.05025 -0.0298,-0.110249 -0.0791,-0.234458 -0.14805,-0.372599 -0.009,-0.01858 -0.0248,-0.02243 -0.0466,-0.01155 -0.0727,0.03627 -0.17972,0.09473 -0.3211,0.175356 -0.14097,0.07941 -0.24783,0.137253 -0.32053,0.173527 l -0.0315,0.01572 c -0.0125,0.0032 -0.0216,1.87e-4 -0.0272,-0.0091 l -0.0169,-0.02785 c -0.0246,-0.04726 -0.0627,-0.122576 -0.11429,-0.22598 l -0.0538,-0.108904 c -0.002,0.0072 -0.004,0.01442 -0.005,0.02157 -0.003,0.0011 -0.006,0.0026 -0.009,0.0037 l 1e-5,2.9e-5 c -0.016,0.0065 -0.0302,0.01192 -0.0458,0.01816 0.0199,-0.01482 0.0399,-0.02967 0.0598,-0.04447 l -0.0323,-0.06546 c -0.0109,0.008 -0.0219,0.01595 -0.0327,0.024 -0.0106,0.0074 -0.0212,0.01487 -0.0318,0.02229 -0.004,0.0014 -0.008,0.0028 -0.0119,0.0043 0.005,-0.025 0.01,-0.05074 0.0145,-0.07539 l -2e-5,-2.9e-5 c 0.0197,0.0058 0.0389,0.01155 0.0583,0.01731 l -0.0573,-0.11588 c -0.009,-0.0028 -0.0181,-0.0056 -0.0272,-0.0084 0.005,-0.005 0.0104,-0.01006 0.0157,-0.01509 -0.008,-0.01688 -0.0124,-0.02798 -0.0198,-0.04441 -0.0157,0.0142 -0.0331,0.02974 -0.0481,0.04337 -0.004,-0.0012 -0.008,-0.0023 -0.0113,-0.0035 0.004,-0.01166 0.007,-0.0234 0.0113,-0.03506 0.009,-0.0055 0.0183,-0.01099 0.0275,-0.0165 l 2e-5,2.9e-5 c 0.006,0.0019 0.012,0.0039 0.018,0.0058 -0.0221,-0.04922 -0.0394,-0.08846 -0.0596,-0.13356 -0.005,0.0042 -0.009,0.0084 -0.0142,0.01261 -0.002,0.0012 -0.005,0.0029 -0.007,0.0042 -0.006,-0.0019 -0.0113,-0.0037 -0.017,-0.0056 0.0108,-0.008 0.0217,-0.01598 0.0325,-0.02396 -0.008,-0.01732 -0.0157,-0.03505 -0.0231,-0.05175 -0.0245,0.01814 -0.0491,0.03611 -0.0734,0.05436 -0.009,-0.0031 -0.0188,-0.0062 -0.0282,-0.0093 0.0321,-0.01902 0.0643,-0.03786 0.0964,-0.05678 -0.0168,-0.03777 -0.0374,-0.08348 -0.0527,-0.118036 -0.0244,0.01261 -0.0452,0.0233 -0.0726,0.03753 -0.0296,0.01428 -0.0647,0.03154 -0.09861,0.04815 0.0098,-0.03255 0.0195,-0.06511 0.0295,-0.09775 0.0366,-0.01997 0.0733,-0.03996 0.11006,-0.06006 -0.007,-0.01643 -0.012,-0.02772 -0.0188,-0.04331 -0.0234,0.01234 -0.0468,0.02466 -0.0703,0.03692 0.012,-0.03849 0.024,-0.07699 0.0362,-0.115595 -0.003,-0.0078 -0.007,-0.01642 -0.0104,-0.02393 -0.0159,0.05024 -0.0314,0.100359 -0.0467,0.150454 -0.08197,0.04296 -0.163938,0.08568 -0.245913,0.129243 -0.01971,-0.0065 -0.03934,-0.01313 -0.05907,-0.01953 0.141167,-0.109054 0.273403,-0.210921 0.348083,-0.268611 -0.0126,-0.02937 -0.0303,-0.06934 -0.041,-0.09468 l -0.007,-0.01637 c -0.007,-0.01575 -0.01631,-0.02059 -0.02842,-0.01455 z m 1.291101,-0.628296 3e-5,-1.5e-5 c 0.0237,-0.0084 0.0473,-0.01696 0.071,-0.02544 -0.0123,0.02412 -0.0262,0.05137 -0.0363,0.07138 -0.0138,-0.004 -0.0276,-0.0078 -0.0414,-0.01179 -5.2e-4,-0.0016 -0.001,-0.003 -0.002,-0.0046 0.003,-0.0098 0.006,-0.01968 0.008,-0.02952 z m 2.64233,-1.297747 c 0.0269,-0.0067 0.0538,-0.01343 0.0807,-0.02013 -0.0213,0.01342 -0.0426,0.02689 -0.0639,0.04033 -0.005,-0.0069 -0.0113,-0.01338 -0.0168,-0.0202 z m -2.91321,1.455829 c 0.009,0.0046 0.018,0.0092 0.0269,0.01378 -0.0112,0.0029 -0.0225,0.0057 -0.0337,0.0085 0.002,-0.0074 0.004,-0.01487 0.007,-0.02231 z m 2.71093,-1.348289 c 0.018,0.0059 0.036,0.01175 0.054,0.01761 -0.008,0.0052 -0.0163,0.01049 -0.0245,0.01571 -0.0183,-0.0063 -0.0366,-0.01268 -0.0549,-0.01902 0.009,-0.0049 0.0168,-0.0095 0.0254,-0.01427 z m -5.719188,2.895139 c -0.0012,0.0142 -0.0024,0.0284 -0.0036,0.0426 -0.01785,0.01538 -0.03571,0.03072 -0.05352,0.04615 -0.0038,-0.01474 -0.0073,-0.02953 -0.01107,-0.04427 0.0227,-0.0149 0.04545,-0.02968 0.06822,-0.04448 z m 3.847848,-1.897677 c 0.0263,-0.0077 0.053,-0.01555 0.0793,-0.02329 -4e-4,0.0012 -7.9e-4,0.0024 -0.001,0.0036 -0.0113,0.01074 -0.0226,0.02148 -0.0338,0.03222 -0.0147,-0.0042 -0.0297,-0.0084 -0.0443,-0.01252 z m -0.20463,0.113358 c 0.009,0.0025 0.0185,0.0049 0.0278,0.0074 -8.6e-4,8.47e-4 -0.002,0.0017 -0.003,0.0026 -0.008,-0.0033 -0.0168,-0.0066 -0.0252,-0.0099 z m 2.45414,-1.219055 c 0.003,0.0013 0.005,0.0027 0.008,0.0041 -0.04,0.02622 -0.0798,0.05274 -0.11954,0.0793 -0.003,-0.0033 -0.005,-0.0067 -0.008,-0.01 0.0397,-0.02453 0.0795,-0.04892 0.11925,-0.07339 z m -1.28928,0.643268 c 10e-4,5.23e-4 0.004,0.0013 0.005,0.0018 -0.007,0.0026 -0.0137,0.0052 -0.0205,0.0077 0.005,-0.0032 0.0103,-0.0063 0.0155,-0.0095 z m -1.76608,0.909043 c 0.005,-0.0015 0.0105,-0.0029 0.0158,-0.0044 -0.001,0.0027 -0.002,0.0053 -0.004,0.008 -0.004,-0.0012 -0.008,-0.0024 -0.0122,-0.0036 z m 0.0487,-0.01351 c 0.008,-0.0022 0.0159,-0.0044 0.0239,-0.0066 0.001,0.002 0.002,0.004 0.004,0.006 -0.003,0.01042 -0.006,0.02272 -0.009,0.03431 -0.01,-0.0029 -0.0199,-0.0059 -0.0298,-0.0089 0.004,-0.0083 0.007,-0.01652 0.011,-0.02477 z m 0.61303,-0.303608 c 0.0171,0.0046 0.0341,0.009 0.0513,0.01362 -0.004,0.0034 -0.007,0.0068 -0.0107,0.01019 -0.0154,-0.0061 -0.0309,-0.01217 -0.0463,-0.01825 0.002,-0.0019 0.004,-0.0036 0.006,-0.0056 z m -0.58489,0.303934 c 0.009,0.01435 0.0174,0.02886 0.0253,0.04368 -0.0113,-0.0034 -0.0227,-0.0068 -0.034,-0.01014 0.003,-0.01128 0.006,-0.0227 0.009,-0.03354 z m 3.284,-1.629008 c 0.002,0.01478 0.004,0.02948 0.006,0.04443 -0.006,0.0026 -0.0116,0.0052 -0.0174,0.0079 0.003,-0.01573 0.007,-0.03142 0.0115,-0.05228 z m -0.847,0.428626 2e-5,-1.5e-5 c 0.003,0.0072 0.007,0.01425 0.0102,0.02141 -10e-4,6.72e-4 -0.003,0.0013 -0.004,0.002 l 2e-5,2.9e-5 c -0.002,6.46e-4 -0.003,0.0013 -0.005,0.002 -0.001,5.06e-4 -0.003,9.9e-4 -0.004,0.0014 -8.1e-4,-3.49e-4 -0.002,-6.44e-4 -0.002,-9.69e-4 -0.001,-0.0054 -0.003,-0.01399 -0.004,-0.01973 0.003,-0.002 0.006,-0.0041 0.01,-0.0061 z m 0.61483,-0.300697 c 0.003,0.0015 0.006,0.0031 0.009,0.0046 -0.002,0.0061 -0.003,0.01226 -0.005,0.0184 -0.0101,0.0046 -0.0201,0.0093 -0.0301,0.01396 0.002,-0.0082 0.005,-0.01588 0.007,-0.02491 0.006,-0.004 0.0125,-0.0081 0.0188,-0.0121 z m -2.83992,1.432407 c 0.008,-0.0023 0.0159,-0.0046 0.0238,-0.0069 0.0215,0.0059 0.0431,0.01205 0.0647,0.01805 -0.005,0.0048 -0.009,0.0095 -0.014,0.01422 -0.0178,-0.006 -0.0614,-0.0209 -0.0745,-0.02537 z m 1.41923,-0.704461 c 0.004,-0.0014 0.0175,-0.0064 0.0244,-0.009 0.006,0.0032 0.0113,0.0064 0.017,0.0097 -8.1e-4,5.42e-4 -0.002,0.0011 -0.002,0.0017 -0.006,0.0032 -0.0117,0.0064 -0.0175,0.0096 -0.007,-0.0041 -0.0143,-0.0079 -0.0216,-0.01202 z m -0.67175,0.352531 c -0.002,0.01565 -0.003,0.03129 -0.005,0.04694 -0.002,8.23e-4 -0.003,0.0017 -0.005,0.0025 -0.0132,-0.0038 -0.0259,-0.0073 -0.0387,-0.01093 0.001,-0.0026 0.002,-0.0051 0.003,-0.0077 0.0151,-0.01036 0.0303,-0.02053 0.0455,-0.03084 z m 0.77838,-0.313231 c 5e-4,-1.95e-4 10e-4,-3.07e-4 0.002,-4.44e-4 0.001,8.29e-4 0.003,0.0016 0.004,0.0025 -0.005,0.0044 -0.01,0.0089 -0.0147,0.01329 -0.003,-0.0017 -0.006,-0.0035 -0.009,-0.0053 0.006,-0.0033 0.0121,-0.0067 0.0181,-0.01003 z m -0.0842,0.05733 c 0.006,0.0033 0.0121,0.0067 0.0181,0.0101 -2.5e-4,2.5e-4 -4.9e-4,3.68e-4 -7.1e-4,6.06e-4 -0.007,-0.0042 -0.012,-0.0074 -0.0174,-0.01071 z m 0.80106,-0.397672 c 7.6e-4,-3.12e-4 0.002,-5.68e-4 0.002,-8.21e-4 0.008,0.0021 0.0168,0.0041 0.0252,0.0061 0.005,0.02011 0.009,0.04034 0.0152,0.05988 -0.009,0.0027 -0.0173,0.0055 -0.026,0.0082 -0.003,-0.01442 -0.0115,-0.05081 -0.0166,-0.07334 z m -3.573232,1.813022 c -0.0097,0.03211 -0.01943,0.06422 -0.02894,0.09628 -0.01295,0.0063 -0.0248,0.01211 -0.03752,0.01832 -0.0298,-0.0099 -0.05965,-0.0197 -0.08946,-0.02957 0.05307,-0.02933 0.103918,-0.05665 0.155929,-0.08503 z m 3.800212,-1.895367 c 0.051,-0.01841 0.1,-0.03604 0.14279,-0.0514 10e-4,0.0019 0.003,0.0038 0.004,0.0057 -0.007,0.008 -0.0136,0.01933 -0.0197,0.03233 -0.007,0.0049 -0.0121,0.01024 -0.0185,0.01526 -0.0286,0.01577 -0.0572,0.0315 -0.0858,0.04727 -0.002,-4.8e-4 -0.004,-9.65e-4 -0.006,-0.0014 -0.004,-0.01341 -0.009,-0.02929 -0.0167,-0.04768 z m -4.096934,2.057664 c 0.0224,0.01059 0.04483,0.02112 0.06723,0.0317 -0.01166,0.0057 -0.02401,0.01158 -0.03579,0.01731 -0.02523,-0.0081 -0.05061,-0.01629 -0.07587,-0.0244 0.01496,-0.0083 0.02955,-0.01634 0.04443,-0.02461 z m 3.431104,-1.684251 c 0.001,3.74e-4 0.002,7.38e-4 0.003,0.0011 -1e-5,3.8e-5 -2e-5,8.1e-5 0,1.44e-4 -0.001,0.0018 -0.002,0.0038 -0.004,0.0056 -0.002,0.0019 -0.004,0.0039 -0.007,0.0058 -0.003,2.05e-4 -0.007,3.8e-4 -0.0105,5.79e-4 0.006,-0.0044 0.0117,-0.0089 0.0175,-0.01325 z m -3.332108,1.688833 c 0.0049,0.0015 0.0099,0.0031 0.01476,0.0046 -9.29e-4,4.37e-4 -0.0016,8.05e-4 -0.0026,0.0013 -0.004,-0.0019 -0.0081,-0.0039 -0.01218,-0.0059 z m 3.308578,-1.611495 c -0.002,0.0032 -0.003,0.0065 -0.004,0.0097 -0.003,0.0012 -0.007,0.0023 -0.0104,0.0035 0.005,-0.0044 0.01,-0.0088 0.0148,-0.01317 z m -1.06399,0.53742 c -3e-5,3.62e-4 -1.5e-4,6.81e-4 -2e-4,10e-4 -0.002,0.0013 -0.004,0.0025 -0.006,0.0038 l -4.5e-4,-2.05e-4 c 0.002,-0.0015 0.005,-0.0031 0.007,-0.0046 z m -0.88641,0.487707 3e-5,-1.4e-5 c 0.005,0.0018 0.01,0.0037 0.0145,0.0055 -0.003,0.0021 -0.006,0.0045 -0.009,0.0066 -0.003,-0.0032 -0.006,-0.0059 -0.009,-0.0091 0.001,-0.001 0.002,-0.002 0.003,-0.003 z m 2.65396,-1.322995 c 0.0278,0.01095 0.0556,0.02189 0.0834,0.03284 -0.0331,0.01187 -0.066,0.02386 -0.0994,0.0357 0.007,-0.02261 0.0118,-0.04553 0.016,-0.06854 z m -0.16645,0.08495 c 0.0125,0.0078 0.0251,0.01571 0.0377,0.02352 -0.0125,0.0044 -0.0253,0.0088 -0.038,0.01326 -0.01,-0.0069 -0.0195,-0.01441 -0.0293,-0.02108 0.0107,-0.0056 0.0201,-0.01061 0.0296,-0.01571 z m -3.789052,1.908707 c 0.0053,-0.0026 0.01065,-0.0053 0.01599,-0.0079 l 1.4e-5,2.9e-5 c 0.0012,5.61e-4 0.0023,0.0011 0.0034,0.0016 -0.0045,0.0027 -0.009,0.0055 -0.01345,0.0082 -0.002,-6.36e-4 -0.004,-0.0013 -0.006,-0.0019 z m 3.206892,-1.598026 c -0.001,0.003 -0.003,0.006 -0.004,0.0089 -0.002,-0.0012 -0.004,-0.0023 -0.006,-0.0035 0.003,-0.0018 0.007,-0.0036 0.01,-0.0055 z m 0.0146,4.61e-4 c 0.005,0.0026 0.009,0.0052 0.0137,0.0078 -0.001,0.0055 -0.003,0.01099 -0.004,0.01648 -0.004,-0.002 -0.007,-0.0039 -0.0105,-0.0059 6e-5,-0.0062 4.4e-4,-0.01226 7.4e-4,-0.01837 z m -0.0533,0.07357 c 0.002,10e-4 0.004,0.0021 0.006,0.0031 -0.002,0.0039 -0.003,0.0078 -0.005,0.01174 -0.001,-6.99e-4 -0.001,-8.98e-4 -0.003,-0.0017 0.001,-0.006 0.001,-0.0082 0.002,-0.01318 z m 0.76355,-0.377305 c 0.0137,-0.0017 0.0218,-7.71e-4 0.0129,0.0098 -0.007,0.0083 -0.0153,0.01531 -0.0241,0.02179 0.004,-0.01039 0.008,-0.02098 0.0112,-0.03156 z m -1.76579,0.882764 c -0.002,0.0096 -0.003,0.01936 -0.005,0.02899 -6.9e-4,5.49e-4 -0.001,0.0011 -0.002,0.0017 -0.0108,-0.003 -0.0216,-0.0059 -0.0325,-0.0088 0.013,-0.0073 0.0269,-0.01508 0.039,-0.02185 z m -2.00585,1.0026 c 0.0143,0.0046 0.0285,0.0092 0.0428,0.01381 -0.0116,0.0088 -0.0229,0.01791 -0.0345,0.02671 -0.014,-0.0068 -0.02801,-0.01353 -0.04194,-0.02027 0.01122,-0.0067 0.02238,-0.01356 0.03361,-0.02026 z m -0.07082,0.04267 1.4e-5,2.9e-5 c 0.0044,0.0021 0.0088,0.0041 0.01316,0.0062 -0.0051,-0.0016 -0.01023,-0.0033 -0.01534,-0.0049 7.22e-4,-4.36e-4 0.0014,-8.67e-4 0.0022,-0.0013 z m 1.91549,-0.954097 1e-5,2.9e-5 c 0.0207,0.0056 0.0414,0.01119 0.0621,0.01675 -0.007,0.0056 -0.012,0.01016 -0.0189,0.01579 -0.0122,0.0065 -0.0244,0.01308 -0.0365,0.01964 -0.002,-7.04e-4 -0.004,-0.0015 -0.007,-0.0022 -9.5e-4,-0.01453 -0.002,-0.02908 -0.004,-0.0436 5.2e-4,-0.0015 0.001,-0.0036 0.002,-0.0051 7.3e-4,-4.31e-4 0.001,-8.47e-4 0.002,-0.0013 z m 1.84431,-0.91092 c 0.0113,-0.004 0.0225,-0.008 0.0338,-0.01203 4.3e-4,1.93e-4 8.2e-4,5.3e-4 0.001,7.93e-4 -0.0112,0.0047 -0.0229,0.0083 -0.035,0.01124 z m 0.068,-0.02421 c 0.0313,-0.01109 0.0626,-0.02223 0.0938,-0.03334 -0.009,0.0078 -0.0185,0.01553 -0.0277,0.02335 -0.0204,0.0097 -0.0408,0.01935 -0.0611,0.02909 -0.004,-0.0021 -0.007,-0.0043 -0.0106,-0.0064 0.002,-0.0042 0.004,-0.0084 0.006,-0.0127 z m -2.28102,1.14633 c 0.018,0.0052 0.0359,0.01034 0.054,0.01546 -0.0146,0.0081 -0.0293,0.01605 -0.0439,0.02411 -0.0157,-0.0061 -0.0314,-0.01217 -0.047,-0.01824 0.0123,-0.0071 0.0246,-0.01427 0.037,-0.02133 z m 2.26952,-1.119958 2e-5,-1.4e-5 c 1.9e-4,1.12e-4 4.4e-4,2.87e-4 6.4e-4,4.36e-4 -3.1e-4,1.62e-4 -6.8e-4,3.24e-4 -0.001,4.74e-4 z m -3.6381,1.854851 c 0.001,3.12e-4 0.002,6.55e-4 0.003,9.85e-4 -0.007,0.0043 -0.0137,0.0082 -0.0209,0.01247 0.006,-0.0045 0.0119,-0.009 0.0179,-0.01346 z m 3.09665,-1.536008 c 0.0189,0.0107 0.0379,0.0214 0.0569,0.03212 -0.002,0.0052 -0.004,0.01413 -0.005,0.01522 -0.0189,-0.01065 -0.0375,-0.02122 -0.0564,-0.03186 0.001,-0.0052 0.003,-0.01032 0.004,-0.01548 z m -1.02923,0.516443 c -0.01,0.01711 -0.0198,0.03511 -0.0296,0.05248 -0.0131,-0.0035 -0.0262,-0.0071 -0.0393,-0.01062 3.7e-4,-0.0022 6.7e-4,-0.0038 10e-4,-0.0061 0.0226,-0.01197 0.0452,-0.02386 0.0678,-0.03577 z m 1.73362,-0.858182 c -0.006,0.02247 -0.0128,0.04493 -0.0192,0.06739 -0.006,0.0041 -0.0131,0.0097 -0.0186,0.0138 -0.0101,-0.0061 -0.0202,-0.01223 -0.0304,-0.01834 0.0118,-0.01054 0.0238,-0.02089 0.0354,-0.03174 0.011,-0.01029 0.0218,-0.02079 0.0328,-0.03111 z m -1.67287,0.848898 c 0.007,0.0027 0.0135,0.0054 0.0203,0.0081 -0.008,0.0074 -0.0166,0.01486 -0.0249,0.0223 -0.004,0.0017 -0.0125,0.0056 -0.0163,0.0074 0.007,-0.01304 0.014,-0.0253 0.0209,-0.03773 z m 1.59209,-0.774752 c 0.01,0.0059 0.019,0.01189 0.0285,0.01782 -0.006,0.0045 -0.0145,0.01078 -0.0205,0.01526 -0.002,0.0013 -0.005,0.0026 -0.007,0.0039 -0.008,0.0041 -0.008,0.004 -0.0153,0.0075 -0.007,-0.0045 -0.0132,-0.0089 -0.0198,-0.01356 0.0115,-0.0103 0.0229,-0.02069 0.0345,-0.03092 z m -0.0488,0.04374 2e-5,2.9e-5 c 0.0101,5.74e-4 0.02,0.0017 0.03,0.0027 -0.0346,0.01691 -0.0558,0.02734 -0.0759,0.03721 0.0152,-0.01338 0.0307,-0.02646 0.0459,-0.03993 z m -3.808496,1.927406 c -0.01649,0.01577 -0.03166,0.03031 -0.04834,0.0463 -0.01074,0.0077 -0.02149,0.01534 -0.03222,0.02303 -0.01576,0.0097 -0.03059,0.01894 -0.0458,0.02836 0.002,-0.0073 0.004,-0.01471 0.006,-0.02205 0.04013,-0.02523 0.08022,-0.05048 0.120404,-0.07562 z m 4.474956,-2.205464 c 3.7e-4,0.0034 6.3e-4,0.006 10e-4,0.01136 -0.0221,0.01302 -0.0436,0.0258 -0.0653,0.03864 -6.3e-4,-0.0034 -6.5e-4,-0.0074 -0.002,-0.01029 0.0219,-0.01329 0.0438,-0.02649 0.0657,-0.03971 z m -2.30697,1.182861 c 0.004,-0.0018 0.0122,-0.0055 0.0161,-0.0073 l -1e-5,-2.9e-5 c 0.002,6.55e-4 0.005,0.0014 0.007,0.002 -0.004,0.02275 -0.008,0.04548 -0.0121,0.06823 -0.0181,-0.0061 -0.0223,-0.0076 -0.0395,-0.01345 0.009,-0.0151 0.0199,-0.03482 0.0281,-0.04947 z m 3.59807,-1.794126 c -0.002,0.0013 -0.004,0.0027 -0.006,0.004 3.1e-4,2.93e-4 5.6e-4,6.49e-4 8.7e-4,9e-4 0.002,-0.0016 0.003,-0.0033 0.005,-0.0049 z m -3.57128,1.789727 c 0.0763,0.02009 0.15382,0.04008 0.23112,0.06007 -0.0307,0.01989 -0.0613,0.03996 -0.0921,0.05987 -0.0823,-0.028 -0.0819,-0.02791 -0.15113,-0.05148 0.004,-0.02281 0.008,-0.04564 0.0121,-0.06846 z m 1.58393,-0.75149 c 0.0135,-0.006 0.0272,-0.01157 0.0407,-0.01744 -0.0198,0.01233 -0.0396,0.02457 -0.0594,0.03696 -0.002,-0.0014 -0.004,-0.0027 -0.006,-0.0041 0.008,-0.0051 0.0166,-0.01025 0.0248,-0.01538 z m -3.58877,1.793947 1e-5,2.8e-5 3e-5,-1.4e-5 3e-5,-1.4e-5 2e-5,2.9e-5 c 1.3e-4,0 1.8e-4,6.2e-5 3.3e-4,6.2e-5 -4e-4,3.12e-4 -7.2e-4,6.49e-4 -10e-4,9.92e-4 2.2e-4,-3.74e-4 4.7e-4,-7.17e-4 7e-4,-0.0011 z m 3.77362,-1.871014 c 0.003,-0.0012 0.006,-0.0024 0.009,-0.0037 -6.2e-4,0.0023 -10e-4,0.0045 -0.002,0.0068 -0.002,-0.0011 -0.005,-0.002 -0.007,-0.0031 z m -1.86791,0.960176 c 0.0248,0.0086 0.0427,0.01473 0.0682,0.02353 -0.003,0.01657 -0.006,0.03311 -0.009,0.04967 -0.0241,-0.0076 -0.0482,-0.01516 -0.0722,-0.02276 0.002,-0.01365 0.005,-0.02747 0.007,-0.04018 0.002,-0.0033 0.004,-0.007 0.006,-0.01027 z m 2.55716,-1.274955 c 0.0218,0.0074 0.0156,0.0053 0.0365,0.01244 -0.0189,0.01224 -0.0377,0.02466 -0.0566,0.03688 -1.9e-4,-0.0016 -8.5e-4,-0.008 -0.001,-0.0095 0.006,-0.01187 0.0147,-0.02769 0.0211,-0.03978 z m -4.40542,2.202789 c 0.0187,0.0055 0.0368,0.01089 0.055,0.01627 -0.0336,0.04282 -0.0675,0.0858 -0.11055,0.14243 -0.003,0.0011 -0.006,0.0022 -0.009,0.0033 0.0138,-0.04665 0.0273,-0.09336 0.0422,-0.13981 0.008,-0.0074 0.015,-0.01489 0.0225,-0.02223 z m 1.23157,-0.613608 c 0.0101,0.0016 0.0195,0.0035 0.0295,0.0051 3.3e-4,5.61e-4 9.3e-4,8.48e-4 0.001,0.0014 -0.005,0.01194 -0.0109,0.02385 -0.0163,0.03579 -0.003,-0.0025 -0.005,-0.0049 -0.008,-0.0074 -0.002,-0.01167 -0.004,-0.02316 -0.006,-0.03487 z m 2.48241,-1.235784 c -0.004,0.01534 -0.008,0.03071 -0.0123,0.04605 -0.0216,0.0144 -0.043,0.02897 -0.0646,0.0433 0.006,-0.01937 0.0109,-0.03598 0.0156,-0.0517 0.0204,-0.01253 0.0408,-0.02515 0.0613,-0.03765 z m -0.10749,0.06608 c -0.004,0.01535 -0.009,0.03071 -0.0131,0.04605 -0.01,-0.0065 -0.0195,-0.0131 -0.0296,-0.01978 0.0142,-0.0088 0.0285,-0.01749 0.0427,-0.02627 z m 0.5846,-0.285464 c 0.0149,0.0038 0.0297,0.0075 0.0446,0.01144 -0.0142,0.0091 -0.0284,0.01811 -0.0426,0.02718 -0.0121,-0.0048 -0.0242,-0.0096 -0.0362,-0.01443 0.0115,-0.008 0.0228,-0.0162 0.0343,-0.02419 z m -4.27479,2.151437 c -0.0114,0.03279 -0.0229,0.06554 -0.0341,0.09838 -0.0286,0.01024 -0.0574,0.02061 -0.0862,0.03093 0.006,-0.0093 0.0119,-0.01863 0.0179,-0.02795 0.0339,-0.03398 0.0682,-0.06759 0.10234,-0.101359 z m 2.00352,-0.985849 c 0.027,0.0093 0.0444,0.01533 0.0723,0.02496 -0.0173,0.01125 -0.0347,0.02251 -0.052,0.03378 -0.01,-0.0031 -0.0194,-0.0061 -0.0291,-0.0092 0.003,-0.01653 0.006,-0.03306 0.009,-0.04959 z m -1.83874,0.927221 2e-5,2.9e-5 c 0.007,0.0022 0.0148,0.0043 0.0223,0.0066 -0.004,0.01984 -0.0102,0.05429 -0.0144,0.07628 -0.0328,0.01177 -0.0654,0.02343 -0.0975,0.03491 0.0292,-0.03995 0.0598,-0.07851 0.0896,-0.117796 z m 3.91932,-1.937582 c 7.9e-4,0.0017 10e-4,0.0034 0.002,0.0052 -0.005,0.0032 -0.01,0.0064 -0.0149,0.0096 1.9e-4,-9.37e-4 6.7e-4,-0.0036 8.5e-4,-0.0046 0.004,-0.0033 0.008,-0.0068 0.0118,-0.01009 z m 0.24999,-0.106503 c 6.3e-4,0.0061 9.5e-4,0.0093 0.001,0.01339 -0.005,-0.0018 -0.009,-0.0036 -0.0138,-0.0055 0.004,-0.0027 0.008,-0.0053 0.0124,-0.0079 z m -0.0705,0.04506 6e-5,4.2e-5 c 0.0205,0.0081 0.041,0.01617 0.0615,0.02426 -0.0154,0.02987 -0.0314,0.06111 -0.0464,0.09023 -1.9e-4,-5.6e-5 -3.8e-4,-8.1e-5 -5.6e-4,-1.94e-4 -0.0109,-0.03399 -0.0225,-0.06768 -0.0354,-0.10099 0.007,-0.0044 0.0139,-0.0089 0.0208,-0.01334 z m -1.19872,0.598188 c 0.01,0.0065 0.0195,0.0131 0.0296,0.01978 -0.0142,0.0088 -0.0285,0.01748 -0.0427,0.02627 0.004,-0.01535 0.009,-0.03071 0.0131,-0.04605 z m -0.0437,0.02275 c -0.006,0.01935 -0.0109,0.03599 -0.0156,0.05168 -0.0204,0.01253 -0.0408,0.02515 -0.0612,0.03765 0.004,-0.01533 0.008,-0.03069 0.0123,-0.04602 0.0216,-0.0144 0.043,-0.02898 0.0646,-0.04331 z m -0.74829,0.393383 3e-5,-1.4e-5 c 1.8e-4,0.0016 8.2e-4,0.008 9.8e-4,0.0096 -0.006,0.01187 -0.0147,0.02768 -0.0211,0.03976 -0.0217,-0.0074 -0.0156,-0.0053 -0.0365,-0.01242 0.0189,-0.01224 0.0377,-0.02466 0.0566,-0.03688 z m -0.15096,0.09839 3e-5,-1.5e-5 c 0.0227,0.0079 0.0398,0.01378 0.0578,0.02001 -0.0153,0.01094 -0.0308,0.02152 -0.046,0.03249 -0.0207,-0.0066 -0.0415,-0.01304 -0.0623,-0.01962 0.0168,-0.01096 0.0336,-0.02195 0.0504,-0.03286 z m 2.36206,-1.151618 c 0.033,0.0088 0.0659,0.01796 0.0989,0.02679 -0.0302,0.01421 -0.0604,0.02856 -0.0907,0.0428 -3.1e-4,-1.12e-4 -6.2e-4,-2.49e-4 -8.9e-4,-3.49e-4 -0.003,-0.02956 -0.005,-0.04717 -0.007,-0.06924 z m -4.46441,2.231136 1e-5,2.8e-5 c 0.001,-4.98e-4 0.002,-9.29e-4 0.004,-0.0014 -0.002,0.0012 -0.004,0.0025 -0.005,0.0037 5.5e-4,-7.6e-4 0.001,-0.0016 0.002,-0.0024 z m 2.91526,-1.446519 c 0.002,0.0011 0.005,0.002 0.007,0.0031 -0.003,0.0012 -0.006,0.0024 -0.009,0.0037 6.2e-4,-0.0023 0.001,-0.0045 0.002,-0.0068 z m 1.40891,-0.699095 c 0.002,0.02057 0.003,0.03348 0.005,0.05172 -0.0145,0.0069 -0.029,0.0137 -0.0435,0.02055 0.0118,-0.02244 0.0259,-0.04907 0.0381,-0.07227 z m -1.19819,0.605598 c 0.002,0.0014 0.004,0.0028 0.006,0.0041 -0.008,0.0051 -0.0165,0.01027 -0.0248,0.01541 -0.0135,0.006 -0.0273,0.01162 -0.0409,0.01753 0.0198,-0.01237 0.0398,-0.02465 0.0596,-0.03708 z m 0.90028,-0.435581 c 0.009,0.0025 0.0238,0.0068 0.0327,0.0094 -0.0126,0.0059 -0.0251,0.01182 -0.0377,0.01779 2.5e-4,-0.0015 0.005,-0.02531 0.005,-0.0272 z m -2.421,1.220309 2e-5,-1.4e-5 c 0.006,0.003 0.0119,0.0062 0.0178,0.0095 -4.3e-4,7.73e-4 -7e-4,0.0012 -0.001,0.0019 -0.004,0.0066 -0.008,0.01308 -0.0119,0.01967 -0.0112,0.0061 -0.0223,0.0121 -0.0335,0.01816 -10e-4,-0.0042 -0.003,-0.0083 -0.004,-0.0125 0.003,-0.0067 0.005,-0.01346 0.008,-0.02019 0.008,-0.0056 0.017,-0.01101 0.0254,-0.01656 z m 0.86991,-0.388132 c 6.2e-4,0.0034 6.2e-4,0.0074 0.002,0.0103 -0.0219,0.01329 -0.0438,0.02647 -0.0657,0.03969 -3.8e-4,-0.0034 -6.4e-4,-0.006 -10e-4,-0.01136 0.0221,-0.01302 0.0436,-0.02581 0.0653,-0.03864 z m -4.875546,2.460371 c -8.54e-4,5.61e-4 -0.002,0.0014 -0.0028,0.002 5.67e-4,4.37e-4 0.0011,8.17e-4 0.0017,0.0012 4.05e-4,-0.0011 7.75e-4,-0.0022 0.0012,-0.0032 z m 5.428486,-2.681688 c 0.008,-0.0041 0.008,-0.004 0.0153,-0.0075 0.007,0.0045 0.0132,0.009 0.0198,0.01356 -0.0115,0.0103 -0.0229,0.02068 -0.0345,0.03092 -0.01,-0.0059 -0.019,-0.01189 -0.0285,-0.01782 0.006,-0.0045 0.0145,-0.0108 0.0205,-0.01527 0.002,-0.0013 0.005,-0.0026 0.007,-0.0039 z m 0.0195,-0.0095 c 0.0345,-0.01689 0.0557,-0.02731 0.0758,-0.03717 -0.0152,0.01335 -0.0307,0.0264 -0.0458,0.03984 -0.0101,-5.74e-4 -0.02,-0.0017 -0.03,-0.0027 z m 0.55247,-0.268533 c 0.0189,0.01065 0.0375,0.02122 0.0564,0.03186 -0.001,0.0052 -0.003,0.01035 -0.004,0.01551 -0.0189,-0.0107 -0.0379,-0.02142 -0.0569,-0.03214 0.002,-0.0052 0.004,-0.01415 0.005,-0.01524 z m -0.61424,0.307958 c 0.0101,0.0061 0.0202,0.01223 0.0304,0.01834 -0.0118,0.01055 -0.0238,0.02092 -0.0354,0.03177 -0.011,0.01029 -0.0218,0.02076 -0.0328,0.03108 0.006,-0.02246 0.0129,-0.04491 0.0193,-0.06737 0.006,-0.0041 0.0131,-0.0097 0.0185,-0.01381 z m -0.50724,0.25562 c -0.01,0.0079 -0.0198,0.01575 -0.0296,0.02365 -0.002,-6.29e-4 -0.004,-0.0013 -0.006,-0.0019 0.0118,-0.0073 0.0236,-0.01447 0.0353,-0.02172 z m 0.43626,-0.202601 c -0.006,0.01926 -0.0116,0.03961 -0.0165,0.05618 -0.016,0.0075 -0.032,0.01504 -0.048,0.02253 l 1e-5,-4.3e-5 c 0.003,-0.01272 0.007,-0.02542 0.0102,-0.03813 0.0204,-0.01519 0.0366,-0.02735 0.0543,-0.04054 z m -2.72509,1.361573 c 0.01,-0.0047 0.0199,-0.0095 0.0299,-0.01416 -0.001,0.0027 -0.002,0.0054 -0.004,0.0081 -0.009,0.002 -0.0185,0.0043 -0.0262,0.0061 z m 0.11197,-0.05284 c 8.2e-4,-3.74e-4 0.002,-7.86e-4 0.002,-0.0012 l 3e-5,-1.5e-5 c -8e-5,5.61e-4 -3e-4,0.001 -4.5e-4,0.0016 -0.001,0.0026 -0.003,0.0052 -0.004,0.0079 6.8e-4,-0.0028 0.001,-0.0054 0.002,-0.0082 z m 1.38842,-0.625574 c 0.002,-5.61e-4 0.003,-0.0012 0.005,-0.0018 -4.6e-4,0.0022 -9.5e-4,0.0045 -0.001,0.0067 -0.009,0.0077 -0.0178,0.01539 -0.0267,0.02313 -0.002,0.0017 -0.004,0.0033 -0.006,0.005 -0.005,-0.0023 -0.01,-0.0045 -0.015,-0.0067 0.0146,-0.0088 0.0292,-0.01759 0.0439,-0.02639 z m 4.71701,-2.332781 c 2e-5,-1.5e-5 4e-5,-2.3e-5 1.2e-4,-5.5e-5 -3e-5,2.2e-5 -3e-5,4.6e-5 -1.2e-4,8.7e-5 z m -3.37381,1.691347 c 0.0204,-0.0097 0.0408,-0.01932 0.0611,-0.02906 0.004,0.0021 0.007,0.0043 0.0106,0.0064 -0.002,0.0042 -0.004,0.0084 -0.006,0.0127 -0.0313,0.01109 -0.0626,0.0222 -0.0939,0.03332 0.009,-0.0078 0.0185,-0.01553 0.0277,-0.02335 z m 0.077,-0.03676 c 3.1e-4,-1.87e-4 6.9e-4,-3.11e-4 0.001,-4.98e-4 l -3.7e-4,9.04e-4 c -1.9e-4,-1.25e-4 -5e-4,-2.5e-4 -6.4e-4,-4.37e-4 z m -0.63876,0.325126 c 0.0242,0.0084 0.0484,0.01678 0.0726,0.02516 -0.0191,0.0062 -0.0381,0.01244 -0.0572,0.01868 -0.0173,-0.0056 -0.0347,-0.01112 -0.052,-0.01669 0.0132,-0.0098 0.0201,-0.0149 0.0366,-0.02716 z m 0.6609,-0.311289 c 0.0109,-0.0045 0.0223,-0.008 0.034,-0.01089 l 2e-5,2.8e-5 c -0.011,0.0038 -0.0218,0.0078 -0.0328,0.01164 -4.4e-4,-1.87e-4 -8.3e-4,-4.99e-4 -10e-4,-7.79e-4 z m -0.0363,0.0206 c -0.004,0.01039 -0.008,0.02098 -0.0112,0.03156 -0.0136,0.0017 -0.0218,7.73e-4 -0.0129,-0.0098 0.007,-0.0083 0.0153,-0.01531 0.0241,-0.02179 z m 0.75182,-0.361077 c 10e-4,6.98e-4 10e-4,8.93e-4 0.003,0.0017 -0.001,0.006 -0.001,0.0082 -0.002,0.01318 -0.002,-0.001 -0.004,-0.0021 -0.006,-0.0031 0.002,-0.0039 0.003,-0.0078 0.005,-0.01174 z m -0.8701,0.452062 c 0.0331,-0.01187 0.0661,-0.02383 0.0994,-0.03567 -0.007,0.02261 -0.0118,0.04553 -0.016,0.06854 -0.0278,-0.01095 -0.0556,-0.02191 -0.0834,-0.03287 z m -0.15986,0.08011 c 0.0109,0.0027 0.0217,0.0053 0.0326,0.0079 -0.003,0.0108 -0.006,0.02141 -0.009,0.03166 -0.0125,0.0062 -0.0248,0.0132 -0.037,0.02025 -0.002,6.24e-4 -0.004,0.0012 -0.006,0.0019 0.005,-0.01999 0.0106,-0.03998 0.016,-0.05997 10e-4,-5.61e-4 0.002,-0.0011 0.003,-0.0016 z m -0.56948,0.285161 c 0.002,-4.99e-4 0.003,-0.0011 0.005,-0.0016 0.0138,0.007 0.0276,0.01399 0.0414,0.02099 9.3e-4,0.0096 0.002,0.01729 0.003,0.02592 -0.0242,-0.0092 -0.0483,-0.01849 -0.0725,-0.02768 0.008,-0.0058 0.0161,-0.01196 0.0238,-0.01762 z m 1.537,-0.752669 c 0.004,0.002 0.007,0.0039 0.0105,0.0059 -5e-5,0.0062 -4.4e-4,0.01226 -7.4e-4,0.01837 -0.005,-0.0026 -0.009,-0.0052 -0.0137,-0.0078 0.001,-0.0055 0.003,-0.01099 0.004,-0.01648 z m 0.0282,0.0158 c 0.002,0.0012 0.004,0.0022 0.006,0.0034 -0.003,0.0018 -0.007,0.0037 -0.01,0.0055 10e-4,-0.003 0.003,-0.0059 0.004,-0.0089 z m -0.92279,0.469349 3e-5,-1.4e-5 c 3.7e-4,2.8e-5 6.6e-4,2.49e-4 0.001,2.49e-4 -4.4e-4,1.25e-4 -8e-4,1.87e-4 -0.001,3.12e-4 3e-5,-2.49e-4 1.2e-4,-3.12e-4 1.2e-4,-5.61e-4 z m 2.81863,-1.400397 c 0.003,0.0032 0.006,0.006 0.009,0.0091 -0.001,10e-4 -0.002,0.002 -0.003,0.003 -0.005,-0.0018 -0.01,-0.0037 -0.0146,-0.0055 0.003,-0.0021 0.006,-0.0045 0.009,-0.0066 z m -3.26973,1.635891 c 0.0154,0.0048 0.0309,0.0095 0.0464,0.01425 -0.0141,0.0082 -0.0282,0.01644 -0.0423,0.02469 -9.7e-4,-0.0093 -0.003,-0.02596 -0.004,-0.03894 z m -0.96085,0.482112 c 0.004,0.0037 0.008,0.0075 0.012,0.01123 0.003,0.0032 0.007,0.0063 0.0102,0.0096 -0.002,0.0017 -0.004,0.0036 -0.005,0.0053 -0.0108,0.0081 -0.0217,0.01629 -0.0325,0.02441 1.7e-4,-0.0016 -7e-4,-0.0028 3.6e-4,-0.0047 -8.4e-4,0.0011 -0.002,0.0023 -0.002,0.0034 -0.006,-0.0057 -0.0114,-0.01166 -0.0172,-0.01768 0.0116,-0.01044 0.023,-0.02108 0.0347,-0.03149 z m -1.09069,0.545625 2e-5,2.9e-5 1e-5,2.9e-5 c -10e-4,0.0051 -0.002,0.01014 -0.003,0.0152 -0.002,6.29e-4 -0.003,0.0013 -0.005,0.0019 -0.002,-9.04e-4 -0.005,-0.0018 -0.007,-0.0027 0.005,-0.0048 0.0101,-0.0096 0.0152,-0.01445 z m 1.10252,-0.534246 c -0.01,0.01047 -0.0188,0.02148 -0.0267,0.03361 -1.8e-4,3.12e-4 -3e-5,4.99e-4 -1.8e-4,7.92e-4 0.009,-0.01147 0.0177,-0.02301 0.0268,-0.03438 z m 2.27846,-1.101377 c 0.004,-0.0011 0.007,-0.0023 0.0104,-0.0035 -0.005,0.0044 -0.01,0.0088 -0.0148,0.0132 0.002,-0.0032 0.003,-0.0065 0.004,-0.0097 z m 2.77758,-1.350248 c 0.0241,0.01822 0.0482,0.03642 0.0723,0.05463 -0.019,0.01028 -0.039,0.02144 -0.058,0.03162 -0.0179,-0.02197 -0.0358,-0.04391 -0.0537,-0.06591 0.0124,-0.0064 0.0269,-0.01392 0.0393,-0.02034 z m -3.49416,1.76151 c 0.002,4.99e-4 0.004,9.73e-4 0.006,0.0014 0.004,0.01341 0.009,0.02927 0.0167,0.04766 -0.057,0.02056 -0.11391,0.04115 -0.15949,0.05746 0.004,-0.0037 0.008,-0.0064 0.012,-0.01036 0.007,-0.008 0.0142,-0.02017 0.0205,-0.03371 0.007,-0.0049 0.0121,-0.01021 0.0185,-0.01523 0.0286,-0.01577 0.0572,-0.0315 0.0858,-0.04727 z m 0.69556,-0.337049 5e-5,1.5e-5 10e-6,2.8e-5 c 0.003,-2.06e-4 0.007,-4.43e-4 0.0104,-6.41e-4 -0.006,0.0044 -0.0117,0.0089 -0.0175,0.01326 -0.001,-3.74e-4 -0.002,-7.24e-4 -0.003,-0.0011 1e-5,-3.7e-5 2e-5,-8.1e-5 0,-1.37e-4 0.001,-0.0018 0.002,-0.0038 0.004,-0.0056 0.002,-0.0019 0.004,-0.0039 0.007,-0.0058 z m 0.33781,-0.104625 c 0.007,0.0042 0.012,0.0074 0.0174,0.01071 -0.006,-0.0033 -0.0121,-0.0067 -0.0181,-0.01006 2.5e-4,-2.49e-4 5e-4,-3.99e-4 7.2e-4,-6.4e-4 z m -0.0582,0.05267 2e-5,2.9e-5 1e-5,2.9e-5 c 0.003,0.0017 0.006,0.0035 0.009,0.0053 -0.006,0.0033 -0.0121,0.0067 -0.0182,0.01 -5e-4,1.93e-4 -10e-4,3.36e-4 -0.002,4.67e-4 -0.001,-8.34e-4 -0.003,-0.0017 -0.004,-0.0025 0.005,-0.0044 0.01,-0.0089 0.0147,-0.01329 z m -3.78265,1.888768 c 0.007,0.0023 0.0131,0.0047 0.0197,0.007 -0.01,0.0073 -0.0186,0.01441 -0.0278,0.02159 0.003,-0.0095 0.005,-0.01906 0.008,-0.02859 z m 0.42934,-0.187306 c -0.001,0.0033 -0.003,0.0067 -0.004,0.01007 -0.01,0.0072 -0.0192,0.0143 -0.0287,0.02146 -0.003,-0.0013 -0.007,-0.0026 -0.01,-0.0039 0.0141,-0.0096 0.0284,-0.01831 0.0426,-0.02761 z m 4.12828,-2.046225 c 0.002,-8.22e-4 0.003,-0.0017 0.005,-0.0025 l 1e-5,2.9e-5 c 0.0132,0.0038 0.0259,0.0073 0.0386,0.01093 -0.001,0.0026 -0.002,0.0051 -0.003,0.0077 -0.0151,0.01037 -0.0304,0.02051 -0.0455,0.03082 0.002,-0.01566 0.003,-0.03132 0.005,-0.04698 z m -0.15577,0.07799 c 0.009,-0.0044 0.0175,-0.0087 0.0263,-0.0131 -0.002,0.01485 -0.004,0.02969 -0.006,0.04453 -0.0122,-0.0074 -0.0243,-0.01472 -0.0365,-0.02208 0.005,-0.0031 0.0105,-0.0063 0.0158,-0.0094 z m -0.0476,0.02798 c 0.0192,0.01205 0.0384,0.02411 0.0576,0.03616 -0.0241,0.01611 -0.0483,0.03191 -0.0725,0.04793 -0.005,0.0015 -0.0107,0.0031 -0.016,0.0047 0.005,-0.02631 0.009,-0.05261 0.0137,-0.07892 0.006,-0.0033 0.0115,-0.0065 0.0172,-0.0098 z m -0.0196,0.01118 c -0.004,0.02605 -0.009,0.05212 -0.0134,0.07817 -0.005,0.0016 -0.0105,0.003 -0.0156,0.0046 -0.003,-0.02022 -0.007,-0.04039 -0.01,-0.06064 0.0128,-0.0074 0.0258,-0.01463 0.0387,-0.0221 z m -3.73854,1.873205 2e-5,2.9e-5 c -0.007,0.01442 -0.0131,0.02887 -0.0197,0.04329 -0.0244,0.0097 -0.0487,0.01941 -0.0731,0.02907 3.1e-4,-6.42e-4 5.5e-4,-0.0014 8.2e-4,-0.002 0.0325,-0.02479 0.0616,-0.04716 0.092,-0.07036 z m 0.13185,-0.06358 c 0.001,0.0013 0.002,0.0026 0.003,0.0039 -0.002,0.0021 -0.005,0.0043 -0.008,0.0064 0.002,-0.0034 0.003,-0.0068 0.005,-0.01025 z m 0.14103,-0.0503 c 0.001,-3.12e-4 0.003,-5.61e-4 0.004,-9.29e-4 -4.8e-4,0.0013 -9.4e-4,0.0026 -0.001,0.0039 -7.8e-4,-9.98e-4 -0.002,-0.0019 -0.002,-0.0029 z m 2.98999,-1.489131 2e-5,2.9e-5 c 0.007,0.0041 0.0143,0.008 0.0216,0.01204 -0.004,0.0014 -0.0174,0.0064 -0.0244,0.0089 -0.006,-0.0032 -0.0113,-0.0064 -0.017,-0.0097 8.2e-4,-5.48e-4 0.002,-0.0012 0.002,-0.0017 0.006,-0.0032 0.0116,-0.0064 0.0175,-0.0096 z m -2.66509,1.331069 3e-5,-1.4e-5 c 8.4e-4,2.5e-4 0.002,5.61e-4 0.002,8.48e-4 0.0306,0.01036 0.061,0.02141 0.0915,0.0323 l -0.0414,0.01635 c -0.0148,-0.0052 -0.0297,-0.01046 -0.0445,-0.01569 -0.003,-0.01125 -0.005,-0.02255 -0.008,-0.0338 z m 1.26196,-0.614042 c 0.0101,-0.0046 0.0201,-0.0093 0.0301,-0.01399 l 10e-6,2.8e-5 c -0.002,0.0082 -0.005,0.01591 -0.007,0.02494 -0.006,0.004 -0.0125,0.0081 -0.0188,0.0121 -0.003,-0.0015 -0.006,-0.0031 -0.009,-0.0047 0.002,-0.0061 0.003,-0.01226 0.005,-0.01839 z m 0.0876,-0.04056 c 0.0111,-0.0052 0.0222,-0.01027 0.0333,-0.01542 0.001,4.37e-4 0.003,7.92e-4 0.004,0.0012 -0.0134,0.0087 -0.0269,0.01732 -0.0403,0.02603 0.001,-0.0039 0.002,-0.0079 0.003,-0.01181 z m -1.78736,0.898063 c 5e-5,4.8e-5 1.4e-4,1.25e-4 2.4e-4,1.87e-4 -3e-4,1.25e-4 -5.9e-4,2.5e-4 -8.4e-4,3.74e-4 2.1e-4,-1.24e-4 4.3e-4,-3.74e-4 6.1e-4,-4.98e-4 z m 4.82031,-2.352342 c 0.004,0.0012 0.008,0.0024 0.0122,0.0036 -0.005,0.0015 -0.0105,0.0029 -0.0158,0.0044 10e-4,-0.0027 0.002,-0.0053 0.004,-0.008 z m -5.27043,2.635343 c 0.018,-0.0077 0.0361,-0.01531 0.0541,-0.02295 -0.003,0.0084 -0.007,0.01814 -0.0106,0.02627 -0.003,0.0028 -0.007,0.0056 -0.0104,0.0085 -0.011,-0.0039 -0.0221,-0.0079 -0.0331,-0.01182 z m 2.35136,-1.171054 c 0.005,0.0017 0.0109,0.0034 0.0164,0.0051 -0.0467,0.02902 -0.0937,0.05763 -0.14049,0.08647 -0.003,-0.0013 -0.005,-0.0028 -0.008,-0.0041 0.0441,-0.02894 0.0881,-0.05815 0.13194,-0.0875 z m -2.0066,1.026376 c 0.0539,-0.02261 0.10767,-0.04526 0.16162,-0.06764 7.3e-4,9.1e-4 0.001,0.0016 0.002,0.0027 -0.006,0.01727 -0.0125,0.03453 -0.0188,0.0518 -0.0523,0.02745 -0.10467,0.05493 -0.15713,0.08213 -0.005,-0.002 -0.0105,-0.004 -0.0158,-0.006 0.009,-0.02101 0.0186,-0.04201 0.028,-0.06303 z m 3.16672,-1.579822 c 0.007,-0.0026 0.0137,-0.0052 0.0205,-0.0077 -0.005,0.0032 -0.0103,0.0063 -0.0155,0.0095 -10e-4,-4.99e-4 -0.004,-0.0013 -0.005,-0.0018 z m -3.57613,1.79856 c 0.005,0.0018 0.01,0.0035 0.015,0.0053 -0.006,0.005 -0.0122,0.01004 -0.0183,0.01495 0.001,-0.0067 0.002,-0.0136 0.003,-0.02026 z m 0.19623,-0.08544 c 0.0136,0.005 0.0273,0.01003 0.0409,0.01502 -4.5e-4,9.98e-4 -9e-4,0.002 -0.001,0.003 -0.021,0.01068 -0.042,0.02136 -0.063,0.03199 -0.002,-7.85e-4 -0.004,-0.0016 -0.007,-0.0024 0.006,-0.01159 0.0124,-0.02392 0.0193,-0.0384 0.004,-0.0032 0.007,-0.0061 0.0108,-0.0092 z m -0.27804,0.144545 c -0.003,0.01028 -0.006,0.02058 -0.009,0.03086 -0.004,0.0028 -0.007,0.0055 -0.0104,0.0082 0.007,-0.01299 0.0134,-0.02613 0.0192,-0.03907 z m 2.59591,-1.273294 c 0.006,0.0019 0.0122,0.0038 0.0183,0.0058 -0.002,0.0093 -0.004,0.01818 -0.007,0.02783 -0.0127,0.0072 -0.0253,0.01429 -0.0385,0.02162 -0.0333,0.0083 -0.0667,0.01662 -0.10004,0.02492 0.0424,-0.02666 0.0847,-0.05334 0.127,-0.08014 z m 1.58096,-0.776938 c 0.0209,-0.0077 0.0418,-0.01551 0.0626,-0.02323 -0.001,0.01262 -0.003,0.02525 -0.004,0.03786 -0.01,0.0096 -0.02,0.0191 -0.03,0.02863 -0.009,-0.01451 -0.0186,-0.02886 -0.0282,-0.04326 z m -0.40193,0.219462 c 0.005,0.003 0.0102,0.0059 0.0153,0.0089 -5e-4,0.0035 -0.001,0.007 -0.002,0.01052 -0.007,-0.0026 -0.0138,-0.0049 -0.0202,-0.0072 0.003,-0.005 0.004,-0.0072 0.007,-0.01218 z m 0.45538,-0.168034 3e-5,-1.5e-5 c -0.001,0.009 -0.002,0.01808 -0.004,0.02711 -5e-4,-3.05e-4 -0.001,-6.72e-4 -0.002,-10e-4 -0.003,-0.0046 -0.005,-0.0092 -0.008,-0.01385 0.004,-0.0041 0.009,-0.0082 0.0128,-0.01223 z m 2.03637,-0.703431 c 0.0204,0.100189 0.0376,0.200618 0.0511,0.301164 0.009,0.0089 0.0179,0.01785 0.0268,0.02679 -0.006,0.0026 -0.0128,0.0051 -0.0193,0.0076 -10e-4,-3.81e-4 -0.002,-7.88e-4 -0.003,-0.0012 0.023,0.181295 0.0348,0.362822 0.0357,0.543672 0.005,0.002 0.01,0.0039 0.0148,0.0059 -0.005,0.0018 -0.01,0.0035 -0.0148,0.0053 1.2e-4,0.05447 -4.4e-4,0.108894 -0.002,0.163202 0.0169,-0.0055 0.0336,-0.01104 0.0499,-0.01638 -0.005,0.0075 -0.009,0.01498 -0.0138,0.02248 -0.0123,0.0051 -0.0247,0.0102 -0.037,0.0153 -0.001,0.03089 -0.003,0.06176 -0.004,0.09258 0.0429,-0.02197 0.09,-0.04583 0.13467,-0.06863 0.001,-0.0263 0.002,-0.05262 0.003,-0.07897 -0.0218,0.009 -0.0435,0.01802 -0.0653,0.02702 0.004,-0.0064 0.008,-0.01276 0.0118,-0.01915 0.0182,-0.006 0.0367,-0.01208 0.0537,-0.01766 0.001,-0.05558 0.002,-0.111223 0.001,-0.166948 -0.006,0.0022 -0.0125,0.0045 -0.0187,0.0067 -0.004,-0.0015 -0.008,-0.0031 -0.0121,-0.0046 0.01,-0.0116 0.0201,-0.02376 0.0301,-0.03561 -2.5e-4,-0.01151 -5.6e-4,-0.02302 -8.8e-4,-0.03452 -0.0174,0.02042 -0.0349,0.04078 -0.0523,0.0612 -0.0216,-0.0083 -0.0432,-0.0165 -0.0648,-0.02472 0.0155,-0.04745 0.0329,-0.101229 0.0471,-0.144748 0.015,-0.0056 0.03,-0.01115 0.045,-0.01674 0.007,0.0036 0.0137,0.0073 0.0205,0.01091 -0.006,-0.124396 -0.0177,-0.248912 -0.0343,-0.373306 -4.4e-4,1.87e-4 -8.9e-4,3.74e-4 -0.001,5.36e-4 -0.0241,-0.024 -0.0482,-0.04814 -0.0723,-0.07218 0.0173,0.0049 0.0347,0.0097 0.052,0.01463 0.005,0.002 0.01,0.0041 0.0144,0.0061 -0.009,-0.06518 -0.02,-0.130329 -0.0323,-0.195361 -0.005,0.0037 -0.01,0.0074 -0.0143,0.01117 -2.5e-4,-8.1e-5 -5e-4,-2.24e-4 -8.3e-4,-2.8e-4 0.004,-0.0057 0.009,-0.01043 0.0141,-0.01584 -0.001,-0.0072 -0.003,-0.0144 -0.004,-0.0216 -0.008,0.01043 -0.0156,0.02192 -0.0239,0.03168 -0.0377,-0.01524 -0.0754,-0.03039 -0.1131,-0.0455 z m -0.79638,0.409593 c 0.01,0.07296 0.0174,0.145987 0.0228,0.218983 0.003,7.53e-4 0.006,0.0016 0.009,0.0024 -0.002,0.0098 -0.004,0.01944 -0.007,0.02914 0.005,0.07408 0.007,0.148101 0.008,0.221996 0.006,-0.02566 0.0112,-0.05135 0.0169,-0.0769 0.0101,-0.0079 0.0201,-0.01599 0.0302,-0.0239 l 1e-5,2.8e-5 c -0.009,0.02433 -0.0174,0.04864 -0.026,0.073 -0.006,0.01813 -0.0139,0.03905 -0.0211,0.05926 -1.2e-4,0.03292 -6.3e-4,0.0658 -0.002,0.09864 0.0221,-0.0084 0.0442,-0.01681 0.0663,-0.0252 7.4e-4,-0.03207 0.001,-0.06418 9.9e-4,-0.0963 -0.0153,0.0099 -0.0306,0.01988 -0.0459,0.02976 0.0239,-0.06749 0.01,-0.02665 0.0355,-0.100294 0.003,-0.0083 0.006,-0.01665 0.009,-0.02498 -8.8e-4,-0.03123 -0.002,-0.06247 -0.004,-0.09373 -0.001,9.36e-4 -0.002,0.0019 -0.004,0.0028 -0.006,0.0017 -0.0126,0.0033 -0.019,0.005 0.004,-0.01938 0.009,-0.03848 0.0131,-0.05764 l 2e-5,-1.4e-5 c 0.002,-8.29e-4 0.004,-0.0016 0.006,-0.0024 -0.005,-0.07653 -0.0128,-0.153089 -0.0227,-0.229602 -0.0225,-0.0034 -0.045,-0.0067 -0.0676,-0.01 z m -6.974488,3.597812 1.4e-5,2.9e-5 c -0.0036,0.01308 -0.0062,0.02642 -0.0085,0.03985 -0.0038,0.0017 -0.0076,0.0038 -0.01141,0.0055 -0.02047,0.0087 -0.04131,0.01608 -0.06225,0.0231 -0.0051,-0.0061 -0.01047,-0.01239 -0.0147,-0.01733 0.03225,-0.01709 0.06453,-0.03414 0.09684,-0.05112 z m 7.856398,-3.662481 c 0.002,-8.26e-4 0.004,-0.0017 0.007,-0.0025 0.002,0.0024 0.005,0.0049 0.007,0.0073 -0.005,-0.0016 -0.009,-0.0032 -0.0139,-0.0047 z m -7.643477,3.852981 c 5.8e-4,0.02651 0.0011,0.05468 0.0017,0.08152 -0.01907,0.01653 -0.03871,0.03178 -0.05949,0.0443 0.0025,0.0023 0.005,0.0046 0.0075,0.0069 0.01765,0.0022 0.0324,-0.0034 0.04522,-0.01371 -0.0035,0.01551 -0.007,0.03068 -0.01036,0.04585 0.0064,0.0058 0.01277,0.0115 0.01918,0.01722 3.4e-5,-2.49e-4 8.2e-5,-3.74e-4 1.25e-4,-6.23e-4 1.1e-5,2.49e-4 5e-6,4.98e-4 1.3e-5,7.54e-4 0.364666,0.326007 0.775709,0.58972 1.215689,0.78508 0.0164,0.0043 0.0321,0.0085 0.0493,0.01294 -0.002,0.0018 -0.005,0.0035 -0.007,0.0053 0.19506,0.08432 0.39556,0.155481 0.60014,0.212615 0.0298,-0.01194 0.0597,-0.02389 0.0895,-0.03586 0.007,-0.0016 0.0123,-0.0026 0.0193,-0.0041 0.0823,0.01991 0.16466,0.03947 0.24709,0.0588 -0.004,0.006 -0.008,0.01149 -0.0113,0.01754 -0.005,0.0019 -0.009,0.0034 -0.0162,0.0057 -0.0279,0.0097 -0.0463,0.01596 -0.0663,0.02282 0.0251,0.0055 0.0503,0.01087 0.0755,0.01594 0.0384,-0.01314 0.0768,-0.0263 0.11506,-0.03944 0.009,0.0021 0.0178,0.0042 0.0268,0.0063 -0.0167,0.01274 -0.0332,0.02563 -0.0496,0.03828 -0.004,0.0028 -0.008,0.0071 -0.0118,0.01036 0.53263,0.0974 1.08461,0.102659 1.63103,0.0079 -0.0421,-0.01063 -0.0843,-0.02119 -0.12639,-0.03193 0.035,-0.03259 0.0699,-0.06528 0.1048,-0.09794 -0.0282,0.0049 -0.0564,0.0096 -0.0846,0.01392 -0.0255,0.02317 -0.051,0.04642 -0.0766,0.06951 -0.008,-0.002 -0.0157,-0.0039 -0.0236,-0.0059 0.001,-0.01659 0.003,-0.03319 0.004,-0.04978 -0.0433,0.0057 -0.0867,0.0107 -0.13005,0.01516 -1.2e-4,10e-4 -2.5e-4,0.002 -3.7e-4,0.003 -0.003,-6.98e-4 -0.005,-0.0014 -0.008,-0.0021 -0.81767,0.0825 -1.63636,-0.06107 -2.36873,-0.401591 -0.0347,-0.0089 -0.0695,-0.01757 -0.10416,-0.02649 0.004,-0.0057 0.009,-0.01133 0.0133,-0.01699 -0.01,-0.0047 -0.0191,-0.0092 -0.0286,-0.01394 -0.006,0.0075 -0.0119,0.01502 -0.0179,0.02255 -0.0174,-0.0045 -0.0348,-0.0088 -0.0521,-0.01327 0.005,-0.01245 0.0103,-0.0249 0.0155,-0.03735 -0.20519,-0.106262 -0.402788,-0.228258 -0.590666,-0.36561 -0.0023,0.0076 -0.0046,0.01513 -0.0069,0.02269 -0.0022,6.8e-4 -0.0044,0.0014 -0.0066,0.0021 -0.03619,-0.01003 -0.07238,-0.02009 -0.108569,-0.03012 0.01459,-0.01742 0.03005,-0.03503 0.04486,-0.05248 -0.01084,-0.0083 -0.02171,-0.01652 -0.03248,-0.02491 -0.01797,0.02177 -0.03589,0.04342 -0.05433,0.06581 -0.01847,-0.0051 -0.03695,-0.01024 -0.05541,-0.01538 -5.4e-5,-0.0021 -4.4e-5,-0.0045 -9.4e-5,-0.0066 0.03289,-0.01771 0.06598,-0.03502 0.09905,-0.0524 -0.0277,-0.02171 -0.05519,-0.04372 -0.08241,-0.06611 -0.0061,0.0023 -0.01223,0.0045 -0.01835,0.0068 -1.31e-4,-0.0071 -1.18e-4,-0.01508 -2.24e-4,-0.02232 -0.0736,-0.06119 -0.14561,-0.12465 -0.215555,-0.190797 z m 0.158419,0.149452 c -1.63e-4,0.02786 -5.8e-4,0.05778 -6.8e-4,0.08517 -0.0085,0.0032 -0.01696,0.0062 -0.02542,0.0094 -8.01e-4,-0.0099 -0.002,-0.01982 -0.0027,-0.02975 0.0096,-0.02163 0.01923,-0.04323 0.02882,-0.06486 z m 7.490018,-3.724024 c 0.005,-0.0023 0.0109,-0.0046 0.0163,-0.0069 -6e-5,2.49e-4 -1.9e-4,4.98e-4 -1.9e-4,7.24e-4 -0.005,0.0021 -0.0108,0.0041 -0.0161,0.0061 z m -0.8643,0.553617 c -0.002,0.02303 -0.004,0.04601 -0.006,0.06898 0.006,0.0036 0.0112,0.0071 0.0168,0.01065 -0.006,0.0025 -0.0126,0.0052 -0.0185,0.0076 -0.004,0.03724 -0.008,0.07443 -0.0126,0.111495 0.0242,-0.0098 0.0474,-0.01929 0.0695,-0.02821 0.005,-0.04403 0.0101,-0.08817 0.0138,-0.132429 -7.1e-4,-4.36e-4 -0.001,-8.92e-4 -0.002,-0.0013 8.2e-4,-2.49e-4 0.002,-5.61e-4 0.002,-8.54e-4 10e-4,-0.01248 0.002,-0.02498 0.003,-0.03747 -0.0143,0.0052 -0.0286,0.01034 -0.043,0.01542 -0.008,-0.0046 -0.0153,-0.0092 -0.023,-0.01382 z m -0.0301,0.267651 c -0.003,0.01808 -0.006,0.03613 -0.009,0.05417 0.0238,-0.0097 0.0473,-0.01928 0.0712,-0.02902 0.003,-0.01817 0.005,-0.03639 0.008,-0.05461 -0.0235,0.0098 -0.047,0.01965 -0.0705,0.02946 z m 0.0506,0.09803 c -0.0244,0.01314 -0.0462,0.02485 -0.072,0.03878 -5e-4,-3.12e-4 -10e-4,-5.62e-4 -0.002,-8.23e-4 -0.006,0.02954 -0.0115,0.059 -0.0177,0.08838 3.1e-4,5.7e-5 5e-4,6.3e-5 8.3e-4,1.25e-4 0.0169,0.0093 0.0379,0.02088 0.0592,0.0326 0.0115,-0.05278 0.022,-0.105811 0.0313,-0.159099 z m -0.103,0.18 c -0.009,0.03996 -0.0191,0.07971 -0.0296,0.119318 0.007,-0.0026 0.014,-0.0052 0.021,-0.0078 0.01,0.0059 0.0192,0.01185 0.0288,0.01781 -0.0203,0.01043 -0.0406,0.02091 -0.061,0.03137 -0.005,0.01804 -0.0102,0.03602 -0.0155,0.05397 0.0266,-0.01356 0.0532,-0.02716 0.0798,-0.04072 0.0137,-0.04961 0.0265,-0.09945 0.0381,-0.149612 -0.004,0.0015 -0.008,0.003 -0.0121,0.0045 -6.8e-4,-3.74e-4 -0.001,-8.16e-4 -0.002,-0.0012 -0.0159,-0.0092 -0.0317,-0.01841 -0.0476,-0.0276 z m -6.130564,3.067533 c 0.0052,0.0013 0.01028,0.0026 0.01543,0.0039 -0.0059,0.002 -0.0117,0.004 -0.01757,0.0059 7.08e-4,-0.0033 0.0014,-0.0066 0.0021,-0.0099 z m 7.050314,-3.390843 c -0.004,0.03177 -0.007,0.06352 -0.0114,0.09519 0.0139,-0.0052 0.0279,-0.01043 0.0419,-0.01564 -0.0143,0.0079 -0.0287,0.01573 -0.043,0.02362 -0.003,0.02042 -0.006,0.04077 -0.009,0.06114 0.0478,-0.02614 0.0956,-0.05236 0.14326,-0.0786 0.006,-0.05103 0.012,-0.102221 0.0168,-0.153506 -0.0117,0.0056 -0.0234,0.01107 -0.0351,0.01675 -0.0348,0.01701 -0.069,0.03401 -0.10355,0.05103 z m -6.74932,3.467471 c 0.01,0.0024 0.0192,0.0049 0.0287,0.0073 -0.004,0.01802 -0.007,0.03605 -0.0113,0.05401 -0.002,0.0012 -0.003,0.0026 -0.005,0.0038 -0.0276,-0.0072 -0.0553,-0.01398 -0.0829,-0.02132 3.5e-4,-0.0016 6.7e-4,-0.0032 10e-4,-0.0048 0.0231,-0.01303 0.0461,-0.02607 0.0692,-0.03907 z m 5.74903,-2.849711 c -0.01,0.0316 -0.0205,0.06306 -0.0314,0.09438 0.008,0.0035 0.0166,0.007 0.0249,0.01054 -0.002,0.002 -0.003,0.004 -0.005,0.006 -0.008,-0.0026 -0.0151,-0.0053 -0.0226,-0.0079 -0.0134,0.03822 -0.0272,0.0763 -0.0418,0.114063 0.008,0.0027 0.0149,0.0052 0.0226,0.008 -0.002,5.61e-4 -0.004,0.0014 -0.006,0.002 -0.006,-0.0022 -0.0121,-0.0043 -0.0181,-0.0065 -0.0109,0.02807 -0.0222,0.05599 -0.0338,0.08378 0.0166,0.0062 0.0333,0.01229 0.05,0.01852 -0.007,0.0056 -0.0128,0.01069 -0.0194,0.01624 -0.012,-0.0073 -0.0241,-0.01461 -0.0361,-0.02192 -2.5e-4,4.98e-4 -4.3e-4,9.78e-4 -6.3e-4,0.0015 0.0118,0.0072 0.0236,0.01436 0.0354,0.02153 -0.0227,0.01913 -0.0446,0.03731 -0.0669,0.05593 5.6e-4,-0.0028 0.001,-0.0057 0.002,-0.0085 -0.0357,0.07987 -0.0741,0.158545 -0.11545,0.235821 0.001,-3.12e-4 0.002,-6.24e-4 0.003,-9.67e-4 -0.0134,0.06588 -0.0266,0.131799 -0.0397,0.197734 0.0365,-0.06063 0.0712,-0.122229 0.10412,-0.184695 0.002,-0.01127 0.004,-0.0225 0.006,-0.03377 0.004,-0.0013 0.009,-0.0025 0.013,-0.0038 0.022,-0.04295 0.0432,-0.08629 0.0636,-0.130009 -0.0114,-0.0037 -0.0226,-0.0073 -0.0337,-0.01092 0.008,-0.0069 0.0167,-0.01373 0.025,-0.02067 0.006,-7.92e-4 0.0108,-0.0015 0.019,-0.0026 4.4e-4,-6.2e-5 0.005,-6.98e-4 0.006,-7.92e-4 0.0681,-0.150433 0.12627,-0.305127 0.17405,-0.463045 -0.0223,0.01155 -0.0446,0.02314 -0.067,0.03461 -0.003,-0.0013 -0.008,-0.003 -0.0111,-0.0044 z m -5.71074,2.85948 c 0.0124,0.0032 0.0249,0.0063 0.0373,0.0094 -0.009,0.0074 -0.0164,0.01398 -0.0245,0.02081 -0.01,0.0055 -0.019,0.01104 -0.0275,0.01689 0.005,-0.01566 0.01,-0.03143 0.0146,-0.04713 z m 6.82584,-3.338478 c -0.0128,0.01303 -0.0281,0.02872 -0.0391,0.03995 -0.0322,0.01443 -0.0714,0.03201 -0.10672,0.04784 -0.0255,0.157275 -0.0593,0.312918 -0.10108,0.466323 0.002,8.98e-4 0.003,0.0019 0.005,0.0028 -0.003,0.0036 -0.006,0.0073 -0.009,0.01088 -0.006,0.02242 -0.0126,0.04475 -0.0191,0.06707 0.0174,-0.02158 0.0348,-0.04317 0.0523,-0.06471 0.005,0.0025 0.01,0.0053 0.0145,0.0078 -0.009,0.01962 -0.0197,0.04132 -0.029,0.06086 -0.01,0.0058 -0.0188,0.01103 -0.0284,0.01663 -0.004,-0.0027 -0.009,-0.0055 -0.0131,-0.0082 -0.014,0.04753 -0.0287,0.09486 -0.0442,0.141897 0.006,-0.0018 0.0117,-0.0035 0.0175,-0.0053 -0.003,0.0062 -0.006,0.01245 -0.009,0.01917 -0.005,-0.0021 -0.008,-0.0033 -0.0115,-0.0046 -0.10709,0.321342 -0.25017,0.630639 -0.42672,0.921615 9.3e-4,4.36e-4 0.002,9.41e-4 0.003,0.0014 -0.002,0.0042 -0.004,0.0081 -0.006,0.01213 -0.002,7.42e-4 -0.004,0.0015 -0.007,0.0023 -0.0439,0.07168 -0.0897,0.142276 -0.13768,0.211595 0.0148,-0.0045 0.0296,-0.009 0.0444,-0.01362 -0.009,0.01816 -0.0211,0.04268 -0.0289,0.05849 -0.0116,-0.0057 -0.0232,-0.01136 -0.0348,-0.01703 -0.0672,0.09563 -0.13843,0.188751 -0.2133,0.279349 0.003,0.0012 0.006,0.0023 0.009,0.0035 -0.0141,0.014 -0.0282,0.02804 -0.0423,0.04208 -0.002,0.0011 -0.005,0.0022 -0.007,0.0032 -0.38453,0.452197 -0.86467,0.835978 -1.42955,1.117798 -0.33427,0.166771 -0.67928,0.288079 -1.028,0.366915 -0.004,0.01044 -0.007,0.02086 -0.0107,0.0313 -0.009,-0.0077 -0.0174,-0.0153 -0.0261,-0.02296 -0.0375,0.0081 -0.075,0.01582 -0.11254,0.02298 0.0328,0.03062 0.0657,0.06122 0.0985,0.09187 -0.008,0.0039 -0.0164,0.0078 -0.0245,0.01175 -0.0186,-0.01126 -0.0387,-0.0127 -0.0602,8.86e-4 -0.0164,0.01033 -0.0311,0.02256 -0.0457,0.03502 0.0893,-0.01585 0.17839,-0.0341 0.26724,-0.05534 0.0208,-0.01012 0.0417,-0.02029 0.0625,-0.03045 -0.002,0.0055 -0.005,0.01108 -0.007,0.01662 0.25624,-0.06459 0.51007,-0.151841 0.7589,-0.262719 -0.0202,-0.01256 -0.0405,-0.02515 -0.0607,-0.03772 0.0181,-0.0085 0.0341,-0.01751 0.0471,-0.02726 0.0244,0.01197 0.0483,0.02517 0.0723,0.0384 0.0429,-0.0198 0.0856,-0.04009 0.12816,-0.06131 0.0376,-0.01875 0.0747,-0.03799 0.11161,-0.05759 -0.002,-4.98e-4 -0.004,-0.001 -0.005,-0.0016 0.0127,-0.04734 0.0254,-0.09463 0.0381,-0.14196 0.0128,-0.0064 0.0257,-0.01287 0.0386,-0.01931 -0.0185,0.05156 -0.037,0.103142 -0.0562,0.154508 0.0273,-0.01469 0.0546,-0.02946 0.0816,-0.04462 0.009,-0.02677 0.0181,-0.05354 0.0271,-0.08032 0.0137,-0.02386 0.0281,-0.04899 0.045,-0.07856 3.8e-4,-1.87e-4 7.7e-4,-3.74e-4 0.001,-6.24e-4 l 2e-5,2.9e-5 c 0.0108,0.0087 0.0216,0.01738 0.0325,0.02606 -0.0277,0.03559 -0.0541,0.07238 -0.0788,0.10916 -0.008,0.0075 -0.016,0.01506 -0.0239,0.02257 0.0463,-0.02608 0.0917,-0.05311 0.13678,-0.08055 0.005,-0.0043 0.009,-0.0087 0.0136,-0.01304 10e-4,8.92e-4 0.002,0.0018 0.003,0.0026 0.24852,-0.152817 0.47845,-0.325908 0.68837,-0.516324 -0.0111,0.0049 -0.0223,0.0096 -0.0335,0.01431 0.007,-0.007 0.0149,-0.01398 0.0224,-0.02097 0.004,0.0015 0.009,0.0031 0.0135,0.0046 0.26087,-0.236957 0.49099,-0.500409 0.68832,-0.784002 -10e-4,-6.8e-4 -0.003,-0.0014 -0.004,-0.002 0.004,-0.0065 0.009,-0.01298 0.0132,-0.01947 0.003,-0.0013 0.005,-0.0024 0.008,-0.0036 0.0763,-0.111134 0.14772,-0.225176 0.21383,-0.34201 -0.009,0.0031 -0.0173,0.0062 -0.0259,0.0093 0.0572,-0.09883 0.11283,-0.191049 0.15796,-0.260738 0.006,-0.01227 0.0121,-0.02448 0.018,-0.0368 -0.0367,0.02661 -0.0718,0.0579 -0.10013,0.0838 -0.001,0.0013 -0.004,0.0043 -0.006,0.0063 0.025,-0.05833 0.05,-0.11663 0.075,-0.174938 0.0232,0.0072 0.0344,0.01076 0.0585,0.01819 8.1e-4,4.99e-4 0.002,9.73e-4 0.002,0.0015 0.014,-0.03057 0.0278,-0.06127 0.0411,-0.09212 -0.005,-0.0016 -0.0106,-0.0033 -0.017,-0.0052 l 0.023,-0.0088 c 0.006,-0.01308 0.0114,-0.0261 0.0169,-0.03923 -0.0284,0.01082 -0.0568,0.02165 -0.0851,0.03253 0.0135,-0.03152 0.0271,-0.06301 0.0405,-0.09454 0.0205,0.0078 0.0405,0.0154 0.0605,0.02306 0.0126,-0.03087 0.0249,-0.06184 0.0369,-0.09296 -0.0173,-0.0063 -0.0333,-0.01216 -0.0584,-0.02126 7.7e-4,-0.0018 0.002,-0.0037 0.002,-0.0055 0.0194,0.0071 0.0387,0.0141 0.0581,0.02116 0.023,-0.06027 0.0449,-0.120953 0.0654,-0.182108 -0.0157,-0.0065 -0.0314,-0.01295 -0.0472,-0.01942 0.002,-0.0047 0.009,-0.02246 0.0115,-0.02752 0.0141,0.009 0.0281,0.01795 0.0422,0.02694 0.0134,-0.04054 0.0261,-0.08129 0.0384,-0.122178 -0.006,0.0016 -0.0114,0.0033 -0.017,0.0049 -2.5e-4,5.5e-5 -5e-4,5.5e-5 -7.7e-4,1.24e-4 -0.007,-0.0042 -0.0133,-0.0084 -0.02,-0.01259 0.004,-0.01015 0.0143,-0.0341 0.0194,-0.04645 0.0137,-0.0078 0.0275,-0.01568 0.0412,-0.02354 0.0103,-0.03647 0.0201,-0.07306 0.0295,-0.109781 -0.004,-0.0021 -0.008,-0.0043 -0.0125,-0.0064 0.012,-0.02865 0.0227,-0.05439 0.0337,-0.0806 0.0187,-0.07957 0.0356,-0.159636 0.0501,-0.240171 -0.0262,-0.01569 -0.0523,-0.03139 -0.0785,-0.04705 0.019,-0.01937 0.038,-0.03876 0.057,-0.05813 0.0132,-0.0058 0.0282,-0.01227 0.042,-0.01829 0.003,-0.02266 0.007,-0.04534 0.01,-0.06806 z m -0.14105,0.125243 c 0.0109,-0.0047 0.0216,-0.0094 0.0322,-0.01399 -0.007,0.0066 -0.0141,0.01426 -0.0206,0.0209 -0.004,-0.0023 -0.008,-0.0046 -0.0115,-0.0069 z m -4.08398,2.039463 c -0.006,0.0039 -0.0127,0.0077 -0.019,0.01163 -4.4e-4,0.0015 -0.002,0.0056 -0.002,0.0076 0.004,-0.0011 0.009,-0.0021 0.0128,-0.0032 0.003,-0.0053 0.006,-0.01066 0.009,-0.01599 z m 4.09891,-1.751313 c -0.0177,0.02179 -0.0352,0.04367 -0.0528,0.06548 -0.0123,-0.0063 -0.0246,-0.01268 -0.0369,-0.01905 0.0278,-0.01516 0.0575,-0.03052 0.0897,-0.04643 z m -1.16706,0.611562 c 0.003,8.79e-4 0.006,0.002 0.009,0.0028 -0.003,9.23e-4 -0.007,0.0018 -0.01,0.0028 3.7e-4,-0.0019 7e-4,-0.0037 10e-4,-0.0056 z m -0.18562,0.253799 c -0.009,0.01549 -0.0188,0.03101 -0.0284,0.04637 0.008,0.0039 0.0151,0.0078 0.0226,0.01171 -0.012,0.0041 -0.0253,0.0087 -0.0386,0.01322 -0.013,0.02038 -0.0262,0.04068 -0.0396,0.06083 0.0246,-0.0085 0.0486,-0.01675 0.0681,-0.02351 -0.0296,0.01773 -0.0588,0.03535 -0.0883,0.05303 -0.0171,0.02503 -0.0344,0.04987 -0.0521,0.0745 0.0115,-0.007 0.0231,-0.01386 0.0346,-0.02083 -0.0136,0.01101 -0.0272,0.02199 -0.0408,0.03303 6e-5,-0.0011 1.2e-4,-0.0025 1.9e-4,-0.0038 -0.0468,0.06465 -0.0957,0.127901 -0.1468,0.189643 -4.4e-4,0.0099 -8.1e-4,0.01987 -10e-4,0.0298 -0.0119,0.0047 -0.0237,0.0095 -0.0356,0.01429 -0.0152,0.01781 -0.0308,0.03538 -0.0464,0.05292 0.0233,-0.0095 0.0467,-0.01907 0.0701,-0.02848 -0.002,0.0064 -0.004,0.01228 -0.007,0.01839 -0.003,0.0017 -0.006,0.0033 -0.009,0.0049 -0.0126,0.0036 -0.0253,0.0073 -0.0379,0.01095 -0.003,8.04e-4 -0.0162,0.0045 -0.0288,0.0079 -0.0578,0.06438 -0.11811,0.12687 -0.18079,0.187409 5e-4,-1.25e-4 9.5e-4,-2.49e-4 0.001,-3.74e-4 0.003,0.01628 0.007,0.03243 0.01,0.04884 -3.8e-4,0.0015 -7.9e-4,0.0029 -10e-4,0.0044 -0.041,0.04041 -0.0817,0.081 -0.12277,0.12134 0.009,-0.03148 0.0168,-0.0619 0.0251,-0.09254 -0.0306,0.02764 -0.0618,0.05474 -0.0934,0.08144 -0.005,0.01606 -0.009,0.03212 -0.0136,0.04818 -0.0232,0.0068 -0.0463,0.01338 -0.0695,0.02004 -0.0858,0.06822 -0.17518,0.132997 -0.2681,0.194105 0.009,0.0031 0.018,0.0062 0.027,0.0093 -0.0282,0.0094 -0.0565,0.01882 -0.0848,0.02818 -0.0604,0.0381 -0.12234,0.07448 -0.18556,0.109427 0.0944,-0.032 0.18986,-0.06363 0.28514,-0.09538 0.0522,-0.03449 0.10334,-0.07016 0.15337,-0.106906 -0.0238,-0.0079 -0.0477,-0.01577 -0.0715,-0.02366 0.003,-8.35e-4 0.006,-0.0018 0.009,-0.0026 0.022,0.008 0.0441,0.0159 0.0661,0.02385 0.29794,-0.219373 0.55612,-0.477853 0.77101,-0.764551 -0.006,-0.0014 -0.0126,-0.0027 -0.0189,-0.0041 6.2e-4,-0.0116 0.001,-0.02405 0.002,-0.03737 0.0371,-0.03018 0.0743,-0.06017 0.11142,-0.09023 0.039,-0.05698 0.0763,-0.114929 0.11196,-0.17381 -0.0196,-0.01 -0.0391,-0.01992 -0.0587,-0.02988 z m 0.17393,0.313821 c -0.0339,0.01859 -0.0678,0.03716 -0.10173,0.05576 -6.4e-4,0.0036 -0.001,0.0072 -0.002,0.01081 0.0153,0.0031 0.0306,0.0063 0.0459,0.0094 0.005,-0.0016 0.01,-0.0031 0.0149,-0.0048 1.3e-4,-4.3e-5 1.9e-4,-6.2e-5 2.5e-4,-1.24e-4 0.0123,-0.02054 0.0283,-0.04725 0.0426,-0.07107 z m -4.21223,2.284047 c 0.007,0.0017 0.0145,0.0035 0.0217,0.0052 -0.01,0.0033 -0.0198,0.0069 -0.0293,0.01025 0.002,-0.0052 0.005,-0.01029 0.008,-0.01541 z m 4.55588,-1.73878 c 0.004,0.0021 0.008,0.0043 0.0123,0.0064 -0.006,0.0199 -0.002,0.02191 0.0142,0.0074 0.002,0.0012 0.004,0.0023 0.007,0.0035 -0.005,0.01398 -0.01,0.02823 -0.0145,0.04001 -0.0166,-0.0063 -0.0331,-0.01248 -0.0497,-0.01875 9.4e-4,-0.0032 0.002,-0.0064 0.003,-0.0097 0.009,-0.0097 0.0188,-0.01926 0.0281,-0.02891 z m -0.19821,0.20114 c 0.0157,-0.0072 0.0313,-0.01435 0.0469,-0.02154 -0.002,0.0051 -0.003,0.0101 -0.005,0.01511 -0.008,0.0075 -0.0155,0.0149 -0.023,0.02253 -0.0211,0.01025 -0.043,0.02075 -0.0689,0.03302 0.0165,-0.01638 0.0332,-0.03265 0.0497,-0.04912 z m 0.13142,-0.04338 c 0.002,8.54e-4 0.004,0.0018 0.006,0.0026 -0.002,0.0011 -0.005,0.0025 -0.008,0.0036 6.2e-4,-0.0021 0.001,-0.0041 0.002,-0.0063 z m -0.27115,0.254847 c -0.002,0.0033 -0.004,0.0068 -0.007,0.01019 -0.0105,0.0036 -0.021,0.0073 -0.0316,0.01095 0.0127,-0.0071 0.0255,-0.0139 0.0381,-0.02115 z m -2.22875,1.217466 c 0.008,0.0032 0.017,0.0064 0.0255,0.0096 0.01,0.01218 0.0191,0.02442 0.0286,0.03659 -0.0273,0.01313 -0.0546,0.0262 -0.0819,0.03926 0.01,-0.02837 0.0185,-0.05699 0.0279,-0.08547 z m 1.97508,-0.974216 c 0.008,0.0028 0.0161,0.0055 0.0241,0.0083 -0.009,0.0083 -0.0178,0.01654 -0.0267,0.02482 9.1e-4,-0.01038 0.002,-0.02336 0.003,-0.03311 z m -0.32624,0.285358 c 0.009,-0.0028 0.0187,-0.0056 0.0281,-0.0084 -3.8e-4,0.0069 -7e-4,0.01375 -0.001,0.02062 -0.0144,-0.0014 -0.0287,-0.0027 -0.0431,-0.0041 0.005,-0.0027 0.0108,-0.0054 0.0161,-0.0081 z m -0.51764,0.260311 c -0.0125,0.04675 -0.0251,0.09344 -0.0375,0.140203 -0.0269,-0.0078 -0.0532,-0.01663 -0.0798,-0.02491 0.005,-0.02123 0.0106,-0.04221 0.0164,-0.06472 0.0337,-0.0168 0.0673,-0.03371 0.10093,-0.05056 z m 0.28054,-0.127253 c 0.002,2.49e-4 0.004,4.98e-4 0.007,7.1e-4 -0.003,0.005 -0.005,0.01046 -0.009,0.01783 -0.004,0.004 -0.009,0.0081 -0.0129,0.01214 -0.002,-0.0013 -0.003,-0.0027 -0.005,-0.004 0.007,-0.0092 0.0135,-0.01807 0.0208,-0.02664 z m 2.00803,-0.174743 c -0.002,9.85e-4 -0.003,0.0016 -0.005,0.0027 5.6e-4,4.36e-4 10e-4,8.98e-4 0.002,0.0013 8.3e-4,-0.0011 0.002,-0.0028 0.003,-0.004 z" />
  </g>
</svg>
